<mxfile host="app.diagrams.net" agent="Mozilla/5.0 (Windows NT 10.0; Win64; x64; rv:130.0) Gecko/20100101 Firefox/130.0" version="24.7.13">
  <diagram name="Σελίδα-1" id="3e7bHVvW3uJRTeOxdSLg">
    <mxGraphModel dx="540" dy="315" grid="1" gridSize="10" guides="1" tooltips="1" connect="1" arrows="1" fold="1" page="1" pageScale="1" pageWidth="827" pageHeight="1169" math="1" shadow="0">
      <root>
        <mxCell id="0" />
        <mxCell id="1" parent="0" />
        <mxCell id="lK9pv-B9VWX-SxhaW1v4-6" value="" style="rounded=0;whiteSpace=wrap;html=1;fillColor=#E6E6E6;strokeColor=none;" vertex="1" parent="1">
          <mxGeometry x="150" y="510" width="100" height="120" as="geometry" />
        </mxCell>
        <mxCell id="lK9pv-B9VWX-SxhaW1v4-2" value="" style="shape=image;verticalLabelPosition=bottom;labelBackgroundColor=default;verticalAlign=top;aspect=fixed;imageAspect=0;image=data:image/jpeg,/9j/4AAQSkZJRgABAQEASABIAAD/4REaRXhpZgAATU0AKgAAAAgABAEPAAIAAAAGAAAISgEQAAIAAAAOAAAIUIdpAAQAAAABAAAIXuocAAcAAAgMAAAAPgAAAAAc6gAAAAgAAAAAAAAAAAAAAAAAAAAAAAAAAAAAAAAAAAAAAAAAAAAAAAAAAAAAAAAAAAAAAAAAAAAAAAAAAAAAAAAAAAAAAAAAAAAAAAAAAAAAAAAAAAAAAAAAAAAAAAAAAAAAAAAAAAAAAAAAAAAAAAAAAAAAAAAAAAAAAAAAAAAAAAAAAAAAAAAAAAAAAAAAAAAAAAAAAAAAAAAAAAAAAAAAAAAAAAAAAAAAAAAAAAAAAAAAAAAAAAAAAAAAAAAAAAAAAAAAAAAAAAAAAAAAAAAAAAAAAAAAAAAAAAAAAAAAAAAAAAAAAAAAAAAAAAAAAAAAAAAAAAAAAAAAAAAAAAAAAAAAAAAAAAAAAAAAAAAAAAAAAAAAAAAAAAAAAAAAAAAAAAAAAAAAAAAAAAAAAAAAAAAAAAAAAAAAAAAAAAAAAAAAAAAAAAAAAAAAAAAAAAAAAAAAAAAAAAAAAAAAAAAAAAAAAAAAAAAAAAAAAAAAAAAAAAAAAAAAAAAAAAAAAAAAAAAAAAAAAAAAAAAAAAAAAAAAAAAAAAAAAAAAAAAAAAAAAAAAAAAAAAAAAAAAAAAAAAAAAAAAAAAAAAAAAAAAAAAAAAAAAAAAAAAAAAAAAAAAAAAAAAAAAAAAAAAAAAAAAAAAAAAAAAAAAAAAAAAAAAAAAAAAAAAAAAAAAAAAAAAAAAAAAAAAAAAAAAAAAAAAAAAAAAAAAAAAAAAAAAAAAAAAAAAAAAAAAAAAAAAAAAAAAAAAAAAAAAAAAAAAAAAAAAAAAAAAAAAAAAAAAAAAAAAAAAAAAAAAAAAAAAAAAAAAAAAAAAAAAAAAAAAAAAAAAAAAAAAAAAAAAAAAAAAAAAAAAAAAAAAAAAAAAAAAAAAAAAAAAAAAAAAAAAAAAAAAAAAAAAAAAAAAAAAAAAAAAAAAAAAAAAAAAAAAAAAAAAAAAAAAAAAAAAAAAAAAAAAAAAAAAAAAAAAAAAAAAAAAAAAAAAAAAAAAAAAAAAAAAAAAAAAAAAAAAAAAAAAAAAAAAAAAAAAAAAAAAAAAAAAAAAAAAAAAAAAAAAAAAAAAAAAAAAAAAAAAAAAAAAAAAAAAAAAAAAAAAAAAAAAAAAAAAAAAAAAAAAAAAAAAAAAAAAAAAAAAAAAAAAAAAAAAAAAAAAAAAAAAAAAAAAAAAAAAAAAAAAAAAAAAAAAAAAAAAAAAAAAAAAAAAAAAAAAAAAAAAAAAAAAAAAAAAAAAAAAAAAAAAAAAAAAAAAAAAAAAAAAAAAAAAAAAAAAAAAAAAAAAAAAAAAAAAAAAAAAAAAAAAAAAAAAAAAAAAAAAAAAAAAAAAAAAAAAAAAAAAAAAAAAAAAAAAAAAAAAAAAAAAAAAAAAAAAAAAAAAAAAAAAAAAAAAAAAAAAAAAAAAAAAAAAAAAAAAAAAAAAAAAAAAAAAAAAAAAAAAAAAAAAAAAAAAAAAAAAAAAAAAAAAAAAAAAAAAAAAAAAAAAAAAAAAAAAAAAAAAAAAAAAAAAAAAAAAAAAAAAAAAAAAAAAAAAAAAAAAAAAAAAAAAAAAAAAAAAAAAAAAAAAAAAAAAAAAAAAAAAAAAAAAAAAAAAAAAAAAAAAAAAAAAAAAAAAAAAAAAAAAAAAAAAAAAAAAAAAAAAAAAAAAAAAAAAAAAAAAAAAAAAAAAAAAAAAAAAAAAAAAAAAAAAAAAAAAAAAAAAAAAAAAAAAAAAAAAAAAAAAAAAAAAAAAAAAAAAAAAAAAAAAAAAAAAAAAAAAAAAAAAAAAAAAAAAAAAAAAAAAAAAAAAAAAAAAAAAAAAAAAAAAAAAAAAAAAAAAAAAAAAAAAAAAAAAAAAAAAAAAAAAAAAAAAAAAAAAAAAAAAAAAAAAAAAAAAAAAAAAAAAAAAAAAAAAAAAAAAAAAAAAAAAAAAAAAAAAAAAAAAAAAAAAAAAAAAAAAAAAAAAAAAAAAAAAAAAAAAAAAAAAAAAAAAAAAAAAAAAAAAAAAAAAAAAAAAAAAAAAAAAAAAAAAAAAAAAAAAAAAAAAAAAAAAAAAAAAAAAAAAAAAAAAAAAAAAAAAAAAAAAAAAAAAAAAAAAAAAAAAAAAAAAAAAAAAAAAAAAAAAAAAAAAAAAAAAAAAAAAAAAAAAAAAAAAAAAAAAAAAAAAAAAAAAAAAAAAAAAAAAAAAAAAAAAAAAAAAAAAAAAAAAAAAAAAAAAAAAAAAAAAAAAAAAAAAAAAAAAAAAAAAAAAAAAAAAAAAAAAAAAAAAAAAAAAAAAAAAAAAAAAAAAAAAAAAAAAAAAAAAAAAAAAAAAAAAAAAAAAAAAAAAAAAAAAAAAAAAAAAAAAAAAAAAAAAAAAAAAAAAAAAAAAAAAAAAAAAAAAAAAAAAAAAAAAAAAAAAAAAAAAAAAAAAAAAAAAAAAAAAAAAAAAAAAAAAAAAAAAAAAAAAAAAAAAAAAAAAAAAAAAAAAAAAAAAAAAAAAAAAAAAAAAAAAAAAAAAAAAAAAAAAAAAAAAAAAAAAAAAAAAAAAAAAAAAAAAAAAAAAAAAAAAAAAAAAAAAAAAAAAAAAAAAAAAAAAAAAAAAAAAAAAAAAAAAAAAAAAAAAAAAAAAAAAAAAAAAAAAAAAAAAAAAAAAAAAAAAAAAAAAAAAAAAAAAAAAAAAAAAAAAAAAAAAAAAAAAAAAAAAAAAAAAAAAAAAAAAAAAAAAAAAAAAAAAAAAAAAAAAAAAAAAAAAAAAAAAAAAAAAAAAAAAAAAAAAAAAAAAAAAENhbm9uAENhbm9uIEVPUyA4MEQAAAqIIgADAAAAAQABAACIJwADAAAAAQGQAACQAwACAAAAFAAAEOiQBAACAAAAFAAAEPySBwADAAAAAQAFAACSCQADAAAAAQAJAACSkQACAAAAAzk1AACSkgACAAAAAzk1AACkAwADAAAAAQAAAADqHAAHAAAIDAAACNwAAAAAHOoAAAAIAAAAAAAAAAAAAAAAAAAAAAAAAAAAAAAAAAAAAAAAAAAAAAAAAAAAAAAAAAAAAAAAAAAAAAAAAAAAAAAAAAAAAAAAAAAAAAAAAAAAAAAAAAAAAAAAAAAAAAAAAAAAAAAAAAAAAAAAAAAAAAAAAAAAAAAAAAAAAAAAAAAAAAAAAAAAAAAAAAAAAAAAAAAAAAAAAAAAAAAAAAAAAAAAAAAAAAAAAAAAAAAAAAAAAAAAAAAAAAAAAAAAAAAAAAAAAAAAAAAAAAAAAAAAAAAAAAAAAAAAAAAAAAAAAAAAAAAAAAAAAAAAAAAAAAAAAAAAAAAAAAAAAAAAAAAAAAAAAAAAAAAAAAAAAAAAAAAAAAAAAAAAAAAAAAAAAAAAAAAAAAAAAAAAAAAAAAAAAAAAAAAAAAAAAAAAAAAAAAAAAAAAAAAAAAAAAAAAAAAAAAAAAAAAAAAAAAAAAAAAAAAAAAAAAAAAAAAAAAAAAAAAAAAAAAAAAAAAAAAAAAAAAAAAAAAAAAAAAAAAAAAAAAAAAAAAAAAAAAAAAAAAAAAAAAAAAAAAAAAAAAAAAAAAAAAAAAAAAAAAAAAAAAAAAAAAAAAAAAAAAAAAAAAAAAAAAAAAAAAAAAAAAAAAAAAAAAAAAAAAAAAAAAAAAAAAAAAAAAAAAAAAAAAAAAAAAAAAAAAAAAAAAAAAAAAAAAAAAAAAAAAAAAAAAAAAAAAAAAAAAAAAAAAAAAAAAAAAAAAAAAAAAAAAAAAAAAAAAAAAAAAAAAAAAAAAAAAAAAAAAAAAAAAAAAAAAAAAAAAAAAAAAAAAAAAAAAAAAAAAAAAAAAAAAAAAAAAAAAAAAAAAAAAAAAAAAAAAAAAAAAAAAAAAAAAAAAAAAAAAAAAAAAAAAAAAAAAAAAAAAAAAAAAAAAAAAAAAAAAAAAAAAAAAAAAAAAAAAAAAAAAAAAAAAAAAAAAAAAAAAAAAAAAAAAAAAAAAAAAAAAAAAAAAAAAAAAAAAAAAAAAAAAAAAAAAAAAAAAAAAAAAAAAAAAAAAAAAAAAAAAAAAAAAAAAAAAAAAAAAAAAAAAAAAAAAAAAAAAAAAAAAAAAAAAAAAAAAAAAAAAAAAAAAAAAAAAAAAAAAAAAAAAAAAAAAAAAAAAAAAAAAAAAAAAAAAAAAAAAAAAAAAAAAAAAAAAAAAAAAAAAAAAAAAAAAAAAAAAAAAAAAAAAAAAAAAAAAAAAAAAAAAAAAAAAAAAAAAAAAAAAAAAAAAAAAAAAAAAAAAAAAAAAAAAAAAAAAAAAAAAAAAAAAAAAAAAAAAAAAAAAAAAAAAAAAAAAAAAAAAAAAAAAAAAAAAAAAAAAAAAAAAAAAAAAAAAAAAAAAAAAAAAAAAAAAAAAAAAAAAAAAAAAAAAAAAAAAAAAAAAAAAAAAAAAAAAAAAAAAAAAAAAAAAAAAAAAAAAAAAAAAAAAAAAAAAAAAAAAAAAAAAAAAAAAAAAAAAAAAAAAAAAAAAAAAAAAAAAAAAAAAAAAAAAAAAAAAAAAAAAAAAAAAAAAAAAAAAAAAAAAAAAAAAAAAAAAAAAAAAAAAAAAAAAAAAAAAAAAAAAAAAAAAAAAAAAAAAAAAAAAAAAAAAAAAAAAAAAAAAAAAAAAAAAAAAAAAAAAAAAAAAAAAAAAAAAAAAAAAAAAAAAAAAAAAAAAAAAAAAAAAAAAAAAAAAAAAAAAAAAAAAAAAAAAAAAAAAAAAAAAAAAAAAAAAAAAAAAAAAAAAAAAAAAAAAAAAAAAAAAAAAAAAAAAAAAAAAAAAAAAAAAAAAAAAAAAAAAAAAAAAAAAAAAAAAAAAAAAAAAAAAAAAAAAAAAAAAAAAAAAAAAAAAAAAAAAAAAAAAAAAAAAAAAAAAAAAAAAAAAAAAAAAAAAAAAAAAAAAAAAAAAAAAAAAAAAAAAAAAAAAAAAAAAAAAAAAAAAAAAAAAAAAAAAAAAAAAAAAAAAAAAAAAAAAAAAAAAAAAAAAAAAAAAAAAAAAAAAAAAAAAAAAAAAAAAAAAAAAAAAAAAAAAAAAAAAAAAAAAAAAAAAAAAAAAAAAAAAAAAAAAAAAAAAAAAAAAAAAAAAAAAAAAAAAAAAAAAAAAAAAAAAAAAAAAAAAAAAAAAAAAAAAAAAAAAAAAAAAAAAAAAAAAAAAAAAAAAAAAAAAAAAAAAAAAAAAAAAAAAAAAAAAAAAAAAAAAAAAAAAAAAAAAAAAAAAAAAAAAAAAAAAAAAAAAAAAAAAAAAAAAAAAAAAAAAAAAAAAAAAAAAAAAAAAAAAAAAAAAAAAAAAAAAAAAAAAAAAAAAAAAAAAAAAAAAAAAAAAAAAAAAAAAAAAAAAAAAAAAAAAAAAAAAAAAAAAAAAAAAAAAAAAAAAAAAAAAAAAAAAAAAAAAAAAAAAAAAAAAAAAAAAAAAAAAAAAAAAAAAAAAAAAAAAAAAAAAAAAAAAAAAAAAAAAAAAAAAAAAAAAAAAAAAAAAAAAAAAAAAAAAAAAAAAAAAAAAAAAAAAAAAAAAAAAAAAAAAAAAAAAAAAAAAAAAAAAAAAAAAAAAAAAAAAAAAAAAAAAAAAAAAAAAAAAAAAAAAAAAAAAAAAAAAAAAAAAAAAAAAAAAAAAAAAAAAAAAAAAAAAAAAAAAAAAAAAAAAAAAAAAAAAAAAAAAAAAAAAAAAAAAAAAAAAAAAAAAAAAAAAAAAAAAAAAAAAAAAAAAAAAAAAAAAAAAAAAAAAAAAAAAAAAAAAAAAAAAAAyMDIzOjEyOjE3IDE0OjU1OjEwADIwMjM6MTI6MTcgMTQ6NTU6MTAAAAD/4QmgaHR0cDovL25zLmFkb2JlLmNvbS94YXAvMS4wLwA8P3hwYWNrZXQgYmVnaW49J++7vycgaWQ9J1c1TTBNcENlaGlIenJlU3pOVGN6a2M5ZCc/Pg0KPHg6eG1wbWV0YSB4bWxuczp4PSJhZG9iZTpuczptZXRhLyI+PHJkZjpSREYgeG1sbnM6cmRmPSJodHRwOi8vd3d3LnczLm9yZy8xOTk5LzAyLzIyLXJkZi1zeW50YXgtbnMjIj48cmRmOkRlc2NyaXB0aW9uIHJkZjphYm91dD0idXVpZDpmYWY1YmRkNS1iYTNkLTExZGEtYWQzMS1kMzNkNzUxODJmMWIiIHhtbG5zOnhtcD0iaHR0cDovL25zLmFkb2JlLmNvbS94YXAvMS4wLyI+PHhtcDpDcmVhdGVEYXRlPjIwMjMtMTItMTdUMTQ6NTU6MTAuOTUwPC94bXA6Q3JlYXRlRGF0ZT48L3JkZjpEZXNjcmlwdGlvbj48L3JkZjpSREY+PC94OnhtcG1ldGE+DQogICAgICAgICAgICAgICAgICAgICAgICAgICAgICAgICAgICAgICAgICAgICAgICAgICAgICAgICAgICAgICAgICAgICAgICAgICAgICAgICAgICAgICAgICAgICAgICAgICAgCiAgICAgICAgICAgICAgICAgICAgICAgICAgICAgICAgICAgICAgICAgICAgICAgICAgICAgICAgICAgICAgICAgICAgICAgICAgICAgICAgICAgICAgICAgICAgICAgICAgICAKICAgICAgICAgICAgICAgICAgICAgICAgICAgICAgICAgICAgICAgICAgICAgICAgICAgICAgICAgICAgICAgICAgICAgICAgICAgICAgICAgICAgICAgICAgICAgICAgICAgIAogICAgICAgICAgICAgICAgICAgICAgICAgICAgICAgICAgICAgICAgICAgICAgICAgICAgICAgICAgICAgICAgICAgICAgICAgICAgICAgICAgICAgICAgICAgICAgICAgICAgCiAgICAgICAgICAgICAgICAgICAgICAgICAgICAgICAgICAgICAgICAgICAgICAgICAgICAgICAgICAgICAgICAgICAgICAgICAgICAgICAgICAgICAgICAgICAgICAgICAgICAKICAgICAgICAgICAgICAgICAgICAgICAgICAgICAgICAgICAgICAgICAgICAgICAgICAgICAgICAgICAgICAgICAgICAgICAgICAgICAgICAgICAgICAgICAgICAgICAgICAgIAogICAgICAgICAgICAgICAgICAgICAgICAgICAgICAgICAgICAgICAgICAgICAgICAgICAgICAgICAgICAgICAgICAgICAgICAgICAgICAgICAgICAgICAgICAgICAgICAgICAgCiAgICAgICAgICAgICAgICAgICAgICAgICAgICAgICAgICAgICAgICAgICAgICAgICAgICAgICAgICAgICAgICAgICAgICAgICAgICAgICAgICAgICAgICAgICAgICAgICAgICAKICAgICAgICAgICAgICAgICAgICAgICAgICAgICAgICAgICAgICAgICAgICAgICAgICAgICAgICAgICAgICAgICAgICAgICAgICAgICAgICAgICAgICAgICAgICAgICAgICAgIAogICAgICAgICAgICAgICAgICAgICAgICAgICAgICAgICAgICAgICAgICAgICAgICAgICAgICAgICAgICAgICAgICAgICAgICAgICAgICAgICAgICAgICAgICAgICAgICAgICAgCiAgICAgICAgICAgICAgICAgICAgICAgICAgICAgICAgICAgICAgICAgICAgICAgICAgICAgICAgICAgICAgICAgICAgICAgICAgICAgICAgICAgICAgICAgICAgICAgICAgICAKICAgICAgICAgICAgICAgICAgICAgICAgICAgICAgICAgICAgICAgICAgICAgICAgICAgICAgICAgICAgICAgICAgICAgICAgICAgICAgICAgICAgICAgICAgICAgICAgICAgIAogICAgICAgICAgICAgICAgICAgICAgICAgICAgICAgICAgICAgICAgICAgICAgICAgICAgICAgICAgICAgICAgICAgICAgICAgICAgICAgICAgICAgICAgICAgICAgICAgICAgCiAgICAgICAgICAgICAgICAgICAgICAgICAgICAgICAgICAgICAgICAgICAgICAgICAgICAgICAgICAgICAgICAgICAgICAgICAgICAgICAgICAgICAgICAgICAgICAgICAgICAKICAgICAgICAgICAgICAgICAgICAgICAgICAgICAgICAgICAgICAgICAgICAgICAgICAgICAgICAgICAgICAgICAgICAgICAgICAgICAgICAgICAgICAgICAgICAgICAgICAgIAogICAgICAgICAgICAgICAgICAgICAgICAgICAgICAgICAgICAgICAgICAgICAgICAgICAgICAgICAgICAgICAgICAgICAgICAgICAgICAgICAgICAgICAgICAgICAgICAgICAgCiAgICAgICAgICAgICAgICAgICAgICAgICAgICAgICAgICAgICAgICAgICAgICAgICAgICAgICAgICAgICAgICAgICAgICAgICAgICAgICAgICAgICAgICAgICAgICAgICAgICAKICAgICAgICAgICAgICAgICAgICAgICAgICAgICAgICAgICAgICAgICAgICAgICAgICAgICAgICAgICAgICAgICAgICAgICAgICAgICAgICAgICAgICAgICAgICAgICAgICAgIAogICAgICAgICAgICAgICAgICAgICAgICAgICAgICAgICAgICAgICAgICAgICAgICAgICAgICAgICAgICAgICAgICAgICAgICAgICAgICAgICAgICAgICAgICAgICAgICAgICAgCiAgICAgICAgICAgICAgICAgICAgICAgICAgICAgICAgICAgICAgICAgICAgICAgICAgICAgICAgICAgICAgICAgICAgICAgICAgICAgICAgICAgICAgICAgICAgICAgICAgICAKICAgICAgICAgICAgICAgICAgICAgICAgICAgIDw/eHBhY2tldCBlbmQ9J3cnPz7/2wBDAAMCAgMCAgMDAwMEAwMEBQgFBQQEBQoHBwYIDAoMDAsKCwsNDhIQDQ4RDgsLEBYQERMUFRUVDA8XGBYUGBIUFRT/2wBDAQMEBAUEBQkFBQkUDQsNFBQUFBQUFBQUFBQUFBQUFBQUFBQUFBQUFBQUFBQUFBQUFBQUFBQUFBQUFBQUFBQUFBT/wAARCAP7Aw8DASIAAhEBAxEB/8QAHwAAAQUBAQEBAQEAAAAAAAAAAAECAwQFBgcICQoL/8QAtRAAAgEDAwIEAwUFBAQAAAF9AQIDAAQRBRIhMUEGE1FhByJxFDKBkaEII0KxwRVS0fAkM2JyggkKFhcYGRolJicoKSo0NTY3ODk6Q0RFRkdISUpTVFVWV1hZWmNkZWZnaGlqc3R1dnd4eXqDhIWGh4iJipKTlJWWl5iZmqKjpKWmp6ipqrKztLW2t7i5usLDxMXGx8jJytLT1NXW19jZ2uHi4+Tl5ufo6erx8vP09fb3+Pn6/8QAHwEAAwEBAQEBAQEBAQAAAAAAAAECAwQFBgcICQoL/8QAtREAAgECBAQDBAcFBAQAAQJ3AAECAxEEBSExBhJBUQdhcRMiMoEIFEKRobHBCSMzUvAVYnLRChYkNOEl8RcYGRomJygpKjU2Nzg5OkNERUZHSElKU1RVVldYWVpjZGVmZ2hpanN0dXZ3eHl6goOEhYaHiImKkpOUlZaXmJmaoqOkpaanqKmqsrO0tba3uLm6wsPExcbHyMnK0tPU1dbX2Nna4uPk5ebn6Onq8vP09fb3+Pn6/9oADAMBAAIRAxEAPwD5B2n0pMlcYo80txSNnr3rrOIViGPPBpD9zPfvSHg5pGb5SaAHKQRSgdsZpONgNKCDjFAAvHB605uRjGBTTjj9aM/N14oEJghj2FPUc4A4NI33s9u1Irc+2KBjuI8j71AAAB6HNNXJPA60q4ydw5oAF+UnHPvSjGRntRxu4OBTMFmx2oAkXDdaNpGR0701aUfLxmgA5VSfU0oUbeabkfdzS/jxQAignPHFPH3aaMr0NHO00AG0/WlX5fb60i54p3RsHBAoEC98jNJ6kd6T7zA9F60vDN8vSgQnzetKylcc5NJkq2CM0/oRQALwpHXPSm7RuG7pRnDYFLuIPFA7CbgFIpvA5B4p+duc8DtTBliQRTuAKx6daT+HpnNP2hcccUgPUEYxQAiqMZ709exIpv3ce9OwOPpQA7ceABxSrjHvTWb5cCk256H9aQyb7y471GG6gjihcnk8dqdx3oAaThRjmk3dyOaF+9Q6kfNigAdtvSnbgyjtTNobGafuwvPQUAHzYIX8acmBj9aZztz0zQqkKc0wBm980m7kCk/iPPNG3rz0pgKxP4mnKSq4zk0wjcuM4NCr8vv0oAd5nUfxGjdkDHWk4jJyM+lKrYAxQBIDwKTnj060bicZpQGbJ6KKQg3A8gc0DHc5pGx2601w24ZPFIQ5jwPWkKhTnOaDgkYpGY7htxQIdwF96OFUjqaM9Mn8KT7vA600A5cde1IWAahvlGKHYUADAEAmnD5lGOtN44HrRzyBxSAcrNu29qDndyOKTnoBkmjJYDmqGBxxzml6DHam7lLYGSB1p5x1z+FAWEYndyeMU3Hy8DJoLe3BoVTzjpQIkXgcDBpi459fSnbT3FN2kNmgYpJ3f3R6Uc7uCM0m4ZyT1pd2MnvQIe3de2KbjaMChfmb+VLjnnn2oAXdhTnijcOMDApGY7dtNJ7D0oAkCgZpisUz2oyVWlDe3PrQAYHY0AHPXmkztajdyT1NAA2VIz+VOx70jDIHpTlADe9AB9w45o4HbFL/AA5pm7eeOnepGLkc0i5Yn0oXuxPNGccHpTuINw20ucYHekwq4AHPWjacnvTAcrFQef0o27sc5z0pV4wT+VKTzwPpQAmRg560u75Rk03kcnmlUrnGOKAFPdgc0K3IbHOKYmd5x0p24LyRxQMTnqe9KW9vxpfl4Pehl69xQIbyvNGBnk80en8qCnIOfwNA7mZ93GBmn7s0nOTgcUhUFlxxUlDmyvTkULjac/lSna3B6ikb5sdhQA0t8xHQYpw+XjFHfp+NB+Xr1oAOd2ad2GBmmMCF96cpxxnigQsjLwCcUHHGPxpPlbtzSKaBj9+3gCgtnPrSHnBzQzFW6cUAA/WnL9309ab1PC0ck5AoAUgbfSk2+hoznOetKvXpQAbRzmmt97GKcQMZFNLetADuc0bi2RSeZ07UbznjigBwXPQdKMA8Hik+7yDR95c4zQAvCsQORRkrnAzQikknoadtA5zxQIbnJ96dwwPTikOA3pTWIbHb1oAUZGMCnbvl9Ka2OnQUqr3yMUDDG5hzxTeVb1pOVpw+6DjrQAKpyTn3oUEqc9+1G7dJxS7jyaYDApY9eAOKPxqTdtIpu0Fz70ACjHQ8d6dt2njlTSKoHSpF7kikAnCg4OfajA49+1JtGDjmjAXgfeoAcu0Z65FIzbvcUjAr70uCcEelAB0bdjOBTGPf3p3zYoXKvyOlACFSck8e1KuTjtSHO7npSsfmAHSncBP4jik+ZjTl9+KMAAk0XAQfw8UmO5NL/FjvSL/d7UXANuck9KFHQDgdaN2PpTgoyTmkAjDcwINPZ9y01lK89qUYPAGKAF2556Gg4BxQ3yqefrSIvftQKwN1BzTeS3A4owOmeKcMflQKwNl8etJ06daGB25FCjrQFhd27pTpCDtI5PemHnoMUo9KoLAvzMB60MDk4NIzYxjnmhm7kUDDd2J5NPzt4AzUaksR8tPY7sEGgA25yccUcbjzg0bicjtTCwz0oGS7vl+lJ+lIuG9qRmKsQORQJku7nPB9KQjcDz1qINliaern6UEiquOuPaj19DTfvKCaUtjOOR70AKCVGQecUucAZ60zlsZOKUgYPPNAD+OuaTnd7UkXOFNBYYoAe3XI6UxickCl685oXsc0AKvzNgDPHNBBXBx1FJu79KIzz0yfWgBUPqac2c9MHtTWHel9KAAsen60qgDrxTH788U5mO3pk0mApYdMUz73JFOOW4YU1m2DGcg0gHqBtyTmnYDe1Rq3rxTmb51PSmAc7ttBU4HPNIGalOSR9KYBu+UU7j8PamBvlAxS8jsME0rASL8xOOBTGYEgHpSs7duaaoy2cfgaYD9u7leR3pMH5v0o52kA7c0Lnbw3/wBegBq8c5zTuFGfXtSAZo9zQBQXMefSjZkA5pGb5uBkU3Jx71JYpyGGO/WlPoOtKpx2z70i4/xoAOce/pSjB6/nSbtzHmg8kD8aAEXJyaQdcEU7sc8UfezQIFyvQcUBvmY0c8gClGBQMQY7inAfnSdWHFJ2znigB33Mc0v3m6cUiqW75pfuigBMbvagmkwS2etO4bnpQAmeuOlHIB9abg7s5zinljzjrQA0jA560Uox1I6UKA2SaADGOvNC8LtHFLtP1pVYA5oAQZwRmk4br1pS27kcc05vpzQAemOcUhwaFbace1GN3OaADluKXjbkCjbhs9RScnn9BQA7kdeaTpxjj3p3f0prY9aAG8Bvu4NKe+OtDZPTkUr54wcGmAIvdzz0poYK30NL1bk8UrcnkZpAJu+bOMinthsntTccZ6UIvXHNADwxHtSZ6cc05sNj1zjFCrlSc80ALId2PSkVcUg7jP4Uc7cnvQANkEHoKM8E0crgE9elDMDjJoAN3T1NJggEjrSj2oYnd60AIOBSfw7hxSFdpzTehNOwDgwIB9aa2e3FLz349KTkE+tOwhBluT+lPPvQOOf0peCSTUjHJwODgUjZyAOlJwxGDS8tjBGfrQA7YcZPSk3gKQOPalbIHBzTT2yKAGqTjpwKeuPxxSdAeaajfOCT7UAPLEAjvTVB4PelYrkZOM0u/a2M5pgI3LGkb7vAyaGPrxRG3zent60xAvrRjKnuOtLw7cCjIPTpQSCPjjFO3Dt1pjc9qOc4oAX+I88Gkb72PSl42kHgUuzrk8UFCDHb0o7nHFCt1x196RlbAGeBQSOUA5bpxS8c4OTTTndjtSxigBNpKZ70pXjOfwoXPIodgrUALxu4peWXGcGm7gFHGTT1+7k8UAJuIXGMe9DcDgUM3y4HNJu6ikwFH0oCluuBSbSWpd3YdqLgIMkj0qQY6kYNINuDnio91MCVeuBR8uTxzTQw2jtSHlvWgBzNvyMfjS5IwTUbAhsc4NOHY0ALuwxySc0ct7Chvve9GDtIBxSsAnzeZjtT2Qkjnocmmchfem9WOKYEm7nk4pe/SmP85APSnc7eeDQA4YkbA4PUUu8bfcVGrc5FCgKOvNAD++TyKc2WXimN/DzTuM/4UAKFK/WmnJ69qVm7LQ2eAeKABduQAM0vyrx1pq5U8il46etAGaMnGeKd7EdKOdwx0prbt3TH1qSxzEs3AwKR/mGBSht3HSkDH5uKAEGKXcW5zikU5X3p33VBx7UANB+bB6U5uF4oKmmgMcZ4oAcvv1p2Djk8U3bnGDzQqFeM0AL1BAOD60gwqn16Uq46dAe9Ab2xQAgzzg0rZ54+lBxknOBS78EcUAKmdtIuFJ4oVs546mhe9ACL8ucUqZ79aNu5sg8UjMYz8pzQArNuNK3ysNvPGaQNu+vrQv3jnmgBVZvTig9cHijzD36ClZWIyMUAN43eoFOb5WyaRRtYjvTmx0zk9aABtu4E0SL3XpTNxzjtUmPlHegBnXmncZ460qjcpGMGmqu1qAFbIUUm38KVh0Pam9e/NACtkNgHPFKF75zS8DA70jNwVFADd21eeaXk0HPA4p+ct1oAOOuaXcF3NnrSYLL04oA8zoMAdqAFBDHcBtNOyRGTijGDTd27jNAhRgijO5cd6RhtUc9+lH3enWgYvO0cZoZcDkc9aFYnvmgsOcnJoAZtPXtT1X5eaUH5eRmmlsse3FMBh/QdqGX5sg0vDewpGwM0wGtnpQxPIxQWPY4o3YOetAhY29Tml5B9Kavy5NLu3DJ6UrDHKM+1CgemKTdu6cU5M7TxkikA5fc018q2e3aiMfNzn3oLBQQOKABuVABpI/myDxik/hz39aXcO/FUIXb1P3hTfu4wKevI65zUauFbBHFAhfm4NOx3HFOPyjdjFM3bgcdRQIGO1iPWhW/Chl6E0mATjNK4C7e/WnYOAaRVPXOBRzu5FFwFLDr1ozu9qNuVyR+FG3d04pjsNbrgDmk54zyadt+pNJj5eeTQFiQHcBnAxTeA2elJtDKMZFLGwC4IyfegBdqnpSKvHzDPpS5G70pNx3DP5UAOXhSAaRvugg5PpTgvc9DTR8jE9qBCbeQe9DZU4PWl3eZnnAowNwz0pDHL06Uu0cAcCm5O4gChueKLANb7vHJpQRS7VXAX1pHXn0NFgHNg+xHpQDtOPWmcjOOaFY8Z9aYhwBBx1py/Nweopu/cxxTsdz1oAX2xzTW+9waNx7U1sleetAD927vSbetNU4604gsvWgBRhevU0febJ4poXFPViMg0AGArHHNI2Nu6k74zxQzHkYwO1AC7QMZ6mpFUKvvUX3RyKduPOPSgB27pRw2ajXdtxRt6ZPNAEjNn6Uw5VuDTtv6UqnqDQBQ29BmhsnjGaTk/UUqZ6Z+tSWIy9PU0uDH35o6Gmt82cjHpQAfxZBpxbd9KZt2jk/Sl3cgUAO3Ecds0hJJOOtJtIODzS4296ABWPTGKGbHY5pSecdTSc9xQAowcD06CnLhVyRim7RuQnPNHfAPHpQAbg3OOKGYqQRQuGY54FK3y470AG4fjScjrwKXOMZHNLyo564oARetG4dBTT7c1JtyBj0oARW9sUu3uBSZ+bHU0Mx4HagBRw2D0pWAHfmjaVPI96ax+YHoc0AKvWlX1zxTV65pWXseKABeh470q+poxx92k3YAFACtgkEdKduAXgA0wdqPu5HrQAoY96dnLHj5e1NUj6mjB3cccUALxyT+FCsrLjODSc8NjgU1l7gcUASNgUmfUYFLGu5cdKTHzD296BCgjqfWlJ7jrRt6ntS8dQeelAg3duaMDdilX5Vz60jMepGaA1EZcMSOlKc7hg0mBxkZFAYEcdqBhsKnINKTuOMdKEYqpzRuoGDdvU9hSdcUnUBsfQ0KAyk96AGt8uSDSr82CRkUEjIzyaamQp5/CgQvGfQUjZ+tKGJ5PSj36UAIPmBHc0uBgDPFNBH1oX73I4piuOVguBinrlfamKoPGcGnHOc9RTDUN3al25zk03AODmlXHYUBqG7cu08Cm7eOaduH40hy3JoAWNflJBpDjGCOfWjO0YA5oyWUkdO9AIEb15pdg3ZHXrSFehHQU3+Lqcmgdh/3l5NHyhcgcmg9B6ClBA6VIrDeQfSn/AMOc0xlPJ9aBlflPIoAk3HBIGKYp3E5OBQc9MUvtjigoVmAzjpQmW+lN4MnA4pc46U0A5shcYpvO4biCfSlXOTSN6nr2pgHDMcDApNwyVbrRg7QfxpdwZskHNBIoUj5ScinbhxxmmN8o9TSr8q/WgQrABvahmLKCPxpFPyk96VenIoGIFOSc8fWlXnkdRSNhu2RSqoVdueDQAq4z6UH8/SjaFHX8KOFUUFDcFsn1pVUbs9fekzgDBJFKzc4HFBNg27af/CBimbevrT2+bnpQITB6DtSDOaVscEZ5oyF70ADL1z1NIVOxeelH8OT60v8AD+NABJnIIPFOVsLjrmmMo2jmlRt3TigBrHEgA6U9WLHA5o4VSetIv3cjg0AJIQcjpRz2OaSTkYxRyq5HagB7LuwehxTefTij5mTPalBO3B6UAHCsBnmn7xznpTO3SnFg3UAe1AFBV4JJxRwvTr3pjrjHOac2WGelQWLngcZpztuUHPtTcd6Rcd6AFY9z0NLtHWnCPOT1qPbjvTAcGBOAKU/d4xmkH3uelCgbcdKADpg9fWn52/j2pFwoApTyx5xjpQANj8KOVOBTFU7Tz3zT1O4H1oAbt5JNG7nGM0u0g+1NbORigBzc8g5pdw780zovTNOGc9c0AJxu4+tKncjgelGV49TTdozxxQA8/dB9DThjbUfUY70qqV6nPNADy2PamqSz9KGw2cjpSKxYcnoOKBD+eOOKRmHUijdt2gcn3o29+ue9AC8suc4o29TTNvan8Yxn3oGHOcd6TBz6ig4GM/nSs23PpigBWVevehl7HpSB+mRxS7jk+lACcquMUgzuwTxRnd2zRxnHegAO7Jx+dOyMY/Wk42nFIucdaAJThfek4IzjvQrevNK2OmfwoADnpQyhWVSw9aRcrkYpFH8WM0AHTNKGPTbSFjnNOXhSeooEIzUh6elB5UYo3Db6mgYgBbao6LRk564oDOnH6USKcZxzQA1unJ704ADFNK7hnuKARuApAKzY+lG7b24pAfmOeRSehx8vtQA7ZuyRxxSj5fehWHNJ3x1piF6jOOaIuhwM0Z28HvTVDK3H4UDHfe6dB1o9cHbS425GcetBAxuJpgJt5znNDZI25waFyvU0hxvHrSEGd3foKXYcAjnPWk65P50u3j+tUMQgnjpTwNtN+7yRmhW6jH0pAKVOetK2A3FIV255zQcdfWmAHr7U/jjB+tRn3p3G3pyaAF4POeKYuWJ54pRlRnFHuKABdrdaXGDgHIFNVeCaXaccc0AKp+b3pflwD1pvPHrSqRnbQIGbgULk/WhvmXJ4pw+XAoJGsu4jnilzgYxk0uQeegpR1zigBoBZto+96U1WLcdKfjkEcN1pFoAauenfNPbhuDyadu2tzTTy3oKBgWDIPWm7CygdqcNvIP4UHKjAOaBgrAKqnqKezeYcYxjpTccA96VuTwaBgq9+lJ0yByacysVOCPpSfWggZySM9Kd14IxSnbxjr7UjfNk54oATBVtpp+4r36Uzrwevajb2OaAHqd+f50pj29+aRcoMDgGl45+lADefwNKDt7ZpVUgcUh+VhnvQApUswxQVGRnikX73y8UhbawyOaAHbehJ6UN2yOKRugA/OlZvk4ODQAxnZQCBxSs27nGGpP4ctScdTzQBSZuMjijsT0p7AN9KaVznuKgsRWO09hUEj7GAz16VYX5lxngiopo1Y8GgBYZCrEFsA1KzE8gYHbFV44y3Oee1T7TkUwHZLLzwfWlUccmj7yjP3qDjAoAR1/OlwM5znHWg/L9KNtACrgbj+VJkryB1pFPOD0px5bGaAF3blxnBpchjtPTFMf5TnoKMkY9KAEVSucHg9qUHGCeaFOPmpwzg0AMY8ZxQp5ODzSNTlUbgcUAOX1xTMknPanNlc4NNyVAGKADcR260oI545pRz1GDSeuKBDlj3ckYpzEGmByeKFHvzQAq8KT+WaOKc3bmm8MtAw28E5peNvNI3HTijd6+tAD+2cYpmSyn9acJCVI6U3DKmOp70ACHGQBRjapx3pEO3A9aVepDGgBUHy4NNUdfSnfxAUFfUUAPXp14xRwef1ppwPcUPMkYAcheO9AEi8ZPTNNVu/aqE3iCxj6zoCOq5qqvi7Tz8jSHrxtqeZD5WbRfDDjApMjd7mufvPGVlwsQZiP73eqb+KtrbgrZ7DtU88SlCTOsY4wQOOlQPdRwybScZrhtQ8dXduP8AV7RnsaxW8XXNycu5I9M1DqroaKi+p6tHcJcNlG3GnmTLNn0rzGx1xf8Anu0bn+IMatN4gulbYly0yerVn7VmnsV3O8a8hizvkC/Wq02rW0YZhKoYHgZ61yEd/HJIrXas4/2etXF0qzvsyWl4u/8A55twazlWZcaKNsa7GpA29TnOavx6jFcf6s8ehrjpY59PZRNAwX+92rQ0y/SaQDG0VPt5Iv2EWdWg3cjkYo5KkkECixdI1GCSD+lbdvZC7UqFDnGcA1pGunuZSw7Wxi+XuXP5UhJ2/wBavXVi8DHK4XtVWZPlHFdEZJ7HNKLiM2+pzSZzkAZokDbQehpB6AVpcgcq4O7rS8FvahCUPJzScb8jvTAZz0HA/nUnRaGbjpTeWGOlAC78Kc8+1BZhH8vC0ijjpzT1Bbr0qgI27c07IGcCl7+tL60gGdWHpS+tCtztIwadxuIxxQAm7CYxUagcjJzTxldwxxSZJPFMA28getPwcnH5UxfmYenrTuFPtQIGyHBHHFDYbHb1NJ/FyOKVuhGOKBXE3FiADkY708t688U2MAr6ZpV+9tNAXFVdw5/Cmsp65oZT2PAodsMAeuOlAhWXODnimqu3NC/L9euKd099xoAThmyaCPmOOlLIcDGevWlVQq+/rQUIfXtRk88cUFQ3Uc07GOKkkT7wyPwoHJFB+QcdaF+X5vWgBT129aUZwM+tNXKEt1GaAxduRgZ70APZgGIA/GkXp83FI33eoNKWymCM1QAfU9aTeepODQudufSlPzLnpQArAqBk9sijg9aM7tuaM7u3FABkrRu+Unqac+GxkYIFJ/D6UDuNVju96XBHA/OlGARilcgjGTmgQmMHnrSY3YGabkluRSjP4UALy3HYU1lA6Gl2gDIOKCqttPPTmgdyiDnB6UZ+XHX1o3FV+gxScMcD8akodkbenHrUDKd3TNWDgRlcdqiBwvHWgB0WFFPyBuPtxTVXufSgnOB+tADh8vOaUHuelNfnGKAx7CgBT83WlVsKe9N+9z0pOvG6gB7H5RgfWnBuTgZHrTOi470fxdMYoAcXDfWk3bge5pOPSgEKRQAqZ20jfe4FPx6c01scE8mgBPvdRTvm8v5aaecAdKOW+XNACq3y7TQ2PlFJ+HNLkKw/SmwFbnrxQecHNNC+vNLuz7UgHcKOKaq/MD/Ojkj+dKGO1sc/WgAb3GaPTilz8opp6jvQA4YGfTNJ39RSrkduPSj+GgAxtUE005XGDgGnDvk8UjNnjGaAFH3uKX73y0JjBzSFuhAFAD2XagApuc9fSlZi/cKq96ytU1620neHkVmx0BpN23Gk2XLm9js4Hklfaq815l4o8XS6ndSLDIyRZ7HrVfxL4muNXcIGKwrwAK57aC2c1zynfY6YRtuS/bGDZySfer9pfD+IZaszyqmWMqQQaxuanQW9x3IyatNN+73HFZNnKShUjn1q5cKWt+Dk1Nyijqlx5sLAcmsT5hxWptL7gRVdofmx3pXGQw+vetSzuMYqnDCd3SrLRmFgR0oGdHYyRykZOBjuKfJbrHMJE4x0IrPsZQ8YK9RWltdY9wJZe9QzVGtp/iBlUxTjzou6vyK0V0eK+Uz2DRrxkx55rmVt32+YBlfWrFhfTWtwjxNgg4K+tZuPYtHR6fdSWkpWVCR0INdNZymNfOt2yuOVzWdCttrGli6jZUuFOGUdzTbBpIJthOYz97npWRrY3/7RWdTuODjndWZNIiyMAw3e9WNQ097qJWgbZkcEd6x74SxDEy7SBjPrVxk4sylTUkPmvgzbMBjVf7Q0bZYY9qxry68uaJ03DB+atmNhcwhwMivRhPmR504cpZjmDjOfwpw4+6c1nwnaSc4APXNTfbo1CgMM/Wt7mDiXguVwetM3biPUVHHcLyQwan7lZhtOaq5NmSMcY9ab83Y0zO5sGn9s44piF+8xOcGj+IetNb2608n5RigBWcDjqcU2TkA8k0Ng8gc0FTnAORQADLcAdqQL8pOcGj7jfWhuenNAhyLheopvB6njNL1OPWnBQwxTQAfY0mfU5pMZYDoKVV29OcUyRyqe3btSd896X+E4zQrZ42kYoAOjcjg03O5ge/T8KXHryKQ5DegoAUnbn1zSRx/MT2pWYnpyKXcqgc0AIwGMChcKvPPrRuDNxmhQfwzSYxd25icfSh1PJzg5zin7cH2pucsDn8KQhrJuwQ2OKcWHlqBQB8xwc0nCt05oAc33cdeeKTad2M0Z3YxQfyqhoVV+97UEjjPApI1ZkJFJnbwfumgY9RhS2M0zHvxTwAuD19qNvzFjx7UAKFJA7UzNP3Bh1NG3GQBxQGgmT24oOQMtyKOckLSDK9KBCfebPSpODz3701l+YNnrSM3y7e5PWgAbJU54pzLtUHrSbQ3JalbOPeloIGIPFCsQ3QYpODkgZowOKYFA4wR+dIqkNu6ccUcbuDRzng5qSx24DGaTjdxxmjjnI5oU5PpQA1c/dNO4U0oyrUu4c8ZoATjcO9CqVJ569KTrJwM073xg0AIWPQdKVv3eOOtJ/EFzx3p27b784oAZJncO9PYYHvSKC/J4zTjhe3SgBn3eo4pcFsUbg3f8KTndx0oAk6DkUwMp4280nmHdSlccgfjQAEZNO2kc9aB+uKbGzcg+uKAFbvjvSNgKD1PrSn5WA6ilKg/4UAEbbs+vrQgXJyOaRcbsdaVlPODyDQAE9u1NGRnjjPSnNw2aMDaSTQArMNopFJ3ZPApNoz7U7d8w4wKADndml+7mkbLNnNKV+b1oAbuyCMECkwVwetKVUHINHP4UAKqjqR9abJIkYZmJCqKcq9Qx4xXJ+KNXaOMxq5RG4x61MnZFRjzMi8QeK2SN7a1baW6tXEX1w9xIWlcux9abc3QDEk8+tUXuNx4GfeuOUnLc64xUUK7c4xSBRk8Uoy3bNO2+lSWAUGpkx6ZqHaRUkfUCgC2uYxleK0bW486LaQAwqJVRrNe5qG1Yw3CkHCk4NSygaMecRj61JdWBEXmL2q9cRosm9RwavrB9osSyr0HIpFWOetYehK1oSafuj4ptrsExjJ2tW1BGsluRwGHWgdjnrVWs7jn7uea6SZo4tphbdG68isO5y0zIwwQatQXHllY2GF7E0ikXrK6W3uNrfNE3VaNUsmtT9qhBMDHt2NZd9IYpAyDArT0XWFZvs843RNx83Qe9KxVx+law1nOJYz8mfmWu3MiSRQ3kJ3QyjBAPT615tqcDabeK0RzETkeldN4X1INFJBuG2QfdbsaiS0Lizv7WdLeGNlOVPQmq+sIl8jRsMSkblJ6Gsex1ZVhltZAC+flbNR3GpSS4EjfNGNoPsKysWYmpILdtj8KKsQanBa6WWLHzP4RVbxJNHLZhlP73v6Vx9zeStGE3c10Rk0c843N3+2t02Q+QTyKsw3AmcHopPFctbwuzDD49q3LWKWPYMZXHatPaGfIdBbu8fJG4VoW8vzDnArJjuHh27hlcc1bjkRsMrZrSNVGMqbNVW5yKlLelRWa+cg5wOlWXtmjfaSK6IyujllGxEvLY70rD8qceOce1M56ng+9aECllzgUNnjb1pq5x2pwPzA54pgNIGQT1p2AueaViDTdx5HagBeFwR2oVjjNNO7b0zT9wYA9KeoCl+vbNIuabt3Nmn7jwoGaYg3Ek7aGJ9aRc/d6UmNp5NBI84203cW+tG0YAo2/NmgAHysdtLs3gk03ae1Owy4oAbyuBTumCKM5PrSbd3PbNAx24nHFLuDEr39aTbzgfnQuOec0AA+XjHJ70rZK9jQWGRml3A9s0AJtwwpXYADPSmsR2pGU4IPIoESbv7vemLxkN+VKuOB0pCRuBFAEgYccUH5u+AaYjE7s9aX+HryKADb+8AzSFjyM808YC8nkjmmIOaAHD+dKuN2G60xm6jpSrgYbqaAHSMS3y9KTO7k8EUK25jngUbl3c0DD0Ao9M0fxNnv0oZhnbjFSIT7rYAyKcVCtk8ntSAcZ6UnbJ60AUj1yPxpFx2603lRkd6UNxxxQWBB3deKTaSMd6fg4P0o3dOMUAN2npnmlB25HU04D160zac570ALzxnqaXac4PIpOTSfM2KAF2+hpwIwPamn5R65oGe3WkAu3r3pFyw9qcc59TS7trA96AArtxS7Qw9xSbvnI4zSBgASO9AC7QMelGc8Ypq5Zjk0c55496YDvukHPNBJLZHPrSN6Hmjn14oAOenY07bz1pF5znr2pTnHTFABtHlnilU4xxzSNnsaGBVeuTQAhGORyaXj1o2sVx19qSNRn1oAVVGQM4+tL3yelM+8c4z7U7PynigAKn60KetJGeo6UuRuOOaAA89KFAVeetJ168UyRgqk56CgCtqd4lnbs7tgY4968x17UmvLljjA6Ctjxdq3nXSxKcKp6ZrAUJu3sM1y1JX0OunCyuZ62ck3zN8q0/7OkeMc1Nd3i4Azz6Cs+S6Y96xNS2MHIpWjXbiqC3DdalW4bFAE23aenFSbDgMOlVxKW4q3Hkx4oKL1v89vtzyKZtI/A0W7bRn2pfvNntUDLyzeYqKa19FmMb7fU4x2rnmV8ApyavWc7pICR2zSZaH65Yta3SzIOCc/LW3ofl3hTccLIuNx/vVMEh1e02+YqSKOFbis2xB06YwPn1H1qObQ05Sn4m0ubTrgsc5HWoLW4jvbPaflkQ5DGul1iVdQtY0K/Oq4ya5b7C0MpwOc5wKakLlJpl8y34HzCsxXeJvTmtcIXTpg9MVG1gZGHHNVcLF9biHUNLCSD99H901S0xmtbwDnFWobNoxUsNi27cB0qLopJlm7umjnUg9DmrC3xnmWTGM9hTodJa8UDGTW1o/hVzksvCjjIrCUkbKLMO+0+W4b5ELKw61z15ppt5SG6jtXslvpSWumyny98mOCegrhNU03zJC23LetKNQJUzmbOKNSFZtr9s1s2sM0GGA8xfQdqkj05NqpNHt3cB8dK0rGxls2xnzI+7Vo5XM+WxCl1FcIFZTGwPPFQtDJZsJP8Alk/Q1tSaPFfRh4m8twO1VrVG3NaXCZbPyn1oJsT6ZI21dwJU9611/eICG+asIeZpd0scnMDdGHIFa1vcKW+9kjpXTTqcpzVKXNqOZm3YzTS25uee1SSSBmzUI6nvzXoRd1oefJcrsGCp6U7G0ZxTT97PU+lOLdulUSOVTwccUjAbuRQueRntSseRmmA1vlwCcZpd2enahcdTyaXbt5ApgN28dcH60px170m4DjFKoGSSMHtQIDhTxzxQzfLzTl+Yk5AprUEgvalkX+LOAKQnn1NKuP4u9AxVYFeTQwOMk8CmydUA4GeaXb+IoCwbhtFOZhtyOlNQHfg+lKaChc/u/loHzKDjHHNN+8MDpRuwMfzoEAzt6cU7OOg60m7AAOad6HoPWgkTZj3pxz2pq85Abijo3JoAUL83PNG3GCeKTdnPrSswPBGT60AA74IpF+97UjYzx09aXODjHFADnI4701euTyKC25fSl42jNAC/Lmhc7ScUnfAHOM80rDrigACnb65pFX7xJwaXcetC/MMmgA989KO/X86VuOCOKGVWY+tSA4n5eOTTdp645pu7JI6GlLFVA7daAKKgdTSNg5GPpR2yelKrbuOlIsTnjtSjlR0peckfhTGBBBB4pgKV705chsYzTcktkfhS7m+goAXO7tSFSq5HWkU9e9PVt2T2oACBtFBXbzjJo5596TnqCcdKQCrknNHDHB60BSCMc0hJ3YxzQA7aBxjBpDgLkcil/hoVSo2nmmA1GG05WkbLHkYpXY55pVzuPpQAiv1Pp0pc/JwOaTaM8HI7077pBHSgA2nIpT83HSkz604nABPQ0ANXDZHbvQzFSCOnpS4HGBSKw70AHLcg4pcBeQaOM8c0hBwOeaADcV9qdu+XJHem87eRzSr60AG7LZxjNL90fdxmjcOCBz2o5bPPSgBrDPJrP1i6Sxs5JWbgDIHrWgzbVYseBXA+Mda+0f6MnAzlves5y5UXCLkzmmkN9dSTyA4JzilmUKh9atxW4jslYjk81l31wVzk5rhvqehayKU3OT3qsakYtI3pVi3sHlbAU0wKiqfSp0iY9q3rHwxLMeRxW1F4Nl7pWbqRRoqcpdDlbezZm6ZrUt7EtgAZro7fwhd5/dwkitfTPCc8kiAwtyeeKzdaJqqDOK/s51zxgU+GwYyDIr1lfh+0kf8AqyT9Kt6X8OVdx+5wzc81j9YRaw8jzqz8PvKoO0/hWhB4ZbGQnJ6ZFey2Hg+K1j2mEce1Wm8ORHB8oACuSeKO+nhbrU8YbwxMBuWMjHtVW60+SUYaMhkHpX0BHoMSQkGLkdsVlah4NNxykKrn2qI4m5pLCpLQ8MNmGj2nIfHFLDpTFwuMN2OK9lh+GZuJvki3EdfpWtZfC0fah5a59A3P5mt1XOd0GjxiHwhPOquIyD2rVsvh/cSOG25BGOa+lND+GjtGA9sGxgcCuxtfhbaRqN8GD1GBUyrlRoHytH8N5SgjZCSewFXLH4XybW3rtVetfVMPgKCParQk/hVhfhukxIddqHnGK53WZr7A+Z9N+HbRjiM7R/ERWifD0NuRCrFy3UIpNfRjfDxY8qFyo7dKf/wh6JbpClrGAv8AGFAzUe1RXs7Hy9rMMNrGYER5VPB4wAfeuXm8F3t8u+zeFnzny5Gr6h1j4ZwXTOSiow6gCuRvvAA0+4LxR7RzjHFCrJB7K+x4NLoZsbci7h2y9MDoDVNYVtfmjO5D1WvWde8PsysJVzntivMtW0mTT7gtCp8ok8NXVCqpdTnlScdyi9nG3z28jAZyVoktGDbsfNjg96rtcNBISSQP7tNOsA7859AK6onNJWIZmN5byQE4l5xz+tGkzeZD5QQ+bGcE+tUNWuljuRImVVlzhutNtLoK6yq2AeCK2MjqJISFV8cNVdvlzgdKW1vxMoDHjtUsi7fmz1ruo1OjPPrU+qIQ3cU7HB/WgbfoaXcBkHpXYcQgI45pTt3d8980ZB520jMGz6HimAA7Wx260p6k560btzcjIoChcgdOtAgUY3ZGc0btxAPFPXoPX0qMA7jwKBMNoJHalK8cnNJg5/ClCmgAIC8+tHG7pSrngEZH0oP3i38NJjDAXPc0Bjg9qTO3JHWnBt/YdKQwU9c9KGznOOe1IvzLgDilyeR0p3ARfucijaGIwePejrjn8qAoOcdqLgPOMZxxSN6Ui/dwD7jNLtO7OaZI1V+b1JFCZ3DmlZgrdPxp2Bu98UCFJ2twOabtK5PWnZDAetNJLMFzQAfL64o2/MPTrSsobqOKFUbevGKABgvcZ5oXDZyKUYK46mj7jUDsIBjjrS884NNbDDJpzdsc0AK2O3Ipm4qcgU/aV6jrSKxHbigQZJ70cjp0pD94Z5Bo3BlpAO4bnGDSSfLjHIo3cgDvSHPSgCkfuZ/SkXPB9uaAvr1pWfaMZqSw255PSlH3hnpTVbselOJPGOBTATGc9sdKC27Hf1oZ8cdqGOOcUAOVhg7aQdCaExjjrRzz+tACM3HoKduVVzyaTPy+9Cr2PSgBdw4xnI5p2fmz60zzBk8fjSr83WgBG5Hy0rZwMmk2lcY6Uu07ufrQAZxx1oHrR1OKaM8jPIoAU5xg8UvJ46Cg/Mq880HOcCgBxxxjrQ33eaZt2/X1pzEstACLj6mhV+WjtjpSs3dRQAoXDYFGOvP0pB8wPajg4oAXqMUbDScnmnR5x1oAAv8AEab1yQKfzzTGz06L60gMbxJqwsLByAA2a8smu3ubiSRjksa6T4iX4e6ECHCL+tchDJxz1rkqO7Oulsbvmf6Oq5yMVk3UJaTOMirMN5xtNWba2a+lAVeM9awOnci0rR3vJVAXNeg6L4MAVWeM59xWt4L8KxrGkkoweB716Xa6ekKqNnOK86tiOV2R6lDD8y5mclpvhABUGBx2xXXaR4MjK/Ou4j2rW0uxDu3AAxxiunsbUKoAyTmvKqVpNnr06MbGZY+Cbdh80OB9K0rfwvbW+CsA+X8q6C3hIG0HI65rShsgV/pWDqSNlTXU53+yYdvESkn2py6GsDblTd2wBXXw6dHtGRk+lSpYhJN4XgelRzyK5YnLR+H/AD1PyFPWrCeG1T+7+Vddb2u6EttwGHerMVjhs7Rjp0qG2xo5ODw352GIwB29a0YPCpmYfIMfkBXTx2oO0Dg9K0Vt0jUY545qo+ZnI4xfDaK22Jfn/iwK6Hw34Njjw8uMmtazt180nbj1PrXRafCi7fSuiMjGUR2n6SlvCcICcYp72YBJUYPtV2Rh1HAHamMw45yKpu5KViutqHOSMijbyAoqVmXJUdxzU1pAD0HyVFi+giwmQZ2KccYAqT+zg0YyuDjOB2rWtbZAvp9KnaNGJx269qtQMrnKXmiidSMbT61y2reFWk3bRn14r0qSBWPPFZ1xasrcLuqJJopM8J1vwr8r7odp6c15X4z8Fstu0sUbMc84HAr631LQILyMh4/riuS1bwGApAVZI2HQ9qSbi7g7SWp8H6xalZpFAKupweK5i5kMTHca+s/iL8G/tEcs1rFufGSFGK+YPFmg3enzSxS25jdDjkYr1KFeMnZ7nn1qTitDmLu6M2FLbivTNLa3fzGI+lRfZHXl15puVjukYgj6V6aseedBpU7RzeWecniusO1oU3DHGK5CxjN0zNC2Soz15NdAt0Wt0UnDD1pxlykSXMWCu2Q49PyphP4023m8xWzxT+xHavTpy5keVUjyysIeOAcmgr680DI49KNuOhzWpmC+3Sj5jjil3AEcc0oPUk0CGksGz3o5/EmlU7hknNBz2GDQFgCsvI6Z5zTlbOe3NNbPI6ijA2jaaBbDievrSKw27XHPakOd2e9GwN160DHLjJOKQZLHAxRn5ce9NZjxxxSsMfhuR070qKWHIzTVY7c96cvQ5osAi/KxwKcG24KjNAUrz1FDMOgPPpTATaV5z+FL3prenehW4INAhzAbevNI3VaRWIb1px+bkCgkTjsMU5uxo6t6nrQ4LcdKAGgnOc0c+mc07hVC0NgHPUe1AwTtQw4wW601WLYOMU7nrQMVcfXFIrcHd1oDYbjrRz17UAKRuNHHGDUa/Kd1P75PAoEJyWHH4GlkPy8rk+1Io3E5pyqccUmIQdj3ob5hSdsdaeE+Xnj2pAZ4+Y47ihs8ZHNIrbVpWYt05NBYc9QMUrbkb1FLy2Pyo5oANuTnGTR0HJ60m4lvlpOWxkUgF6ZNLk8U0HouKGXaM96AHL+VDZXpyKRV454NG786YCg9AOvelbO35Tg00Hc2OtPY7e3NIBDkDjGaCx7DtSjBbk0jYAwDmgA9yfwoH0pOTz3HSgdcA4pgL05PFAIbPNJztAPWkZSMHGBQA4/NmlX7uaby2Ao6UL1x3oAdxuwaX6dKXjp3pMc57UALn5iKaq+1G73xSNnPHFAD9vy4pd3y46UzllxnFKuNuaQA3y4A5pWwyEtSH7uaU9B3z2pAeV+N7dk1B2bnPSuWUbe9dT44v/tOpmMcCPjiuZQbmwOtcktztp7FizhaaQACvSfCnhwxojyL71z/AIR0c3Egdl+UV6dZIsaqijGOK87EVOVWR6+FpczvI6PRrYLsU/dA/Ouot49yhicDOMGsLQY/MIDdAea6uxjQSBAPlb17V4U5Ns9+EUtC1axpCypGOOpIrdtflVfXOKyoowo4HNaen5zyMVkb7HRWcYVVbPPpWpAy8bhxWZYx7lzuBrStYw3B55rJhuaiHevT2qxDCdw5AH86jtYx5fBGau7CiqMcjndU2IFMb9+np2o+fdgZ29eKmLDaPm59KZFjnJx6U7CuWI1dlULwferEcbjhiSaIMYVj26Vciw2O9aJCbLtjbrgZHNaEJO30qvazJ1HAHFWPtCn7ozjrV2M3csq3y45pjBlyevpUkbLIq5IU0vlF2wCDtOfrV2M7jI3PORk9q17FVWMbqzVCiQegHNatuwaP5RzWkFqRJmhbsp4Ix/WrCxq3PvVQIGUfzqdWaFeORn610GQ64hCsQvI9aqtGB0H51bM3y/MvNNbDR4A561m4oakZ81vuUkgA1Xe1Vs7hWo0Z2EbefWoY0K8OA3eotYu9zCuvD8dwpJTg15Z8RvghYeILWV2iXcOflWvdVX5wD09BVa+tfNhdsYFPkUtTGUnsfnV8Qfha/huVwiAr64rym40vcW4wwzX3X8YvCyXtrLtTacZzXyR4q8NPZXL4BznnsK7aFR/CzgqwVro4PQJGtbl0bp0BrpJi21WVcn0rE+ysl0vGDniuh8zylj4ye9egchVt71jcBNuB0OKv43cDv3pLWOKaUyFcH2qZsBuOMV30ZaWOCtHW41AowOuKXA3cUMu5Tng0BcAc811nKKB2NMcheoz2pzNhfcGkP7ztmmAq4XqMinKV6gU1mwBt6dDTvvdBxQBGOuKkVdvNNKkNxzS524FAAcdexpJCN3BNLINq803rg5zQIdyvX0pq5x6Y9aUKdwJpW+8DnigAXPfihcjI7UM27FDZ2n1oAcmeR1FIq4+tN+7gnr35p6ktk4xQAm7JO786TGB1z71JkscAc01htbFAxPqacoIpG+UE9hQJMjJ4HagQq47jijdtyOxpFx64okYHoOM0CsCn5jxn60fd47UL6d6O+TQArN8wFIOW25pFJ3YpejZxz3NAhykZwfzo2+hphPzYHJoz8pOOBxQA5sBctTl+fPGFpmN604EfWgBpGGyelDEkjaafuDMM/wAqcIxu65oGiP7vGMU/cO/SnbMU3juaBmauC3TgUuRkmlBxRu64GakYBivfjrmlVi3TpTcdCRS9D1oAX7oJ6UuN3NAwwxjFBwvQe1ABt25P5UhXd2xS8tg+3FCqWI55oAaX2kUq53E5zml+WnKqjqc0gG7hxxg0vf1pGIHNEf3jQAKvfr7UcdulAB5Oee9KpHegAbDKOMGk/HkUL19qApVufrQAAnGCMmnMDt5OaUL3zxQe5OCKYDVJ57ihmGBilYkjAHBpBjpjoKADbxmhuMDpQxPAoZeRk0AHGcAZpSBu3deMU7HGM0z7p6jigBfTFKM4PGaQKWOOlGcE9uaAFXLLtK8VFdTG2t5JCcBR1PapWySMcCqOtZ/s24xzlCKl7AeOaxcG41CZuuWPNP0623SLx3qu8Z+0Nkc5rZ0WMSTLxnBrgk+p6FPdI9D8N2ht7FGCgGujtFLNkjn1rL0lfLtUBH4V0FhGOp6V4lWV2z6KjG1jpdEjO5RkDPeuqtVAVSa5fRwdwyAV7Cuvs7fcuf4fSvOkenEvQ4JC45b1rQtdv3cVlLMfMGwcY4zWhbzF8fLk46Cs3oaG9ZzDaAPu1q28wVTj8a523l24HT1Falru3bt3FQxqyN+1lzyDz3q2tw5bIOcdqzrVjEvPII7VMsnzDjn3qAsaMbtNjtUseWYjJOKgtptq8Yq9ChZhjv1oRGxLaxu3y+nrWhGzZwep6UkK7UPT3qwuCyjaOB171sjNsVQ3mAZOO9aFuCgxkNz1qKGMY+9j1qeL72MZqyXIshtuDTzIV5FOjhDY+tI0Ssx578VepkSwzblJPXsa0IbrcR/CehqhbW5PBOPSrRhC8L+Jq43JNK3uRwAc461fjn+QfMufSueWAhcqSDVlZmGAT7ZrRSIcTZiyzfPt57g03yWWRmByMVnC4dcEcn+dXYLlmU4Ip3TJsWNxwO5qPyfn6c1OrDy+fvd6Zu8pgT17U7CuMkyo/mBUcjBl5GR3qwzjaS38XNUJpCqMVGB6U1oyXseYfE61Mlu5jXdjJr5P+IEJN67FN3+6OlfWvji5Kb1PTHPNfN3juzWZp5B8vWrptc1zCorxPFm0t1nWYgEdhRJD524kY+nats4G9WX5geKy79DHhlOB3FelFnnNGdC5iYoOAOM1bwGXIqhI+JMdD1qxbyFkyea6qekjCprEmLhmI6YoGdy4pVwTwATRsJ9h7V6J5grYNLt2ng0i4VhSt3+tMBB0JbilBPHGBSbixIAyaFbd25pgL1f0BprHsOcUrA596QDjPekAvGMHn3prdgKd97NN2noKaESbccZ5pF+vQ0gX5aX7o3Dn2pgIzBvu/e7il2laFYcnb8x70ob5fmH0NAxCMc9adwfamNThnoaQA3DZBpCM5JPNJ0/OnKpwT60wGn5hjHNOGFXB5NNVqcooATy1XoOTTlA78Ui55BNL5gVeec0ALuHJHPaj/We1G0FRg/hS7eMDOaQhNo7dKcGQAhhz2pq8DB60h+bPTFMQu0Z460mODzkUqq2Tg8U1lO7jj1oEKq/KT+VLtPWkPHBojb7wHNA0PbjvimpJhT69Aaex/d4wCabw3agYq7jlf1ow23I4pPv9sU4/lQMzhzkE9KTI454p+Qq4wOaZtzgEcVIDywYY9KavOecYpeFzkU09jigB7N1INN3dgPxpTjcPzOKXbmQ9hQAbyi4xmkO0tz160hYdB1pcigBGJGOKXg8UNgjvRuCgcUADY5HWhVO7mkbvTsbsDtQA0Z5+tP3KBxyaNvHXFNBOchaAFbpnP4UqtnGRQct83Sm7vQ0AOLBsleBSou3nNH3l4pB8i4zQAZKihTu3ZpvOckU5eeq4oAXd2xk04qGA9aYrZdsDApyvuB9RQAD0FGwM2c/hTSPlwPxo5AHPNADhw+Owpemf0pCeh6Gj3xzQAOxHGOKrX2Psc2T8u05q1u/KqOssF02bOMkdaT2Bbnkl2gFzJ6bjWv4ej/fAmsi4bdMx962NEYb155rzZ7M9Sl0PStKO5Ap64rds2VWUA81z+kY8rJ+9ituxb5xnnFeHU3Z9FTlsdPpcxWRQDg9xXY2czeSm3n1rjNJ++rD72a6aG68shQ3WuSR3RNqNe/f1q7a/Lkg/MKzopfkXI5NWreU7h2NYM0RqwRhmwfTNbVp+7VQTk1j2Yfj1PHPetq1ty67ulSyjWgYcAjGB0q7FEJOcZqtp9uOB19e9btnajbxgelKxLdirb2IVjzxWlHC2Ae2O1XIbLEYBGTVqK3Coq/ePemkZuRQt1xJyTg8GtGPJXj6c0w2ext+flz0qVV+YYNXqQ2X4wV4wCKAyq+SeQeF9ahEhKjnFRFh5mMBh656UybF9Lrc5GNtTxTKzGqUMW2TnkGrsNuA2G4FUrisjTgI4z+Yqy0KsxKc1FawhlXHPbFX0t2+6FxW62MpblNMKoOM89qe0eTkdKsNbnO0rz0oWBk46/wAqBEG0YINJHIYWbgexqaSEqfQ+lR7TuwTzigCxFcMyjJ/Op45AccniqcMmCBirC/KdwPNWiWTz42luM1n3M2FIHUjrUskhYYx3qlLKq5GM0Mk8u+IkzKr9QK8E8WXwuFZNuxhwfeve/iZGvzMr4GOhr5z8WyCN2PXJp027mVTSJwFxKFvmUdTVG6UNksc9qi1CZlutxGDnn6VEZizFu3pXqx2PMluU7+1DLvUhCPaktY9kY5/OrUrJNwgJ47+tN8nbjP5130Y31OGrO2g7OKdxxjim8HGaXkLkfjXccIOMcikbO3rxT8Db6EikP3sdulACjG047UgYc4GDSAncRRwfoKoBy/N3pCMNt6Ubi39KTO760rALu+bA/GlUuT6imHIPqKfvwpwKQArbWweKRjjnFKpK8HB9KXcdu30oAZkYIByTS7t3BAxRtC85yKXO7timAbcNQWG3rk5pCxz0zTsDjjFMA3AcHmgjfwBj2puetLk4Jz16GgBNuzheeelKxLcjihVPTrSqpb6e9AhOr57UtJzuxmlUhmIPWgB65Uc8mkZvY5pjZPyj8aecL0OaAGt6k0u0cHkUnPAzkU4dMn8KCRADzzxSr90803cc9Pxp2RQA3hj6Ui/J060p5NK6nO3OaAE/1i8etO2kckUi5TpSq245oHcd1XOeaST7uPWnMeMAUfwjmlYZnL64zS/eUk8CkPbnHel52+tIYzd2H40u4MwU/LilX5fnJpWA69zQAjcdOtA7fNSMoOBml6NnHFACldy9KPQAc0u7t0FNUnNAD+jc8+tIuS2cZHpTSx4OKfnABHU0AI3K9KbnkZPNO47nk00qR1oAd/CR6U9eeAeBTN2aT7vtQA52A57UwNtGMU9fu9ODTNvocGgBdw7elLw2M9qbj2z704LySBmgBSxz0pF9TnFKQQCetH8OTQAIOf5UeueKE45pdp2460AIrLg0clhRgDqPypVADE9RQA6TGM+9AHzCm9s07nHWgA3AdKx/E0qx6VMc4KitgLjrzXPeMow1i55AxzUS2KjueZySFpOR3re0Lb5yd659l+b8a3NDYiZQOtefPY9Knuj0rTmxGu0YrUtWKt0zu71l6flbdCcEkdq0LeRvMVV4rw6m571PY67RlPBc4PtW/boiybiMdxXP6OpCLjcxJ59K6NFPTrXNJHoRehfhmPB6g9K17H5iA3A9a55ZGQkhcgdfatbSNQEiqzjavQZrLlLuddaWu5hgVuWUasMDp0xWBp9yJVwpzW5YXCKyjpT9mw5zorO2fbuICjPatKzOyTkZxWZb3isyqWwOtaEckaAuW/HNTyMjmudDbwhlXPXGTVqO1XefT1rEsdSB5EgZQe1bcN15q/Lj861UUZyYktvuXsSPSq80JUCp5ZtuOagmnUjrT5UTdkckgVRzzVVZD9o6802SYMzKvIBxUMO9HB+9zWdjRHU2saPGpLAHFX4lj3DcuTjisK2m/d4PB7VejuGRQWPatoxMpHQ2ZC47elaAkyxYmuQGtpGxXqRx1qxDr6MRubH0roSMnc6tQmc9f61EzLWLDrY2535qzHqSSA5b6UOJJcZlb3qCbG7cBxjpRDOkjYJAPvSnGTyGFZuJRGqFl3jipYVZuG4HWnsV2gDr3FOVDtz1HSpsFytcsIyAp3ntVWdx5e4nk/pT7qQxscHJx+VUmY9/ypMEeZ/FKEzWMiLwX4DDtXzX4xkOXQfd6Gvq/wAbWnn2jjHODXzD4u0/ybyZXUDc3B7U6TtIxrLQ8k1FW3gsOV4602EhlA6HHNWtbQ/aGwuVB5qo7CGPOMcV60djy5D/ALvQUme2abbxt5Il6Bz0p+3OfWvVorQ8utuJ15PHtRz24FHGOlIW2r0rpOcft4oA59qQNlAT1oL7sDtTQBuGSAfpR0GCfxpOOwHBpzfN82PwpiDj8aTjse9Awy46CkwOAaADIPB6CnKobrSBVPvRgdfyoFcGjYMPSnggjPftTeScdTTWJVlXoDQMczEAZXNLzt5GDSHDDg07cWGKBgzBjnOKaee/FKFHcUqsMZxigA4BAHSkZeQaTOcDGKcOc+ooAc3bAyaarHb9KCSw9PSkPA9ulACjDNyOfWg/MxK0dFpOmR3oAGXcBzyaG4PTPvSbdrA5pd3TuOtACL83H5U4LzRwG46UrZ25xQIRc4Y54FIvI5pV5B3DihTtAz1zQIbtG/gnHSnhQozSN82T07UmSq4IoECtjnBxTuNu4jJpM5wDxxTm7DpQAq7vTA/Whhk03sMdc8U5fmY560gKOBxmlYEt6DFRtnccDFPzjGT25pFiDHTtS7fbkUZ7dqQ5znFAAU2ilDdKQ5xjtSLknIGKAFx2PFOx8oAPPrSctSfxDFAB3I6jsaeMdKbgZ9DQo+bJ4FAB93PPNI3b0pduMknAzQy8nHSgBRjGBQzMeByKONvvRjnAPSgBOfpRwOR16U7lgfTvTMfnQArdMd6VW4pFY9Tz70K3zGgBVj6+poZex6UM21gBxS8PkGgAxwBSrkDk803J7GhSdxyO3WgByAc5OKd1BHemFe4p7NuUY4NABu+XmmBcN1OKdz/jQVz9DQAsgCqMVzXjS4EelsNvzE4BFdHg5xmuV8cN/oByMY4z61nPYuG552rbmz711Hhy3WSRc9TXLqVDiuv8JjdcdM159TSJ6VJXkju4VEK46nFWbNiZgFwCOhqlkquc80sWp29jkzSqD/dzzXjOPMz24vlR6Boqsyow4TvW5NqMduwQMrBe9eTt49lyY4NscXbnrVS68ZMI2/ekyE+tL2bube1sj10+ILZVIDZLdVqzDrUAXIZdvYV88Xniq5eTaJ2U0+PxhertUS5XFbKgjL259JweKhHtCMqqD61qWfi7c2S2w9+a+abfxZMsgkediMdM9KvS+OruONXjlyM9D6UexKVY+pbTxcXaMAEgnBIrqE15Y8R71bIzXydovxOlaFVafD9K7bSPiBJOoV5+T1pOi0aKsmfS2j6tHI+AQfaujhuuoXr0r570HxYzXSjzcL1yTgmvYfDeoGa1EhYYboc1k4F8yZ1rSHbzwajLBgSSBVVbgPx2NJMzcjqKyGiLd+846dqnXC/M3CrzVOPKtzyM/lUGoXxSP5XLD0qUgkX5tcS3+6209qiuvEkQgBBbd35rzXxB4mjs2JeZUIPC55NcBqHxM8yaaNJOFHUGuhRujJ2PaNY8a2ljHu8/EhHNc+nxW06N9rXwLE+tfOXiTxpcXjEGVhz2PWuTm14ytl5Su3oM1cYW3J57bH2Va/FizGAblfm/ut1rpdP+ItqAshk3hh/er4Nh8RSxyxss7cc53V12j/ELyRHFJctgckdcCr5V0Mue59w6X40gvJAFlGfrWlb+MIIZikg3D1Br430/4tx6ewVLnC/7QNeh+B/ifbM6zTP9pB7dqmxqrH1bpurWupFRFwx7HvWy0GxcYIr54t/iasNwrJMEhP8Ad6iu50H4oRT4DXYuATjJpcqYnc7LUlZZ+TkYqjMxyCBuAHrU7atFqVuHiKnAycVW4Kk1hOFhxZia8q3NvLkYyOK+WvidIbG/lDKQAeDjivq28I/u5HfNfNnxyjDTNJGBnPOawjpNE1fhPC7gma6Jxx61Rvom3Huta3lDlhyTVTU7V44S/Ir2Is8uxUsd0kew8BRxS8+Z0qrYyGRsCrIxux0NevR2PKrbj1XrmkbBXBHNNYnOTyvtQrFiTiuo5hdyjBOSaVexxgUnG4Yo3cjimIcoXoBkU1m2sFHNLznNAXnJ5NArgu053NtHtTSCDwce9O+XaSeaRl3c9vSgQLlevSnM2RwM0N8oXPWkwF5GBQAg4br1pWyxAOMdaAB94HBpDkY5yaAHBfvZ/CkbqAvIFGe5pT90gD5qQxwboQM00MMNxQuecgg05vlXg96QAFHQ8Gmr8uT1NBX5t3alB+QnpQMX+dJH3z1po+X15pxX05NUMVh155oXr0phDZGaf2oAa/K0q8YAHNKMB/QH1pMEZz2oEGcHnqDignacc0m3dQRjjNAXH5zzTMbmHalzik4oFcdwPlpGBbjHAo+8Tj6Uu3auTyaCgEgyB1NL9489KYyr94Dk0vXvSEPC/OABS7fm5ODUYyOQc+9PY0xGee1Lww54NJuO3PWlVjnB4FSUKcdAaM9QaaxHXrRn5fWgBd3zAfpQSV6UjdODzS9CM80AOyVGDQuc5PGaJCASOoFJ/D7UALtz9aTPSl3enQ0d8dsUAI3PFAYr1HFKMbueBQV+UUABIZcrQv3c0nFJtG31oAc3J46UDPU03g9etL/Fx0qgHbvlwBTeAwI/KnsuaaV+XIxipAXaW5zSbc59aVThetAA3D1oAVTtHHWlz1ppPpSr3z6UAISceopy9CSaavHIHFOU7mwCM0AOXHRuKbnBxnilwW/OkYdO9ACqOuetcZ4+DfZ1G7K9cV2UjYU46+lcX43X/R1kY5J7VjUehpDc4RVPXrXc+Ck8w5x2rjoY+Oe9dn4OxGuW4rzqr909WitbnRalefZbYt0OK5VY5LyRpAN7N0rd1RJbyRVTO3Nbnh3wuDGrMcMTXnqyPTWpgWfhWW42732nOdvat6z+Gsl03A69NxxXd2WhQwouTyOcVcurqOwgdnO3bS5maqC6nn918KoireYVLA4+XrWRffDuztYwTeeTnux4rd8QeOlVWS2OX6eZ1rl4tL1HxApV5JJyW4AyBW0OZmE3GLM2fw9HbyNtvElVeevWq8di0jGNXHTpmuik8C3Wmq32qZE7gO4H86jbQJLOIzYXZnG5WDCt+hjddDFGh3sUoKphfWtvTxeWrK7FlA6irlqJrRVyd6+9b9itnqXyOPLcjHtWMmaxNDQNTkme33nndjGa+gvBOoEWcab8KBnnsa+fLHTxa3EZAyqnIzXq/g7VSsKA/LntXNLVHZTep7Hp940se/P8WNv9a6S3/fxDcOR6c1wuk3ofbg8V6BosBnt1ZBkGuY3loitPbiOEsR838q5bXS6K23gEV6FPYFoWJHGK5HWNOMkcrAYVR6VLbSITPnDx2066lNtDMMcCuEbT7mYEJEQWPUV7p4i0KCW6kdxk9cVw/iTUrPQ7YlI0DsdoA6g1UZvZkuN9jzXUvCNwsIeaURK3TNc3L4btYWPmXMjN0+U5FdTfX17rU7SSt8nQIKS28LXF1C8zJsiUZMjcKB9a7I3ZzyVtzkzaaLCyJNLMyfxYrsdFj8H/AGcLuaB8YDOetZwuPDVjDJDc3qyzMf4MH8K29P8AB7axB5mnWxuwq7hEVwcVvyStojn9pGO5v2fh7Q9UC+W0dxEOeDg1t6f4JS3bzLdiI+gCniuG03SJLa68nLafcryI3yM+2O9djoutXek3QgvydrD5G7GuaS6M7IS5ldM6W20eaGParEn3OTVu1gvLdl2M6EddozWlps6zKpHzA11um6SJpFYL3HHpWHU6Nty34T8QFFCrJOWGAY2z/WvT9N1AXVvlN2Mc5rlbPS4pJE2RDzMdhzmtzTbdreZ9uVB521d9LMxlboS6gWVZGY4yOBXzj8Zf3l3LGpyASQ3rX0heRmR8PwMelfMvxaYyauU3ZAJ4HUGsEveRM/hPMNPsP9Dlkm4dTkKO9GuRLJpqSIh3YyRXQW1iJI0BbA75FN8Y6S2m6SZFBBxn6jFeijgcTzTT23oxCjrUrNlgKS3kLZwMZ5Iob7+AMEV7lH4Tw63xWHPkcdB3pi9BjpUhXccDn1prKV+Uc810HOOPXrx0phPXil9+9G35d3vTEwDfjmjIHOaGYBhjg+tNOd33s0CsKDuPI/CnM2fr6CkVcMM0MCcbTQOwoUkgUn3TQNyEZ6UrDGPWlcY1W+UgDJzk04sew4peMDH40wtx0PWi4h3GaXPIPSmqpBxxT2yPpSATcWHvRkNxjPfFHAoX7xJ/GgLCv096TPQEYpSxIPFNb7u7NMY4rt9qNzdBQDnpzQxAUY6mmAcKPel7UBtq4PXsaRWXdtPT1oEKrdieeopozuOelOHysD1pu7Lnv7UCFxtHPFI3C8dc0L780rdOlACKCy460N90D0pQCvQUBvTlqAsJGfQYp23DDv6Ui52kNzQvy4pMBwwTim43dsfWm7iM9yaU5xQMVVwuM04/dBzk0xQfu5p27C4IxQIo7uuaQZbnHFOZdoJHrRxioKEZfm4GaVkJx2pY+MnNDdCQeeopgNxz60rMeg6Ui/MvIwaFwB0pgBYNjNO3DimtjpinKoPNAAQc9etIvcfrTm+WQgAjFIpDA54FAC7Q3+NN3ckDk05cdQcCjaOtACLyPSjaeaf93jtTaAAd8DmlHy59aTscDmjJ70AL93nOc0gG760uRzjvSdeh5oATae54pV77TRu+Q55oQjrjBoAVfQnFIenXmlo6CgA2tuAz1707pmmrlselPjUySBVycnHFJtJXZUYuTsgwNvXOe9TLaSPjapxW/puhxQ4e4YIP7pNan2a0f5YXBFeTVxqi7JHtUctlUV5M4uaxuI2YOuCK4Px0rMECg7R1r29tHMhG3kVzHjXwSJrUuq8ryeKw+vKWjRrLLXDWLPDYozsHFdh4VjPlEYAzWNd2Jt2K7eOxrqfCtuVtS23HbNXOScSacWpWN2zt1kmVcdDxXaafZBY12+mTXMaTbHzsZySa7CKTy48dhxxXntnpxjYlkk8lSc1w/izVJLqXyFJ2fxHNdPeXzcqgBOK5HULXfJkdQcipT1NuW6G+FfCh1W+id1xEp/OvS/El1ZeB9Dlmit1W4x+7bGa5zwndS2NwhYZiPBrofHmn2/iLQZ44GzOFyB616EZLlPJr025XZ82eKPEV/rF2WmkkuJ5X2pGmTkk8ADuahuIdb8JalHbapa3Wm3O0SfZ7pSrFT0ODViK1vtD1e1voZfs9/ZzLNC7KDh1OQcHqK2fHnijXvix4wk1zXrk6lq8yrEPLjCKqgYAAHSu2PK0cjUk9D0nw9pqeJPDceo268pxIorPksgpBhbbIpyfWvQfhv4f/AOER8IJHeSLvmTJjHUVw/i7UoLPVQIDgE4YLXHXit0dtFvYu6XqfmKEcYYevWu18OaiJHXLdOK81gYR4mGfmrpPD98Y51zwPXtXnyPQjoz3rw7cF5Ytoz0HPSva/CsB+zpngEZrwTwNfC4aME8jmvoDwXIjBEY84zWGtzolqjpnsx5ZbAOa4rxLZ7EYDp3A6V6DJ3HQYrm9Us1uo2OOtTJHPex87+OLg6fFK/wCQ714zNp0mrXU1zOx2A9+gFe/ePPC9xq2qeRGh8lQS3HevHfGWm3TbLWxIRlkEYz/EScc1UTWNpDPCXg+LXLxFUYt15J7muZ/aK8QTaY1h4dsQLS2VPMl8vgv7GvYfD2nv4ZaK2umh84oCwjPT2rnfjl8P4fFlnDqdmFku4124Uc4A6V6VO0UmefWUnOx84+AfhXr/AI40fXfFOnXumWOm6CwknOoSEFyOcAYOfxr1H4TftJ3ja1psd1pNqsbMsHmxIBuGcV5PJ4Nm+1Sxrp18m44ljjVtr49cda9l/Z/+AupeKPE9jqN/YNp+j2L+afOXbvPbivQhVicUqUne59Q/EP4T2XjTTk1HT7eKG9MIlXC4IOMnFeA3FiVWfT9STbcQnCP7ivsP7U0MCxWSLtRNgLdMVxGpfCux1hZpLoJLPI244X+tebiuWWqOjDKUNHseFeD72S2m+zXB43fI3SvZ9DspFEeTncM8HNc5dfCSfT7pTArNCOx7V2HhXw/JY4jd3VfXrXBB9z2JWa0Ov02zWNQ/Rsde9XmhKsjEZJ4zU2nW4EKYXJ75qa6jwyjt/KrlucxjapIY42/vEcV81fEa0a68SthcJjLMO5r6d1KFWhw3p1rwzxxpqrq5bGARjIrBXU7jltY4GHS1k8tFHQ1V8eW00eisGywUYzjtXS6Np0kl4dqkgtxXp/hn4eQa24e/UPCf+WeODXVz6XOflvofEkMyQqQiyytn5gkZODUu25mBdLO5YZ/hiNfohb/Djwrp+3y9Ito3H8ewcmtWHw7ose3Fhb9P+eY/wrsjjnFWSOWWXe0d1I/NvzlVgjq8Tekilf509uCO/oa/QLxd8HPA3i+F4JorNLhh96PaHBr5M+MHwB1L4X3Ru7SRr3R3OVYZJjrrpY6Mnyy0OGtgKlNXWp5fwvbrSN9zbnFGQSO9OCjk4zXqJ9jyxCoVVI5x1oZf7tI33do4FHPFMAz/AHutCjaORgUjff8AX1p/y7uTQAxmDYBpWb5vwpu0rz1oyzY4pgP3bfpS7QfxprZ6DHrmn7vypIBm04I708ZUA9fWmsp55pdpYcHtVADNu/nRz34HrTeY8etPkwwHFADV6Y60celCfL14PpS5PJxQIUYbjpUbfe96crE9KVuQPWgVwbBABoVSOvNLs3UmPU/jQAu75eRQuOSRmkfk59O1KwC4IoAbggYHHtSnLGmj55M556U/G3kZoKBmwAM5p2Qv3eDTcAZJ60ZHULj60gBs/jQckYHQ0fw5xjmkVtzY6UgAsvGeMCjpz1FIFGWLHkdqXduyKBDu/HFDbR1OTScr7UbcjrTQyluGen4UMxY8fjTGwCOcmnrkdRipAUNhuO3egt8uaGz270dFWgBTnqF6UmepNOCsO/Pam884PNMBy525xxSbiuRjIpNxx608tuXJxnpQAzk96OWUjtRnilx+HtQAiqB/Snqx9AKaqjOBml4HWgBc9aOOmKRvmbI6URsN3TmgA28kA8Cjb8xzzSj7pJ6k4pWTcBzigCPB3UDPYU7aM8c0u4+mBQAgBPT7oo3fLkU5eevFNHXB59KBDs7hzSbt3FNkYKc446U5V+XcDnFAw52g9K2tBsRIJJn/AOWZwKxuWkGOB3rsdNtUis4T0DdfSuHFS5YHqYCnz1Lj47drjLP0A4zVZY/9J+Xgmt2ZkityFHQVkabGbi4YkcFq+dZ9cjRt55bdVLjeoPWr10w1S1KYyGHPFTSQIluQybePpWTpjsryqWyueBUtEc1zyXxtpX2O4OFwpbAq3oEDQ2oU9Dz9a6Px9p8c2xyc85x6Vn2cW2FSBxitoy92xwumua5oaYp8wdua6SJSyex9KxNPiCj3PNdFZxllA64rGTOmKuRvp4aIsPvVQfR0kkG4AH1rrrWx8xQT3qxcaLG0eF4bGanmNOWxzNrpnkSfKu70q9JY3D4CfKtWXtZrXp8w6dKBrPlPsdGIHXA4FaxkZuNzCuvCdreTb5LRXOOjDv61csfBun2JM0NsIpOzDtWjceJAyhfLOF6YWq02tSTRnarDdx06VtGo+5i6a7GTrGn3Ts3+lyBOmN3SuXfw6glZ5HL5P3mrq5PPkDFjWZdYbHzcjtTcmwUbFJ7dbe3RFX2zVy0j/cgHioobWS6kBbIUc4NXdxWRVI9sVjI0itbHqPwzl85kY5APTNfTfgdUmWNsfMvGfWvlf4f3BhZeMLnvX1L4Bx9hRicHGaUTolH3bna3ki8DGB0rPmjVo2JHbiluZlEigt9Kn8vzI8jnvUvc5XHQ4zWLARxyOBhm7gV5J4k8O6R++3LiRuWYHvXv11p5uLeTAyRXCa94Zgug3nQ8HgkVSRnH3WeJjTUM3mq5kYDALEk1rWs0kJVCmR1wRWnq3gJ4JGk0y5kibqFblc1gHT/E+myEExXKsMYqbtHVpI6i0uZVkj8iyt9h+/8Auxz7112jSXcxKt8kQxhF4X8q8407WtcsMrJpRcZ/gOTXQ6f4h1oqNmnMqserMBj8KOZoXIenWYkGAG2jvxW5aBI0B5PPWuG0m81O4UCVRCrduprqbG3ePDNIzg/3qTk2Ryo15IPtWwAK3rntSrpkeRtUZ+lSQqAo29O9XI1+UN07UE2sFrbpCcMMD6VXvFG4EDpV3zOMVWulDc076EdTGvo9y4x1ry7xjpXnXhYLj3r1i5y2eegrivF9kZbUuo+deRjisXuX0OQ8M+GZP7QWRuUxmvY9F037PCqKuBiud8K2YhtFlkX5sDGe1dTbXgbIzjFavsRaxieM9ai0S0Ltkv2QdTXiXiL4ha5fO8cUrWUXYg5avW/F1smrahCuQ23jFcP8QvAzWuktcQx7FXn3/Gs7NHZSlGNkzzKD7Q8zXMd7cCUnl95PPrXq3hPXW8ZaLdeHtXK3AaPCNJ16cV5tpdk+PmHynoK3PCZls/Ftom7jPze9Dkz0ZRjONj5t8W6L/wAI54o1TT84EUp2bvSsneV6c+1eg/H2JB8Tr4qAuUztHY5rzzZtavqcHJypK5+eYyn7Os0hzH1o25+lO3dAOtN3HkV2nEMX7pyO9SBQANx+lIMqpBBz2pOG680AO4yQP50nTpSlR9/0pv3uRxTAXHrkGgLuU+vWjcxHTNP2r5eehpAN3Fh04pVUHvxTN2FA604fdx6UwBQGPHNHVsA47UgXacCnK3Y9aYhRxnPJFNydpyc0Y+bNP4Uc0CGnhcd6FXLZbrS8bd2c0KT6cUDEUZJ9AaU80ntmjA7nFBIbRyMUvqp4PtTW4IxyKXBU4JoGG0dutKcrg9c9qFHY8Uu3ocjNADSzdQOKTzNzBcH3p3fjrSZ2tmgoXDcjpTBnqe1PckYOcij1OcHpSAYQWwTzT1wvOcUzazN6gUq9eaYDmUtg5pdwxwKRjliPSl4OKAKPoAM0hIDccmjcemKPMA7VIB827nB9KXBVs4pOeOc09lLgc9KAEVvm5JzSfxYB4zTs9j1pMbRzQAMwU0bck+lG0YyTxSiRaAEZtpoCs2OcChkLYZeKcWLYBoAT7pOD7UbSqjIoHbPODTmbLZoAbz1P0pdvHSmht3HenbjwMYoAbyMcU85pMdaXdkdOaAEK9SKCMKWzzSg96OH4NADck4wc5pVz9aXG1QtJ046c0AKTu4IwKFHJpNw57mk3BWwOtAEyrmRc8ZNdzLbtb6faleVxk1wsDEMC3SvR2tw+j2xbIUj+VeVjnZHvZYveZn3UjC3JBx7VFochRtw571Y1hlWwJXGak8O2JMSt1zXhH03Qt3U08y9zmsmOGfTZDPK2FY/xDiuxkhjs4vMdQQB0rzjxdrsupXItYMLGrZO2jVmelhniq6W4mhC8ActiqEI3KAuOKiv5nlgiJ5deGqSzU7Q2eO5FXY5jZ06POGrdsx5eOTWVpq7VFb1rD1Iw1ZSNYo3NPbdGoHBHArdt7Pdg9zxXP6f8rYKnrXV2MiOqADHY5rI6OhF/ZYXAI3fUVWbQYWyxTJHIGK6DcnmEDmpvLXghR71aZDice3huN5C7Lw3tVWbw4oYhVruHWIMUxVS8jVF3HC8fjVe0sLkucBcaOV+ULgdjWZJ4bXcXcY713NzErckZHasLUplWMKpwB1z1qfaNlKmkYE1rFbocDpWPJhpTg5weMVp6hcboyQMjpisqOH5lx1PNK7LUUd74BkZpkUjhjgV9T/D63aS3iRMn5a+WvAin7UiE7ee1fXfwpaNVi+YKuOTit4RdyqvuwNXUrFo5FBOGxTtPk5KscYq/r2yW6Zl6E8VnKm1gRnFElZnCnzIveWuTzjP61nalpkUqvxj61pKBtBB5qK4ZQhzSTsRynEXWgsrnYOO9UH0IKVLoCPTFduzxSDaeGqvcW0aqSOR2p3KOOOlwwMTs2nPBrQSxiUEbVAPOSK1JLUPliMr6UjQx+Wxxz29qnmH6lKEbWVRjGa17fczk7flAwMVQSEFw2OM8VsW8exfXihaiZehDNGvy1YQbcDHy9aitV3bc9M9KvLCGzirsQM4x6VWkXapLDNXiiR43HNULyTIJxjnqKQtzKvG2sa57U/8ASI+RkE49q1dSk27iTkn36Vz63zSXCwr1rFldCS61JdNs849s+n4VSsdZuNQmW3tWO9untWd4suDHd+ScqFXc30riPD/j+PTfFsJ3f6Hu27u2acbuRvCm2ro94s9BSFUMnzT92b+dT+KNPSTQZ0IVtyEVq6TfWerRRTIysSoI29zVTxMGjtJVI6ggV0S0VjJavU+b4bV7dni3cKxOD9ataK0dnra39y/lxQgsT7DmtvUNHEdxLtXAY1wf7Q27wT4W0+2gdhc3jDJ6YQ9qzjByaR3SqKnC54f8Q9eHibxxqepIcxu+1c98d6585ZQTSqoVcdaUqFGQeK+so0/ZwUT4CvVdao5MPryKRmHAGc96XcCM96RV3d8VuYCs24AHj0qPaO1KTzjrTlHHHFACK3PFLwenWlbnBxzim7iuaADdnoMU7byB2ApONuCOaBkgkDkUgFXAOCPmowWbjnHpTid+M9TScr059aLAJ/FnHNGCxPFHt92nDO3AOfeiwDFG08HNObDYPSkB28EZHSlbHB6UwDg/Sl4Xik8z5ulI3OSaAHyDbjjr0pDyuSBRu4AJyKazfhQIU4YD5uRSMp3c896bzz6Uq9+9AD+eO1NdgvNN53BQCfeneXluelAg3FscY96M5wP1o2/N14Bp6jg8igYi55I6ikb5mzSBtuaX+HpQAoyWKiheuMZoyVHXH4UbuckUC1GltrAdqcVwMg5pGx1wPSk5XoeKAKXPegnb2/Cgrv70Ku1c9akocCGXjihW3ZH4Um75s4wO1OGO3TvQAg6k/wA6FXGe4pduGyOlJ5g6AcjqaAD7zAEU5lC9Dmm4J560MvoM0APz/do/iBpobacY5pFxkjqaAJG+ZsdKGx0U4phyOe9Kq7iOevWgBNg6ng0rN8uaazFWx1FL6fWgAVu4p68rk9aTaQM8dKTdg4oAcpAbApGXLZAzRx2pCSPbikAoYj73SmnPUcikV9ynNMMmF96LgSK2O1BKgiofMx0OaaZSzcDAouBdEvoMiu/0O7GoaKsbffUcV5n52F4PNdV4I1Ty7rymAAbg8+vFcGLhzwPVwFVU6hs3as0axNz2NdPolube3UhAcDJ+lc/qUAgugQSckH6V0zXCwaccNhtvHpXzfU+wvdGd4l1RFh8pWzkc47VwtlalrqSUjcTWpqEzSM5PO40+1tvJt8kZcirizOUTlb5Wa4dVUkd8U/TcKpXGVz2rsrXw0jabd3EiEPjjB6GuJt91vdSRA7Qr1VzBo62xUBV45resYiyq2cHNYenONi5OTW9YvswT+BrNlRN/T1UIQfvGt+0hVVGDzisHT/mXOeetdDZAMuOpFZHQW4Y3yWH3ulXrdem44qvCMcnj61OrKy5qTQjvSmQR97HBrOuFMqZbk1cuGG3AGD2rOmkK5AOMiky1sZ99N9nifIyQOtcbqVzuZtzYzxXTapN+62E5NcZqEg3kMcVK3AzriUldpOBmo4Q3mAE8ZonkDHp931plswZ61Mzv/B6N9sj2sAwAr60+FEKXFsrh/wCH04r5V8Dwq13Em3B4zX118J7NLOxHBbaua7qWxnWl7huaiu2U81Udcr169xV3WAVbOOaorJmsp7nHHYnh+6M9Kp3UnarSyfKQeKo3TJGufvVkzRbmZPORN8p5FS+cNv3s1Qu3RSTkhj6UkbMu1Sfm9ajmNbGoGDLgLzS/Zwy9M+oqn55h4zn3q5DL8wGc+4q0TYfDaKeCOBV6O2Mf0NRxt5vbFW1jHyjfuNaIzZPaxsvQcCrSsE75FVEkMPOQfpU6FtuMVRm0Mmbc2f4etUrr5oywOBU1y7KpGdorLvroRxsN+DjpUtiSOc1y444PeovDVp9t1Df2/wDr1U1aQzPhema6fwXYi3iaViAR0zWKV2N6I4P46WTeHtLnvljJ3DYOK8T0ux+0aKZBzKvzZHqa+vvHmi2/i7wffWroJH2EjNfMmj6K+lmW0mVvkyhyKI+69Ttw8/dszs/hn41ltkhtppCNuFHPNez3xXUtFMm7cwGetfL+l5tdWbb93dgj8a+kPCcwvtDwW+Xbk+vSt+bmjYuvFK0kcS2nnUtWtbcghi3r6V4J+2FrH2zxrpemRHbHZxjI9eK+mPDy7tenlYbUhz8x7Y718XfHbxAniX4parcI+6ON2jT3I71thYuVRHm46fLRbOEZdzZHT1obG72p/AXk4pmNzZx0r6k+LEXBY+lJwvBNIzYzikC7ic8elADs/iKASVyeKNpT8aRevJyaAHL93JoADLxRng560jN2FACr96gyBfu9TRnGPWmbvM6rg1QDgSzHI6CngAN0waZ0X1FKu4gHPFAC9GznrR5m360m3qM0Adc9cUEgeo4z7U5ff/8AVTQw3Aik5796BkhUHvz2oVQVPcUdabv2LQMONp7GhR2xxR/DknJNL3zQAjH5sAU7p149abnZzjNDD+LqTzQAcjPP0pVJ5OaT7w560irlc96AFb1FKuGGOlIw+XGaRcDJJwaAHbRjPU+lAdT14FN3KzDHejb1oAkz2xTRg5ojwuN3Sl4Yk54zQA373BFOPp19qQYzjqc5zSqwbrwaQFFR8xFK2R149KFOM8ZNLuGOetIBjcqPWlwWUDPT0pGx1zgelOX5cZ60ALuIYr+dJtx06U70HU00j5uvFABzjHanD5VI6036etJgjvQAp+9k8e1OHyr9aYfm9zTuOAKAF988mj+EHvSMvQ9fak/j9qAAfK3PSl7e1H3sjH50Lw3XIoAUEBRzSSNig4XFRswXLHmkBIMc+opnmfKcH61H5hbOMComl6qOtSA9pRtwKjz5nOcU1/Q03eVyMZHagB+SM8803c3TPNNGRyKRckmgoeM5yat6XctDdI46A54qiHPTtUsMnl8ZxUyV1Y0g+WSZ6lqzC6sYJs4LYwR3FX9UkLabCVO75e1Ynh+QajoZjzvZBxk8itjScX1l9mbiRAetfKVouM2j7jDyU6aZzLPukwx6HvW1NJFHbwgruDMAccHFZeqabNp8hJGVzwaI5zcWp3ggoeDWHN0OzlTVztpIQtiORgjgV5drMP2fVpFTILc8jivQNB1A3lkYmO5lrkPG0BttQjZhtDg4+tVHVnFU0JNNl3Rpk/WujtZD8uBu9q47SZvlXjdXU2M564Ga0aM4S6HWWM2QSflwOPet7T5lGCCcHtXJaVcecc4wB1retWDMWXoDis7HSnc6VpDMqgNhaen3cZrOtbg7gGUDsTU8cxPCnJHespeRqmE8obcCenFZ11IzY5+lTz9OmDnrVGZsck1BoZOoN99ivzdq5DVJFyd3BHeuv1JgynnHFcLrXzuEz8461cTORRklEzADk9q09N0/dtLD5vSqul2oecA845xXU2NkUVX7E8CrJOs8DWojvYyVye3tX1T4AvFS1RAcbh1zXzP4R2wzI3Q/Tmvd/B98IY49rYArrpEVfhseiaqxJyB24GKyJZBFnI5rWhkF4oPfGOapajZhVJ4JonG5yRstCrBcbshqqagwVQOvFRTb4PmDY2/lUTXQuFGT+dcz2N+XqjNnkHJ74/WmxsWps0iAt9aZHKGI28k1iWW19D81WoJWXgVWVV2+/epY1O7Kn5ferRLZr29wePbjFXI5B3OPY1lQyqvfkfrV1TvweprpiYsZNbyzalFIku2Jeq+tbDSbcEE7QMYzVNNic45ptxMNgwcUyXqRXl0SxHbtXO6rdbpCGPGK0L24K545rDuJN0hyMjoaxkwKL5aZQOQTg13mm24WzQqOQOTXH2sCSXaKx+bPAFej6bbhbAk8DH4VVNXVzOTKdhcfZ95kPyYOQa8f8SafGdUvJ4uQ7EnjivUtUje4/dxcD+JhXKeINMS2tGJHJHepvqdMNzxZv+QgduFy2K9z+GrNJpErFmKKpBz3ryiw8PyXupO0aGQbvlOK9n0DTzoWhkSKUkkAIpQe56NdrkSKUki6Xout3z/L+5c/jg4r89dSupbzVLu6lOXmmdiPTk19xfG6+Oj/AAx1CTzNjSjjBxng18LZ8z5v73PNepl8W5ts+YzOf7tRF354pRxwM801RtINKud5GMc19AfMgRk470hxxzmlXByT1oOPpTAD81DDjgUhz0oA25waAE3FuDyBSqAfagnseBStkdOlADdu3Pf1oVfzp33ecZ9aOVI7VQC7eQM0v3D8zcdBTWUMOtOZeBntQAnCt0zSZ/eZHSnccFulJtAyMfSgBrLg7qXqwNO5bjHakONvNBIM/UdKZtLKQfxpx5UEcmhm4wOD3oKHHOOCMYpMllLAdKavX1qQtkYxgdaAGsxKelKvqxxSbh+FJkE8UAO+RV6YNJnccg8dKRoy3196No69DQSwYAdKcVDAUz3A4pVHyjn60APDBVIA3UoxtJA/CmY9OuO1IrMGHagYrfMc5x7U5V27cnrUSn5ietO64yOe1AxT8rdeKcoLc4puOnr3o5HfFAFLd0wMUNjhqTlshjihh8oxUgOZRxxil3etMbPG7mlj+8R2oAfu28haQKeppqsQ2D+dOk6igBB3OeaXqvNJu6UN2HagB4P40mcAnvSbdoOOhpfWgBCSxyaOAeTilbhcg9+Kax3LnoaAHOcncRSds9qOwHejcaAEZu1RMx6n8qc/sagYljwfapYCO4UgDpTNwakz1puNuO9Idh/VfSme4P0oZiO1OVsLjpxQMTdwR0pemMde9NZdxGKXdt+tIBNvNC/ewTSrnnPWk2kZxzikM67wPqX2e+ER6PxjtXWahHJZ3AmhGAT1XoK8y066NvMrg4wc8V6jp9+mpaZEM5YDn3rxMdT15kfR5dW05GJ9o/tFgH+YngijULNbC1YKMk9sVNp9o0MwduncVqvsuMiQcYrxz3uY5TwjchNUdWyIiepFR/EiLzooJU+bDYOewrckjgsw/lgbiecVz3ixZptM3kcDox61pE56mupzdjIU2qp711mnzeYwB4wK5DTdwZS2Ce9dPYsTIcYrV7GEdGdXYyBa27W4BXrXM28hAGevetW1crnnismdMWdLE4yAzYz3q5bn5vUHpWTZ4ePDHNakUmMDGBWDNht4n7sgN3zWRJMMHJzitDUrnywSeSp6etc/PdbpGY9zjFSaRuVdQn2qcfga5K8kM0zNjmuh1GbKtngD+GuVL+ZJKo4I5rSnqxz2NDSMeZk9R711+mxeY44zk5rgdLn8q4Ak6HivRNFcPs2nOa2cSEdbodv8wZeMcfWvVtBf7PaxfNk4rzHTZDEi4AxXZaXqQkCLu6dRWkCJ6npularK0gBJ2Doa3bq+VrfcRgetcBpN820g/dzxzUuq+Ilt4/KabGe2elac2hzuN3odRvS9t3VTyRxjvXO2yvFcTRvxtPAqLTfEkMeAJN3FacMYum888F+axktDaN0YurOYVJHPGaz7fVo1wpI3dzmtXxBbmTj+H+9Xn+oRSWLkrnGciuSWjNIpNHpNjcC4HHU960vLCKe4rzzRdXkj2gMwPfNdzpt613EFY9K3jZq6MZxsW44gNuOlXw4j+62ar7dvA7UvlngHr2qzBss+Y/UcmmMxbrSo2OCeaSQk/hTJM29+WTBOR1rOnIYsV5JOTxWhdBmY46YrNm/dqD0z3rB7jLOjxI115mfmXsa6mXUyqLCuQCelcvoUKRStKWznoTW8tu9wRLjIU81qr8pFtTQt763s4z5/zP0x3rmNe0u68SSCGBtkWefpXTXEdpJGGnwM/pRZXNnDkQuGbttPOaWr0OiNlr1OcttHi8LSocA7RnHrTTqF14g1AIeIM42n0rZ1Kwa8cOwOe1Z+qXlt4P0O71C4ZVMa5UnpQou9gcr6s+f/ANsDxjHb6fpegWjh5HZfNAP3QK+YI1KseeBXRePfFkvjHxZfanO5IaQrEvUBQa53dX0uDpOnC76nymNre0nZbIXlhntQQWbIOeKbuxkClUnFd55wqYI9KcV7dRTQuMc0eZu46CgBD97n6Ckz15p+4tjjimbvagAOGYY9O9Ky/KMUN6468UucKq9KAEXkDntS53dBk0iDGCefSl2nJbGKaANx/u5FI2TgckHvT93y4PSmq21SByPSmA7BPbNI33fT3psbdN3BpzofwNACbiuTk0bt2ABTu3qaQK2MigBwHSo3HbFOORSL82D0pANXHSnMu3ntQ3H19KFclDxg+lMQcNQe2BR823Pc0f3cjn2oGO3BQGzzQWzjnNNZjnGOKAvoehoENOV/OncFc9Kdy2TSdiKBWBW744FEhGckUwluMcCn8sCGoENCjqOB6VLv9smmCnNjGM7RQO4jN1GPypFbd2yacvzZP601WBbOMUDuUevAFPTpjvTWHfNOXC89akY1vfpSd1x9KMAbvQ0pXv1oANo5HWhgWbHQUbjn3NOJOaAFHGMUenem5KtS/d4oAU88/pSqvIBNIrBRyKaxG0HNACtw2DTGycdqkVvxIpDlv50AG4N2FNfG0ndz2FC/LyTTJJAvQUARNIdpHeouVanSe3NM561LKEYbuc4pCcYzSn7vBzSdVGelIA3En2pfenE8Uh+VQDQAg+XOepobhvrSbRkGnfeUZNAAckA03O0ehp5+WmfePIwaTAfGQOe+a6vwdrHkXXlyHKHoPeuRVfm64NWIpjDIGBwR3FYVYe0jY6aFX2c0z2RrhQu4dO1QteOqHkVzGgeI4po1jlJV+nzd66iGNLhQQ2V618zUozgz7ClVjUjdMqQ+ZcSqSvf9KzviFeRW9jFbow3Hn/61dBfX1tp0BfgYXPBwRXk/iDWP7VuGf7wU8VdGjKTMcRXUEWNOKsA2ea6WxkHTp71yeluMDNdFZzbpIxtzn3qprldjKEuZXOntZC0anHPSr1tcbpME8VmwSbQQBVuzfdJgrn2rmZ1ROrsF8yPINXzMsKZPI+tZdihghLZx6g1XurzexRG3YPasJHREku7zzcqBlay7hl5x270s94Yl55rNvL4+WTjAoUWzdSSK93cbdzfeFcpqTSW83mRnHqK3bqYSng49qx7qFX610wjykSnfQ5uTVrqG4D7jhT26V6r4J15Jo0LEHHYHmuDbS45kCkAZNXNLjl0WZXQMyHk89K36ENnuMOqRGPIOAegra0fWUVhtbAzivI7fXhMowefSui0a+kmkG04UH1qdCNWexTeJ4dMsTLvDtjOF5ryzUJ/E3jTUTL5xsbMNhVT7x962LFWvMo/3P5112i2CQqOMd6Fa+ptFKOpo/D/w1LZ2yvdXDSyjoX5zXodurRfxErXPaXMX427VXgYFdDDNghWGBRPyJlK5FqSiSEk9OmK4zWtO+0RuFyGI4NdnfyAxtzgdq5K9vGjcgkNn2rlkjOMjk7e4exuhG5K9ua7nw7qgIA69+a4/WbJZo/tA5cdB3FJ4ev3jmwTiojLlZpJc6PZrOQSxnPDGpJ4iqg5561kaFeCeJM+lb7IXj6dq6L3Rwy0ZTjbJHHOar3mqNHcLAse4N1cdqlX5JD2pJCu7kdqm7AgkYYLY6dapTKh+bjaBk5FXLqTcvynA74FZ1xIUT5hnjgf0qRFLUNeh8P6Ne30p/dquBn+9n9K6T4e6+NZ0mOZmDGQdq+ef2gfFEll4YWxjkb99IMhfrWh8BfiTt0qK0mfDrgV0wg5R5hxnG/K9z6au9NW6tyjc5FZ2k+HbfTZzIBkn3yan0vxJDfQrjbn61Ze+iVWJKgr696z5balu60LzJGys5OAO5r5A/as+LJvLweGtMkzGvMrKentXpfx0+PNp4J0uW0sZ1l1KddqRxnOD0ya+Lb6/uNTupLy8ffcTNvdj1ye1d2GoOpLmex5mMrqlCyepDGirweSBxTXxuyKczenWkA+Y54FfRI+ZbuJtA5oPbtmnNgYyaGwwyKoBvIOOlHHINA3ZpPX1oAXduwKGXPbFCsq8sOnFKvzc9KAE5HHakYfPSsD2GaXHU96AE2lj6CnbjnaTxnigEfnzQzHjigB20N7033HpR/CfWkGFGAeKAEVeelSY+XrzTFyze1DNiqACMHtxTlJ3c9KjxzUoYDpQAzackkZ9qf8AdGDgAdKTc2RTWy0nIpAJ95gelP2/KOxNJxu46UmSRihCFKliB2poTgY6Cl+pNPYfjmmA1VCgYPNH0NLy2aYg2se9Ax7MRwe9IpPIFH8XXmnL8vJoAYflINL8v19acVFMZj0HA60CYHknA4pwI2gHmiPbnk/WhvbigVhnG337CnKp6UmMHH40/wC7yO9AFBuwJ70cDp0pvVqRpCMjGeakok42/NzR1XApE+bqOKAdpPHFACbm6bacrbuvWjI288Ufd49KAD7p68UoJ6Y5puM98U5Uzx+tADmUYwRmo9vzY6Y6U/cApXqc00gL7UAKw2qMDGab83JzinM/bPTpTHYbRmgBJM9etQSybuKmZsrUHHp1NTcBgJPU80MRQw201uegz60hoXjnPGaQsaTbx1yKXA7UDA9OtJu3daCrN0PFC5weOKAHA+tH3R7Ubyoyep9KTPY8mgB2Btz61G3bqad7Ckz3oAVm6YHNL6Gk4bknijoD3oAnhnMfKkite18UXdrHtWQ4rAz3HWnMx25HWspU1LdG8K04fCy9f61c3y4kkJH1qhkbTxg07+HJoXDD296ShGK0QSqSk7tlnR/kV0Y9Tn3rpNLmUyBSfmFcvYELc4J9wa6CzUecGHevDxEbSZ9Dh5XgjqI5ivQZ9KvabukmwR71jwkqoIznvW3oTFrhf5da89ndE6KdxBZF85O3nNYcMhhh+blj3rb19dtjGuMbv7tUvsitACOw6+lZW1N09DLvZvl/DpWXNM0q4AxWhqIVGwDzjmqKYbnNbRQcxVjtpGkYge/NVbuzdcHGfWtmHAYYqVogz/MQfStA5jn7e3dMM3StKKEBfnbirn2ZM8Dp61YbTSuFI7Zp2C9xumw2swKovzdjXS6LapbyLjhSe9Ytrai2ZSq4rcsdzSKOxPFUaRjY7/SUjdV28+9dba2ZYqBk5Ga5vw7Yhwnz8YxtrvNNh8sg46DGDSYnKxYsbdolDDoOa1EkaSPc3PPFVoZo8/M2FFWftcattBGPpSOdyZVkvopxsbdjHPpXGa7efZ5mjQbvc13c8cDRtt+Xjqema878UTRWVy+91znpms5p2CL1IdNvFvS0TnC5wDUVnsg1OWHGFBypqDSZoppAY24z2q9qEO7XYHVRyOg9a5ZKx0J6noHhvdgH05rrxK/kttAJxXHaGfLKj8K6hWMUJOeo4rWEjlnuU/tAaU9sUssiqp7+uapySfvsLj5fSnSPuAB+tK4iORjnC/drO1CUQq+5sKBV1psMxbjbzxXPa7dLFYzyseFXPPegk+Z/jprf2zWo4VfKRHO0dzXBaNr15oc0dxbTMpHVOxq9441A3/iS6YglN55J6VgFyOg4r6fC0oqkk0fOYitL2raZ7P4e/aJvNMjCXNuzkcblI5qPxN+0zrOsWclrp8X2UY++zc/lXje45HpT2zyetbPC029hfXqtrXJr6/n1W6a7u5mmuX5Z2OfyquzbsA0nI96TrXVGKirI4ZSc3dg6k9DToz8oz1pGFN+v51RAudz/AEpVyrc8Ck+7yBTvvcE0AJuK9aVV2nI54obHTrSLgkdx6UAGVbAYZPWj73Sg/e460zp060AP3fLjvmnHkZzg1GnYmn/xY/hoENVth5H0pSxZemKVv97p2pc9SKABSOhXnHWk2jrRyMnt7UZBGR+NAxVYc9wKbwzD25pAOPrTlbC4ApoBMjcNxoPyn5eeaVlDZOOlIrfKGpgOZtuSKaDtYnOAe1LuLD0NGe3egBcDaaTpxjFHOfagtkcGgBQR6fSkHNJuYYpdxznFBIhyvGePal3lSKOOmeaTaCOefegYvHJxTmIZRTcDIxSnp60AOwN3HFCoNueppgJ57+lOX5vrQAbwcDHI70u7NNkUZGD1o3eg5oAQnb15Bpw6cnApGkHOetCqHzk1IFBe2R+NKqgk5pM+9Ko+YnNAwGVPFPO3cOvuKaemMYzQy5Oc4GKAFbDLgDOTSSKV470oYduMChSDkHP40ACqeKXzPm5HHrTCx6U7acgdfegBdvHNNbrg96duzx1ApGz1IyKADAZeetMZR3p4+bvTHUjnqKlgRM20dOKhYtUjr8p9KZxSAaecE03pyODTmHpk0p9+aBoZ0GcnFG7OMDNCqfmGaF7gHFAxegApd35U3nODyKXAyQKADhce9B9ueKF+ZetJwuCTjtQAYOSaUndjilGG59KVWDZ9KAGDJIHanFctjtRnLDjPrR1BPSgAKjpSjHahV4HPNAX5vegYbSy9fwobp7Zo5X6U4jKjnmgepCrGO4BA46V0NnNu2ljtA7Vz1xGNwOSD2rTsn3KM9a8XFxd7nuYOd42Z1tvI0illOBWv4dnMd4uOueTXPWM2I89Bj1q7p10ba+RuOTXmWueoj0PWolmsl5PBBzVFbjZCMdhV9ZBdaeucNkY61nqqlSn3SK5paM6Vscfr17JBNJIxzuOQK59/F0djKGnG1MdT0rqta09rpjuHye3WudvPD8V5C8cke49hXRBrqTYS38WW18wMEqlc/wAJrTXX42ZfmX8+tcHeeFJLWTEDGIZ7VR8nUbPLBjKq+veujli9h2Z6rb69bllO7djqK2rPVIrzLKwAz3NeNW+uSQspmtXDDrt5BrXsvEHzDZIy57d6r2fmaRSueyL5bKj9QOKt2tyiuoHBz3ryRfFkkKAG7HHXJFWYvFS3Owi9Vh6IaXKzeMT3fTPGFvpuCzgAHgA10cXxGtLhgyyAZHY1822k2pa1J5dlY3N3n7p2kA/jXdeH/hD4u1ZQX26csg+UMctiqVNyG4xW7PW5PH1pbqMyg+5NZ958atPsZGXzgWx0XkmsrSv2fmWMf23rMspYZEa9D+VdjoHwb0Wz8tILRGOeZJRkn86TpcplamcPN8bda1S4a10TRbq7kfo20hR+lYWoR+Lbi6MurwiJn+bZ3XNfTWj+GLHRLci2gVZ+PmUDOKwPEfhv7ZNJI6Au56kVz1LJCvG+iPHvDLT2syiQ4JNd9ZAXmoRDOWUZz2qhfaCbRwdvzL6CtDw4p+2DOfSuDmu7MT7noGnw+XGOf0q1eX2yLG7rUCyLDa7t23jP1rLN0ZpDmtDlerL0M37w/wB2n3E4XHHBqkswGdtQy3QOefzo6CuTXF2PLPOM9a5DxXOGsZAz4LAgVu3Vw0kZEYzngGuZvLRtQvHLkvFGrZX3x0pq1yJNnyn4iwNcvFb728k4rJb5cg8CtfxVIG8SaiAMAS4rJYDgmvr8PrTTPlK/8RinAwD3pGk6Z4HSkY/MM8jtSfexjpXUc4/+E03p9aXJX8KRstjNAC8nk8YpG+fGzj1p/wB7GeKQjAHFADPu96F+8SR2oAAPHTvStjaCOlACL8y8mlXG76UccdiKVmFAA3zdOtIq9Oeabjbkg8mn7vbmgA3AMeOnSnFt2PWo1XGTjinr0GBQADnjGKFXqKRSd2WOfSnBgpyBz70CELBlIPajP7vbnimsp3dOTzSgZ/GgQu3ofwpTxjPP0pB8p6UM2OO1Axdw5700r04xQuOTTmX16U7jEUAHJpcgL70zcc47Gn8Lg9TTAQKfXml428jilGN2QOKYy84HQ0ALuGcDmjcOhoXCn3pu05yeOaAA53AAde9Of+7nJpWPygCmbeSD+lAArdAefpTgW5FJsKuO1LkZz3oJsLnqB1pGyCcdaVVG0nODScHcRQAJnrg0pJ6DrSryvPFIc8dqAFwH+9SMvAHagZ5zSbu/SgZUbG0HH1poHOcZFDbtxAHFIGIJUDNZXKsO3Dk9aAS2eKNvYHAoVfemIPu0owGOe1G3vTDnPPQUAOZvm9qfwV4JzUe3uTxTh8uMUwFGKRWJz6UEZx35oZun1oAUbd2COaimY7eMipD83fFMbBU1IEB+UEetQ7vTkd6ezZwMVGe+PyoAcG4xTTxxnpRkYo27hQA0bvrTuAvoTSfNxikOQxJ6UFD1Pr3oY4U5oI+UYHNIfpQAitwMcUL8zc0YpdpwSaADB5GOKP8Ax2lOMYBzTec9KAHJkc0f1o/Wgn0oAXHtS8BuaQ5Cnnmj73FAw68Z4p23Az0JpOmCKULuOaB3I5fnHHUetS2UjPgNwabtzkZzTEHlTZBxXFiIuUbnbhpqMjobS4C4XNaDudwlTqOlYK5jXOfmIq/bXO5QPzrxLanvxldHo/h3VDcWqKT93k4q5MFBJHc5riPD+pfZLjYOMnPNdaHMiElu2TiuaotTphsQyMkiuGH51nyRqGLCpLglm696gZt2APxqUbJER08XXLrgNWdeeGyu5lGRiugh+ZeT92tFZEWPa34VqmF7HAWmkqGUSRd8cCugsfB9helQ0KOeoDVtS6XFMpKBVOM023t3t5AE6+ua2jJ9TWNpG5p/wt8M3UCNeWO5+m5DgitPSPhzoGnzHybOParcF1FY8OszQhUJyBWna+IGk43cZrfmW5qqfmei2Nva6Zbq0EaQ4GNqrWpZ3E8jDDHbjjnmuS0nUhOqjcfQg122kqFUE9+lHtewnGMTb0zTnlYNIe/G410MSJb4Re3WsK1ulOI9xAHORWpDceceWyuO9Yzm2cz1ZqoeAw61SvITId7dF7VPHcA4QHgUSbeR1471ySZJxuoRCSVgB7Vn6TZtDMzBMfN1rprq2RssCCfSoo7UKoYiuNr3h82hBql/5aCMcFgDj0qgs3p1zTdQQtIWPA/lVBrryQRmtLmRpG5G7aGx71HyZHG/IA6VmwqbiYHftX0qaaQWokKyZ9zVEhq97JDGnkcnptFadvo5sdFmlbcs8i7j3zVHwlY/2/rD5Vmih+Yt2JruNbjWOxlO3G1MD24q9ErmcvI+BvGWT4t1QdB5xx71kZDZA7DvWz4wjA8Xaup+YpOyg1i42givrMI70os+WxKtVYfrQpBXgYpVX5eeDR/DXYco3cckY4oZjyKMjvSqCTyM0AGflweMUFizDsMU05356igD0oAdtH3lOfancYIPSmjcDxSA+3OaAHFenpijA60rEcY6imjO3HSgB23gNSd/ak2//Wpc54HFAAcHjtSiP/vmjaCx2nFCt1BNABtHY8U3krx2NL93leBQfagAy27PXtihjt2gYpWzjLcU3aPXPvQIRieo6U7I70nAHHP1oVWb6UEiqRtOfWkZ/bkUuAtDc8CgYbflzSMpbjpzS9Rg9OtDZxu79qCh3HrSbtyjI4o25xxk0bSoFAC8Bh3ppfIIHWjd2/WgDBzjimgHFCoFJ07cUbtwx1FN2nkCmA5jt5HQ0H5sYpG5XHWl3cHjmgVwXpzSowyP5UAYY844yKac5JoJHkA8/lSMxxyKRflyf0oLfLz1oGNzzxmnFdq7icUi8AZ69adId+M9KAHtGp6cNVdrf5sr6VhW+uBpFDtgkcnNasmoQSqojlBI6+lcSkb2HbG6kcCmsm5QRwajOqKpA3KcU9biObGWAq1Imw0tt60u3Kj5qkaHdyCMD1piKQw45q7isHNKq7sZ5FDL3zTlbaDxVCsH8RwMU1ss3tTlY49qRgeBnigQg559KZIDuI6U/iM+1Nkz17UAVmHrz71G3bnFSk9ulQs3zHNBQo9M0nIPtS9ge9K21s0ANzkjH405vmxngUz37UvJXIGKAFb8hSdcYoz7UoYc0AIvGaXd8tIuD9aUt/e6dqAGetLyVobleKcDnAoARWHfinY+bg8UzGcZ4FKrYyKAH5AyDTlqPhucc04D5Qc5NACtleo601X4p69/Q01l2t6mgBFzzimTfMuKlbPFNb5uRxUtXKTs7ktrMGAVjyK0YGC8jrXPyboJd3Y1o2V4zrk14tek4O59Bh6ynGxsQsVuEk345yRXa6TfLcRhT90fxVwccwZc963NBuzJ3wO9cElod8XqdTIqr3zVV48HjpnmmszrIB1A79qnVTMCQOfSua52oI3AwAKugbl/2u1Vo4xGoDcP3FWVXbyevpVIA3Mu0dqke7DADbmk35fBx04qJlCtnp71pcEPWVWPpirNvKE5HA61QZlq1bbZVAz0quYrU6rQ9SCbQvJHUGu2tddMzIiybT35rzfTmWFtwHJ611GnbX+cHD9qfMNRPS9LuCynD7gT+dbVrcN6dK4vR5nby8HAA5rrrON2+YHB6VjKQpaGrBNu2npUs1wd4UZJFQ28TDbzx3qxHGu4nqK5ncy0IZUEZVifcio5GMi4HSp3jaT5eo67qrXObePbuAXPbrSsZtmFqUghyH61izw7UDDJdvXpW3eKJZCzYPGaoGZJG+6Mrz7UCbKULNGw3cAdaqXEc+pXC29uM7m5qDXdQ8tgsb8k9B3rtPAuhSRxx3VzH+8blR6CtIxuJs63wro8Wh6akUajeRkmna0iyQyDGQQePfHFaCyeXHtAz6Vn6pKYbSZuh2HmnO1rGdj4A8dN5fjbV8dPONYhG5h3zWz43b/is9WH8IlPPqaxu4J7dq+swf8ABifL4r+KwbGeuaD14GBTdu4k9AaXb2zk12nIGPxGaf8Ad75FMUnoRSjuQc80ALyxHFIyjdjFLz17+1C7utAAQRxnNG04zxn0pW+9TXO4ggc0AL932o5HOM0FgvvQHHAoAUN+HFIpDUnXvihcjmgA9ulIMHPFO53c9aQdT60AKD144FA9TSr90/Sk3bsgjg0ALnb7iiRl44x3xQqhVIpg5+hoAU8nPSncnAGQBTR97pmnFicj1oAa2Tx3pd20kCk6fQUoCt160CFx8o7mk8w8DGe9GT0zSNzigY4NweKFbcR+tHTAoDckdKAEwPMzinM2F6Uz3yaccyLjvTAarEfWkEm7PHNLgq2Op9qXPzD9aYhUYckjntSJ8zcnB607H92mj73HWgQEYY98UZPPNBY7uOKOU570CHFeMd6a3oKUknOeTR/tfpQAfd568c0q/MDkYpOdvtTvQZ6dKCjygXDZ681LHfSLj5iKpeZTHkORXmnYan9puv8AFzU8OsSA/eJxWEzlu9SQybevNAjr4PFB2hCpOOK27TVIrlRhgD9a878wDBFTW940ZBDYI96pSaFynqK2i3AAWRfY1G1q6nBGfpXF6f4juIJBlsqPet618XI0pLtjvWikZ8pp+U68BetM27eG4NTw6xBcx8sABzUpkhkbgq3fINVzCsynIm4e2KjZiFwOmauSW+SAp5qpMrRkoVxVcwis2O9RnHGacc/4Uwn2p3EAb5jj0pT16Um7A6Y7UnJ4qgDPPPFAJZuOB9aU9AB1pCp4PSgBzDvRgY5pMnv160fWgBu3HIp+3K9KF5yO1M5z04oAdnP0pvG3K9aXnjtSBccCgBNx6Hind/XNI2GwelPXAxzkUAJyeKVRg4xmndiKbwuCT0oAdu9PyoEh5B/Ol4PNJzz2oAU4PfAprYz7UbS3fmgdTnigBNokXHp61WWf7PdKp5RvSrPA5qtNDvkBxmuXEL3Drw7tM1be5DgADj1rRsJ1hlAzgMa5qOZreTH8NaK3CtFG4GGU814bR9AmemWdxFdRxoeuKtwx7dxzx2rlfDuo+cqoTjB9K66KRFwo+Ynqa45RsztjLQnS1ErAntzU7WJGfX0qSzUFhzkZroIbNJsZUE+tQbROXksXYccN2NV3sZmXgk+gruodJRvvcDr05qza6FHJLkgL6UzZWPOotLuZBgKStamneGrp5Au4jvjFepaf4Wg4LDg+1ay6DaqpIGPT1NabDbWxwuneFZGwp9OeK6Oy8PiHAbgj0rpINP6ccdqvxWCNjA+tBJU0fTDGRgcHrXXW9l5gUKNvHFVdMsh1XnFb9uoUDaPmqLXMZsiS18pcNyac0CtwABVqSTbJjALUTeWqhgeanlMLlC8228aoqj3rnrqQyl1646e1bGs3yJCcHB6A1zVxc/ZoWkY4J71HWwivJOW3Ih5xXOaxqSWeUQZlzgkGqOua+LdCQ2GY4FZ/hfQ7jXLjz5WbZu4HrQlrYd+p0ngzwyupXC6hdqWJbKI3avXbCMRquT0GAPSsbQdPjsrNI8D06c1vwxpt9DWnLy6Iz3dx7tzWdqBEisCAyYwQf51cZGXJrP1FWkhaNGxvGKzkM+DviMnlePtYjzx5m4Aenaue6ciut+LVv9m+ImpqR8xIB/CuSZstwK+twbvRifLYpWqsGOVB7ilC0gxyOtO6tn0ruOMTccHH40cBcd6McHtSJ6nmgAx83SlOVXrzSq3y56jNNHfHWgAByxz1pW+bGBQuWyOlIGKnkUAO29eaaF/CnZG3A603B2/eoAcQc8jFL1brxSBvlHFIzHrQA5lx7CkGRnFIQWYe1ODfKePrQAz7pxmj7zcHmlNApoB+7bRENxx0FLtDR8mmc7famIRuGOOtKpHHNHGAPwpMeooAVu57UL97pikx83rTmIxnNIYnO7OOaOW6jFC5bk/hS8txnpSAULlueabtwx705c7gaa0m5sY4zQAq/epWyuSBxTShU5zxQPnBweKAF5bJxTdoz6U7k8A0qjazZ6imA1f9YSOlK3zElfxFDEgjHGad3PemIaBtxj8qGpxI2+me9NbPJ6YoGKG6+pprLu74oZS2KXadoNAhR068Um3dTiRtHHFN3Uhnj6daRsFqjVvXrRv796847B7Yx6U1flprPmmq2480CLHYYNJu2t1qPdSHqTQItrIexzQXLHriqyvinbj2oA0IbyWHBDkj0zV6DXJUbOc9qxFkPIoVjQB19r4kOQGOBityPUkulHIOa84WQr0q9aapJb4wapSsJpHbyxnr27VFjOO1Zdjqvnsu58+orbHlvFv3c9K1TM2iuw7ZpgNLJ94gGkXG73q7kjvr1o3bsikbbilXFMQpwQAPzpCvQZ47U4YB6c+lIc5Bx0qgDdjpTSx9PelJ+bOKQfNxQAm33x6UpXa2e9Kp/Shju5FADGyeQKfHTV+97U9fvAdKAHHDdOxoQj+KgZ55OOtCjdgk4oAdu4x0FIBkdeaQE7ufu0KOvpQAYPeg8DBo+9gnrSjHUnNAC7R0pmz51z0qX5evWmsdrA4rCr8LN6L99DL21K8rytVobhoiVPPpXQxxrJEp4bI5rH1GzMLMQvGe1eDc+jWxq6HdeUwXfzXcabcFlUls15XY3RjmQNxg967bTtSK4xytYzRtF9DurS5EODnOa6DT775lbqPTNcRazb1V8528fSti1u5No2t8lczVjqjM9Esb8SEKuAO9bdqybx044rzvT9Tkg4kIAH3e+a6Cx1kIoLHPtSsbqS6Ho1rIPJz6inwyxyZXknvmuRtPEy5WPP8A9atP+3Y22gAL2znrVWYrna2cayW4G7G2jaVYBDxnmucg1YxxkB9ykfpUlt4gQqVJ29gaZOp1drK0eMNt/GtOO/Xafm+bNcnaaknBZ/lq+ur2+5c8jrzQZyOgh1ANJ8w2Y/ibiori8hVm3yMyn3rEvNZS6YsCB6c4rHutWR24IDjjrUtmVjV1Kb7RhuFRe1cJ438WJYwx20cgLsDlfX2qLxR4wbT7EhTumbhQpriLWyn1W4+13KkuTjk5xWT3KUepq6HDJr1x86kAHoRXqXh3SPsuxUyi4z7cVj+F9Bit1jfq3TPau/srQLGOy9q3jYmUi9ZgKigDcx6mr8akEHt9apQskLgZwe1Wlb0GeKTIRK7bR0zVO+TZGDxubkLV2GPblm79aqXoLBufaolsM+I/jpatH8SLtyNpkXca4Js4yO/FeuftMWotfG1rLtwZIjk/0ryLcWOBxzX0uAd6KPmsav3ojHtjvnNCj8qcM59RSHHc16Z54fwnPSmrxgU7zPm68U3GG+amA5eDgj8Kbu+c7Rg0u75vSne/c0AIT0o3DbjHNIzfN05pN3HtQA5T8vvQ3I9OKTcduB0pR83BHNAAvKZxSsPlHrSKSysMYPSgSYQDPNACp0OetC557Cl4bOTS/wDLPAPHegBrY9eaBjaOKVtpYAnmmk8YxVAOVvlIHSkfO0EUmdqjHHNP3Y5J4oAiwRg96e5xjuKO/FODBhjjNADSQ3A4pVQDPNDAj3oX5RjpSAQ5B460rE7iTxSKN3foaQ5HU5+tACjpnNC45z+VGDgAjA60m4A5FMBW+bpwKMbeaVc5oKnPXg0ANT5smnc0bQM9hQzZUYPNACld2fWk3evApV7Y60hBLDPSgAbDKPSkC9eeKRuOOlHfr0oAev3eaN2Pekz8ueM9qQZzlhQIUMMntSDuc0u0bR39aQdz/DQB4vv/AAoJH41HyGpR715p2XDd17Uitz7UknQUzdQBPupGY/Sm9sdKTigCTd3FP3HNRKc+1PV6AJlyD7U9ahRuvcVIr+1Ahx+tSRsQOlRZ+X1p6ybcelAFy1kMbblODW5b6uBFz1zjArAt/mzVhMetNOwrHSfaAqhgc5/SpoZ1kzyN1cw1w3llQ3SltdQdGBxz2q+Yix1P1p3TIHSsVNWIb5j8vatCC8juAMNg/WtFJMlotZ+XPNKvNJ8wAHWjvVkilevrQPXGKX2pD8hJNUAg5zxS/oaXO3GBSNycnrQAAhuvQUu7jFIo5OfwpyrubA4oAFYjinK3T1pn3etOXCnNAAF9elKv3iO3al+7yeRTf4j2HtQA5vvcfnTcZbGaGBzx0peByBQArfKabIQcU/7w+bimbeTzyOlZzXus0p/EjVs23beo7Zq/PaLNHtb86ztN+YAA1sHDR9ea+cloz6mGsTi9Vs/sVxkH7pzWrompCQqxwNvY1Z1yFLi3Ylfmx96uVtd8LFV4GeKpaol6HpdneCSPBYgZzW7Z3SsoGdo7mvNbfVJIYwN2a2LXWmBViTu9M8VlKOpcZHoP20RKSrkntV3T9XDRiNm56Z71xMOoedGfmwfrU9vNsJO85bkc1HKacx6Ct9NFyBg+vtVn+2PKtQrEsy9Aa4iPVmjYKZCRilk1XAyW+lHKh+0Z6RbeJAsY/eYbpSR+IiJCB8y5zXmf/CROqFQQKt2urFlyHANJopVD1WPxUHXcxIK/wrzWtaa5HdQ5ZgrAZGa8at9eWPIMoC9eakh8XGNto3k9sA4qbIrmZ6pfeJGX5FOMVi3/AIqEfmJbkyz4wTnOK5K3vr7V87f3aN0JHWtrTtFWFckZdhljjrWUvIObuGnWtxeSGa7lL5Odo7V2ugaebhVKoTGvrUGj6SkezzUJHQKO9dxpdmkMKAJtBHShImTNDTbMJtUDgjOBW/aSsuQybQOOay7U+X82NorQt5jJ0XCn+KrM3qXEPnPyuR/erTh+UHeKrWzQo3ynccdcVK0y7sDk0PQCbzN2Aee1Vr8mO3dgR8vOKsLhOWqO4XdGQwyD6Vg22WfE37VGoX2n/ZL2ddu6faAf7vtXiVj4vjlIEhwG719PftsaKLz4exzxD5raXezdx7V8PRySIAe1e/llS9No8TMILnTPYba9juOY23L61Njp+dea6LrTwTKd3H1r0bTbgXkKv09K91Wex4rViUYPOaU/XNLwrc01mBUjvTsIQZ6kUrHrxj0pB2705l4wTwaQDR0560mTyMdKeAOAOKSQbTxzQApxtBFJluKRSWjB70i5ySeaAJNp44pGXrxTlHAJzmmtkL6nNAAynbupxx+fWmbvmApWxzigA2jGfenN93ikA+X3oX7xPQ1QDWyuBmnKvzdetDLu6dKT1IoAPuuUxzSsQc/3qF/iJOTSHuTxmgB+7pSFQfamsvQck+tKHFIBN3PPWn7RIvJqPhqlLbVCjpQA1fk460YyOBzQepzQueRTAXtzSDB5JwabypweRmnNlRnHWgAYN9RSccHPNKXO3pik5IFAC/7QFBJ2jFEbc46D0ob0oAapO3mlXjjvSrg55pNu7mgBWClfU+lH3SP1o2jPAxigru780CFY9dpyKTPSgqOefpSZ6Z6UAeJLRRuoPNeadYjNTF70rdMU0ZoAf70HpS0h9qBhkdKcvtUYNO3UCJlbA96erccmq4PAxTlagCdWP4U/2zUA4NTKwbFAFyOQquM0/wAzvVZeeKk3bVoAQ3HlyZzxVhZNyjFZ8mGORVmzb5sGgC3uHQ09Lgr0NMbDVE2dvWgDZs9VfAV+R61swzLJghgfpXIRyFT7VrabeeWwBPFaRl0ZDibo70N83J5qOOXfyOc1IoIrYzHDJwcU7bu6U3aMYo3djxVCFH3gO1KuN3FJwRRu+X6UwFb680LyBTfvcdKft2twaAFwBwTSYwaNgwc0jdQc5oAX0zRngnPSg8DsaMhce9ACKxbJFNMgC8np1p4y2ccCozjYRUS2LjuaujDzFznGela6rtb1rG0jChSK3V+ZeOuK+cn8TsfU0/hRn6jloW9BXKrtF02RgV198m2NyVzkflXLRKsl193IpomRr2OmR3UYD5Ueoq6uguxJjJYYwKdpyjIxzjtXQWWF2knpU2Gjml0m8t1ZskL2U9jTUbUFkI2MSowG7V2jqswA25z1qxDYrt+UAgUrFnGJcamDn7OxX1Hal+0X0zABMHPSu7FqFBCgfNweKtw6PayKNse5s/e6Yo5QODttJ1K7kGUxnvW1p/gzUrraPMZfX0rvrGxWPaqqvXk45rpNOsQvyqeOtLlQtTzzTfhvIzl5pGO0ZK9BXWaf4RhhCqsYOe5FdvZ2ELRkEcjvWvY6Om7kBu4x2rPYv1OOt/CqxnAHHeumsfC/2dd55XtxXTW+koqltuSpwDWj9m8uLJ/KsbX3HfsYtppYZV3/ACgHA4rahiEMI5y3QLiqE0jH5Bkmr9k5LKGXB96cUErlmGESOo5X2NXI49qKM8HpVYP5c3A/GpGmbfkDJzVaEmlGhi+XPPep4eZORz61ShZvMGa0FC7eRz61DKJNxbg0snzLyeKWPG3A5p+wKDmsCzwz9p7Qf7W+F+rrhspGXz2OOa/N2xu9g2uu7HBzX6zfEDR11fwxfWDAss0ZBHXPFfl18RvB9x4J8R3Vq6EQmRij+2TXo5bUUJuD6nBjablBSXQynjELLIg+U16D4YvGa3QM2OK4Cz/0i19cV2vhjP2dd3B9K+spHz89jqy4ZMd6Z26VC0mGGDzjFSbhgGtWjmJNuM85NJuwB6+1KrHG3bwaXaB2qShvXr07mhssoxQW6CkJ7ZqAFVTtPpTVbJFPjBXg9DSSNt+pFACqx4pWXe3PBpi8cDrS43MP50AGcKOOaQNwT3qQ4GVFMZemOKdgFX5l5pWPB9TSKecE0bTuzmmAvOwc80HBAI/GkVcH15pcjcRQAgwox39ad9fzpu3dyBS/d4NIBV+bnPNIyjk+1BHzDBxRjnFIBi/ex0FTFlCgD736U3HFL1OD6UAIfmHqab8y/WlUbWx2oY46HJFNADf7XX1pfug85pNwZSM0xtp20wHMx4FGdvqD70vDYJ7dqTCsxzQAv8PXmlC7TmhiNwx2p2TjFKwDcKW4pVyvAxzRhRk96X5R05P8qLAKQd3Pem4ycUmC2Mn2pf0oAa33gD60rAMxU9qUjgZpGUcEUwPD6cORTVyT7UvSvNOsY1AyvWmseeKVfzoEOzxTT7Up74po6UAKtO/nSYoJ28mnYALHtTgfSos81IGFAEgPc9KerYPXioN3vTwflpAW0PvT2b5feq0chUcinM2VzQAK21uvFWoPmbjpWfv3NV6xOW560AXmO1ag3cdamnkGwCqjMBxQBMp+atGxxuFZSN04rSsmxznFAG1bzMkgA71oMxXk1jRtlwc4561sQt5kOOtbxkZSQ8MNwPancdc5prJtwR0pGOBirJFBB596cpHPemL8zDjipNuOQKoQ75cEetNVflODnNI3t1p/UDnFMA7e44o4B6UMQpNIevBoARl6etKB7ZxTm7d801n3N0xQAcbTVO8vYrJR5jAEnAFGpalFpcBkfr1CnvXAXerSanqCFzhN3C1nPY1prU9U0mQPGrLyp5ro7Xb5eD941y+hqq28QPAKjFdNbAKuQ2RivnqmkmfTQ+Ej1CQRwn0x0rkN224ZlGBXVag/mRMDXLRJ/pTAniiIM39LkYKG7t3rpdPwzDPTvXL2EgDYHaui0+TEZVfmPegDpIbaPAbORjtU6qFYYHy+1VrN90QyMe1bEUB+UgAH0oLIPJVsKQQ3bFalnDtwoHA9aWGFd3I+lX7eNU2knOKTAvaba7SHcgg9BW/axncADjNY1rIC23t61tW8gyo3cY61myjotMtw2N3SulsIo41GMMx4rkLG6+YqGroLW4Zmyo2Ljp61LBpm5wrLhefrVj5rr5dgRMfezVfT1MpG5MH61ri3ihiGe/r1qLMkxGszC27dmheMetT6heJGpyNo6VUV/O+6cfWoLRYV9zLk89qtfxbh171RC7ScnpVuOQbQoUk9uKBl2N9uCe/GK0Uy+B+lZcJ3DpzWlbg7ck81LGW1Xbg96e/zZqJc7eOtLuP3WrK1iihrEPnWr8cbTXwf+05oMFxezMijzUzjA7Zr711RwtrIBgHaa+JP2jpFg8UG1OD5ifNSpv8AfRSM6nwM+bNMsWt9PJbgs2AK6/RhtjGPSse8AWZIgOnSt3TflhCkYr76jsfJVXqW2kLYqaF8dart2x0pyMNxHSuhnMaUZ3L1p3sKqJMF4HFWQwbBJrNoYN3wMikXAxj8aXdjim+1TYokZ+4HNJuHGR9KTb37U7A2jjOKVgDJHzYwabzu9qcfm7/hSMRwcUAKq8bqAw24JxR8p70n8XNAC4HHP40rNjvTce3NDD5RxzQIft3Dg0gTsRz60ijbn5qVevXk0DFX9aaycZzzT+Np6AnvQzFVHp0qQAL909fWj72WzgCm7jjGKCvyk4NAB/rGyOKFQcgnJpNuTwaXB3EmgA28+9KuBns3emHPBHrQqnnPemgFZtwIxzSLwuMYNLtxnnmk7DNMQN6jketKq/LzRuHAFOUnhvwxQK4qqO3GKcMdF/GmMrZ9Kcm3bkcUDE2+hpMHJ470fdJzRuFAw3Z6DBFO3EjGM01T8pOf0p3oaAGgfeLZyKROM54p5PBwKZtPFAHh4I6UMe2aRQOvU0N+RrzzqI/xoXrTW6+1O3CgB5PpTeO1JnkU5fWgB3b3qKR+OKmaqzNmgBwqRW5qFc09TQBLkU4fdqNe9SKeADQBKv3eTTXb5Mdqb170yRtq+tACIcN7Ves3xJWapOavWrHjikwNCSQbaqs/OKdI3ymoGYUgJ435wPWtK2k2jA9ayYWO6tC3YfWgDQ8/awNaFjeeWynOQOaxi3y+9TwScg5xQB1huEuI12jBxkimsoUjFYtveNGwOc1qQXiTqfUVvGSMnFkvRc1K33Rg59qj4wMc807dn61oiBwXmhWUUudqk9c0xR05qgHrg9uKOuccilH1pFY9hQAikN09KguJ0t0aSXhF71MDt3Dt61w/i7WzNI9vC+UB5x3pDM3xBrTandMP+WQ6Csq1YtcxjrzioWbrzU+nqTcIevNZS7nTFHsGg5+xw/7IrpYWIix3rnNBc/ZI88HFdFbksoBr5+p8R9DD4URXkIMJ5wTXONxMQOucV1c0RZcHoe9c1fKLe4OR3xmlEotWWRlV4zW1p8rQsoOQO5rAspD53tXQWq+YM571RJ01jeLwSccV0NvIq7dx9zXGW7FeK3LGRtoBJOPWlcq7OlS4G/rkVcilEikAketY8U3yrxzWjbsOPWpLL8TzcgDC9Qa1LNmdlBfAB5rFWdgcHjPatCzlz/Dk0DTsdZp4WP8A5aAj+9XSafeRqm4Y3e9cZZcsN3AxkVvWsyrtAHbB4qHoN6nX22obCpBwQKsvqIbkN8/Uiudt38w8ZzVtWVMnJ39M+1ZuTFoi5NMLglWxn1FQLN85RRk8VGJFjXqAT19ab5g5K8Z71mM0o2WNTuOW9KlhO5lwSBWdG443Ek/WtC1O5eePpQI0oZtretXrc/LknHtWei/L6Yq7F6deOtQUakbgdselJuwzMSCKriYRrjJJ9ar3F8I0O7nPc0MClrt8Ps74ODg18H/HLXk1zxxdPEcxQLtxnOD3r6Z+M/xATQNDuSsmyXYQOep7V8Ta9qjSyTTsQZZmzx3zXbgaHtKvO+hxYyp7OFurMtXNxevJt4rct2KqOn0rI0+E7VOc+orVU7VxX2cFZHzEncsb6erbu9Vt3AFSRyHHoK1MyfzPzqaGfbwecVW+gzSBguT780rAawk3LkUiqByTUFrdBeTzmrK/vEzWTQx275qRvkyfWo1YnJzin7gy881BQ7H7sHHNM9RinLu9ODSvjoOKQDQq4pdoDdfrQF+UetL696AFJHUUblzzzSfe7dKBGFPpSYCLjk9B6UuM4w3NKQduCOKapGcAYFIBzZ2/NQo3r9KTluuM0AnOR0oAVsKvXk0MTt9cU1sDj1peM9frQA5cryOPal3D5c9aaRlcg801VwM/pQBI25cYqPcQ2TT1J6YzQMNk4zQAgyy+lN9c80/ZtGc03kc5yTTuIFUN0/CnnAODTRjtxRt5APNMViXcVHHI96THp+lN9s0i7ug78UAh3rmmcZGeKkZT2603aDknigoVW4xgc0jdgKMAtRu4oATqueh6Ui45B6U4fMelJtG7kc0AeGqwGQOKD60gwenWne9eedREcUz0FPb73FM70ASbeOacgHBpq0o9qAFk61Wc1YbhTVduuKABeaevBqNaevvQBJTgfam0qtzjvQMkzxUUrcU/cQvvUEjZxQIVSau2rbcGs/NXbY+tAFmVuvNQ5p0jVGDnrQBNG3I7Vfhbb3rOjq2rYSpAn8z5s5qZZulUA/WpoZAxoA1IW3VftZClZMEw6DrVyKXA9KAOihm3xg59qm9BWJa3gVgK14ZBNz2xXRF3MWrEi880v3eKT+97VE0qJtLMo/GtSSZcHNMkkWNGLNtX3qjea5a2atufc2OAO9cdrHiOa++VTtXpip5hrU2da8VLDG0MBy2MFh1riJpDIxYnJ9aHkLnk5qJ6lu5slYZ96rVjn7RGP9qqi1d07/j6j781Eti47nr2i828eRztrpLVuDxkdq5zRWH2ePPp1ro7flQR0rwKnxM+jj8KJJeVwODWNqEBPIGcdRitza23nDVQuo2dWONoqEMybUDcOK6GxYJGo7msCEiOYdxXQ6fggcZPpVXINi3jyy8fKa17TbwOoz2rOsmDKB0xWtaoFXmkNF6NQuOuPSrkbH5SD3qtbx7h6mraZXgjJFItFyFj369ea0LaRlBIGD0qhBgtyOK0Lf0PUnApjNyzYHAI59a2oAQvoKxbP93gMc1r28zNxlio7YrGW5VzZtboW6dCSeKsxs05JIxjpVCzwpxJ0xVlrgKPl/KoFcs/LuyTk4pd+8jAwPSqQlPJJ61E14ynap4zSA2I1DKQDk9avWs3loFHpisS1kYsDnAIwa1IflyQcmgr1NiGRpNuSM4q7G3YdDWRHJtBPTirkcmIwc9s0hFyS4C8E+1c54m16PT7SWRzhVBIz3q5qF8sKZJx6818zfH34rPzpOnyfvW+VmU/dFEYOpLliKU1BXZ5z8XvHj+L9fkjicGzhY9DwTXk15L9qvAsY+Rat6heeRERnLNyT3NQaeoXk9Sa+vw1BUYKKPlq1V1JXZoWuY1HHNW15xnv0oXYFGF59aPoelegjkZIAMc05cdKjP3cdxzmgH5sDrVkkrY7U3zO2Ka2fqO9MbJ5FMCwsm2tC0mDLg56VjBiVzmrNvMalq4GvtHalcYHPSooZPM+U8VPjvnPtWVgFX5QOcikZh0HNIWPAHFLu3NwOPaosMTHahOFyeeaXjHHJxQP1pFBuO3j15pVUluelIrHceMCl3bscUgFOd23tTSp+Y0Y6Ypd3zYPAzSAEUswDcUo6kZ4FDL3604/KuKAGYy2MZxT2Qc4GaYpKMT1zxUin5gMc0gGhiq9M1qaP4f1DXJhDZWckzk4yVO0fjXSeBPAcviS4R5UzbKeRjrX054K8Ew6bawxxwoiLg/d5rhrYqNPRbnfRwrqayPE/DP7KOv+IojNdavDpoOP3W3J/A1019+xFqa2fmaf4i3TY+468Zr6X0q2W1j2hcH1NbCEsoJGMcV5UsXV3ueksJTXQ/OTx18Pdf8Ahvei21m33RdFuUHymuc+934PQiv0o8W+B9N8ZadJZ6lbxyo6kBmUEjP1r5E+KX7L+teEpZr3QFN/Y8sYWPIHtXXQxr2qnDXwjjrA8TA298mlOVYgd6SV3tLgw3UTWs+ceXKMGnfyr14yUtUea4tbjFXknvUi/KvHWlPzKMfjTOh4q7iDceO+aOfSkJ9qVeepoANvvTcbeBzS9cnHFIGKnnpTAVDt4pRRt75pFwzcnBoA8O+lI1KvtSN1rzzqImHNLtx1pcGjG7qaVgF2g0ucClwcUhbimBHIcLUHU1M9Q/pQNCgYp278aZ1Y05ePrQPQmX3pDw1Ippc5JoAUn8Khc+lTHG2q7dfagQqtVyBuM4qgvWrcLZ7UCLMhFQ96ezfLTFPvQBNGcVZ/gqrHgtVhj8uKAG7+3SnpIFqA8t1p6j1/CnYC/byhmBHWrfmbe9ZKyiI8U97wlcVXKI1Y7pUyanj1426/Iea5trlux61G0zdSadhG9N4muJtw3YBrNn1iV15c5rNeY9utQsxq9SbImmvHk6tmoWY4pB0zTeTmkUGRzzUTtTzx3qM/M1BQ5VOOKvaZ813EO2aphat6WT9ui/3qmWxcdz13SVDQJnFb9sx2gdKwNHYbUz0xXQWjDjseleDU3PoYfCaMK7lAPAqO6tiynHTFTW6B+5z2qz5QZcZ5rEo5CaELchRx6VtaZIFX5vlIHNQana+XIWx070WLdAeBVCOqsee2FxWpa/KwHQVj6e2+PPatW1+bq3NMRr2+EU7evvVuFS+SRzWZbsSwHXnJrRhmOcDr6UioluNSGAJzWlaxEYbHPpVGHlQc5IPStG23suCcUyjbt0VME8nFaMEnHy8ZrMtMbQOB9TVwy7cDqfasWBprM38R5xSNcLuJ/irPV2wcnGab5mOc0hl8zDG7PJ4296F+bDfpVBWD4ycYNXLdwy4BzUFrQ2bHO3gZ7HNacMqpnIxWRbyBY1zU63Q25I/M0hXNfzlKj5utMutSSJOZNu0cY71jS6kipknZzjArgviF8R4PDOmyytIpfBCrnkmmk5OyE5JK7KHxe+Kw8PafLDCwa5YEKueTXyre6lNeSyXl2S88h3uSentV3xH4kn8Rak95csW3cqufu+1cjf3rSOY15zX0uDwiormlufPYrEOs7LYVmN9cbv4AelacMQxwOKpWEPlD3rTj+9gceua9dHnMlCnGSc1IpGOOaaVPQHFL9zODzVkE3ccU1lI6HGKarHqak4x1piI88k0hPze1JIR24qN2+XrzTuFh7NtzjkVJHIVxVfooo3Nn2ouFjVhuNvOea0YZRLwTjI61zkczcjNatjcfKB1PU0gsS3d21nkMhPPBp8WpRtjdlSRzxTbw+ZGe4rOC88H6VNgsbMU0chypwM96fzuboR2rFWQq1Wo7w8jHep5Si/8ATpTt3t27VBHOGA9amB9KiwC9BnJpdpbnODSL8wPbb604SbjtzzU2AauTkE0bxxzmk5yDnpTwu0ZpWAFUscnp2rqfBPhOfxPqUUKJ+6DBncDoAa57T7Vry6jiQcsa+iPh3oCaLpo2LtdxyQOua4sRU9nE7sNh3Vld7Hofgzwva6PZokaKSPavTdJtQVA2D2ridBk4Vc45r0jSLUmNWB4xXg3cndnv8qii3DbAc1YhjG7HapvJKLnHFN396XKK5YdSydPaopk2KQVG1uCrDNPW6WNMk9Oa5bU/FSvqDRRfOg4J96dgSu7GR44+BfhH4gQMb20SG5I4kjG0g/hXz/4u/Yv1C0ZpPDur+YByIrgjH0zX1fpc5aNXZsbjUOragsQKr17VcZTp6xdiJ0YT0kj4A8QfA7x34WBF1pDXaDkPbHNcZeWl5pblb/T7qzb0liIr9F/7SnZwoPy57jNVNS0jSdcjaPUdPtrsN13xjIrrhjan2jhqYGH2T87FnjmZSrhx+VSEdiMV9jeKP2b/AAF4kYtbRHS7g8boeMGvGfGX7L+u+GvNm0y+TV7YHiMtlwK66eNg9JaHFUwk47ankO3IpuzHHete68HeIrNis2h3Y29dqkisq4W4szi6sbm295Iziu1VYy2ZyunJboZk7cZpuw+lNt7qKUcMMZxg8GpwemK0TRnY8KpjE0vI4pG9q4TqG5+WlHrSLz25pVGeDQA9V460NQPlpjtzQMjkqI+9SNzUZUigBKcvJFNNLHQBKO+OlOXmgD5RzSgUAI3Q1A3AqaQVC9MBq1Zi5PpVdRyMVZjj9qdhEjegpF9KkWP1p3yqPenYBYhjqKkZh65FQM/pTWkp2FcmZhnimNJn6VDu9803f1qhErN3zSeZnvUQbNLuwMUAO3YppbPWmMxpM8UwAscnvR+tGKUfKKQ0NbpSD35pD70maBiO3HvTY+9NdqfHkDPegB/Iq3ov/H8n1qnjPNXtFwt4tRPY0hueqaVJ+7TA4xXR2+No5rl9FlyigjArprdlZVx+deJU3Z70NjbsyDgcE1eK7cBecnmsy0JXGOM1pxEMvJNcyLKOpQho2BXcc1mwoBIMDpW3dIWX2rOWIZ9KYF+zdgNo+tasEzLwRnNZtmm0jPetKNSfemBpW8x3epq9b3SgcLnvzWXbZXkjoasqQzDIx7VQzVjvC4+XitWzuGVcZ5JzXORyFTxwK27WQKM9yM0gubttJuUBj9Kvq+1TjgVk2sqyAY4NXGmEa/0qLE3LPnjn5sgVX+0KrE54qo0wXr65NQmfcGI4qWM145hxjitG1f5SOv0rn7S4JUZHH0q9Debf9nNKxSZvLcEY5GfSop70pyThQKx2vO5Y7exrE8T+JodG0+SZ5QoUZBNNRb0QnJR1J/Fvji28P2E8kjZYJlee9fM3i/xZP4qvmmkc+WD8qEcfWn+MfG9z4lvJGYlbYcBex964u+vtq5z2r3sHhVBc8lqeLicS5vljsPvrxVTAas+zh8yQsR371R857yTg45rWs4yq16x5xp2kahck4qyqBuQKghZdoFWI2x0HFaozYuccnigN3ob5uTTH7YqhDt22hZPm4prZ/GmgY9vWgB5y3U4qNutOXhvamsAOhoADjb15pm44FGenamt6ryKBjlb5gavWs21gBWazYHqasWcg8zHWlcRtm4CxtuGeDxWOs23jPNW5JP3Z55xWWzbWODmncC+so69akVgVyOtZiyHp1qRpmX7poA1FuNrcHB7VchuztUE5b1rBjuCCDjPrVmO8G4g8UmBtLdArjNTKw6gVjrJzkGn+c3UkgDrUWA1Q2W46VJu+XaKyl1dV+9jHrV2G7imGUfPapsB2Hw+tEm1YM+07SMg19K6HHF9lRVHYfjXzd8P5BHqBI5A5Ne+aDrUUCrkZwPu5r5zGS94+nwVN+z0PR/D9q0bAt1r0TRrhdoGceoryrSNa8xlCnK9xmu00XUx5g2kA150ZpuyOyUGtzvZJh5XArJubsR5IOB709rjdGMHBx1rmPFmpLpumyTSNgKMg10eZzdSDxP4wj0uxnkMm3AwOa4nRfEH26QSE5JIJIry/xp4kuvE15GiOyWyn5gP4q2/CtxJYxRoRwerelFurOuEUe5W+tLFb9cbR61Vivn1eQuOY1OMnvXCSaxJdRRwKxG4/Ng44rudHmjt9OCrggdx1p7ilHlRF4g1IaPEkat88nH0rJuNe+xQt5kmXxx6k1JeeHb7xHqyTsfKhXha6bS/AVtC/mSqZpPVjWXK29CG4pHK2LahqWBBEQp5aRq67SfC7RqHkO5j1JrpLTS47QfIgTtWlBAFUEng9qLJGLlcx10dFUBoo5FAxhlBBqhqHgnRdYjKX+kWsyZxtaMV1ywAZA6Z+7Q9ruGT9MUyLJ7nhfiz9l7wR4g854tP+wyn7v2f5efWvEvF37HPibRFNzod4t9aFsCKXJYZ96+4rfT442y5wM8VoyeWEAHAHHy1UalSDvGRFSjTmrNH4Q800t0oDE0V7Z4gAHd7VJTMGnqB3oAM1HJU230qGQ+vTtQBE2aa1K3FMpgFSRimqharEUO1eetMA2naAOaesLYqRVxT91VYVyNrXd1NDWsYGO9OZ6bu7Zp2C43yEU+tOZx0AwKaTTSeaAH+Z+VMZulNZqbmmFhzNzTWakLGjdQMQtS44FJkUjNz7UCFpD+tNzzR70DFOaM+lHv0oVaAFFNbNKzY4plAC49TTTS01vlU0ARnlqmXOKgX71TrQAD3q9pPy3Cn3qltrQ035ZMmolsaQ3PQdFlLQjJ6V1dnOuwhh9K4zRZOV+mBXZWahoeRkt0P9K8aqrM9qm9Das5FJG7gZrSjbBIyDWHCpj25ORWnbzA9se9chqWpMbeOTVOSLc2cYNXuW4HINRtENxyc+1AyS3bgY5NacPXHrWdGixrx1q9C3IamI0Vj6DdUsa/NnGe1V45N3PbNWfMQp1wetUMtwBduQDkVpQgMM9Kx4ZgvOSAetXYJiq4zjNAjYtV2chiQOf0qaVujDg1ThuTGjAfxUrTFcbjnFArjpGYsctkdRQuFXJPHaoPtAbLYx9ab52cAkAZqR3L0cwCqaSS8Cqx3e4zWVdXZhjwMDmsbWPES2to7M/C9AaaTegNpK5sal4ijtoWkkk2BV3HJwK8J8c+NpvEd68UbEWa5x/tU3xV4yuNYmMKPthXjjvXKySKwr2sNhbe9I8eviL+7Eq3Fwy5PRayriTzuKsahKMnBz6ioLNN7civVPOJ7a02IMCrsKYxUsMQKY70NHtbGasRYhxt5qyuOgNU14IqypqyCXd8pBNN7U3Py0gbHHaqAew45NIPfkU3huKOV47UAKxqLcR1p7t6dKgfnoPrSAf5nzYpC2eQaj603kZ5/GkBJ5h3YA4qSFgsnAqsG+b2qaI/N6igo0GbELE1nKw71ckbMPXiqJA/CkA4sRyKTeSBSbsDHelXGRTFYlXheKerfMRTUI6ZpUPzHjigRJ5m3oeaGujyCc5qPaecDBpsi8YNADJLjCnms2bUngbMblT7Gp7hiqnFYty2HrKWhpHc92+Fqu+n/aGbMjDJr1nwy0t5cfMxCggc15r8E7i3h0UTTrvjRDwR35xXrvgtrTzPtF1KsKsSdi8mvnMRG82fUYeXJBWPUfD3h5LyFEiOCRktmtGz+06TqgifcyevrV/wAI+NtE0632Jp0suBt8xyOas6x4g028bfHELfbzy2c1z+xSd0U60m7NG82pBbcHPGMn2rzL4katLqlsbK2fIZqXxN48tbWz2rOvTAAPWuM8P3l7r1406RSFAcBudtavUmMdblW38KXTXUJOAFHzLiuhOlXUjRx2kWWzznoK6rTfD8k21pSwPcLXT2ekxWaqVHPesWbe0sc/o3gdpHSSftyRnHNd1pfh+C1UAKcUyG624VQMVox3BCgE1NzJuUnqXIYlhX5VrQhz5ecYPWqEEwYH5sCr0cnyjv70XJsWGxIo7N3qVG2kdqqbwCDmka4HGDz9aQi/uyvNJNOyqA1U/tDIg5z6VXmui/Gadhk02oHpnAqa31L0G761kZ3cr1qP51JIPWgo/FHilPSox1pWbivdPnCRWp2c1CrBRSh89KAJ81Gwp27oKacc0wIWqRI93elCindOlUA5VA7U6mbulKKokk3+1NZqbuzikLfpTAduzTS1JuppoAXdSNxj0zSH1zzR35oKDnmkz607IpnfNAC8evNIx6mmnpQpoAQMacaZ1560u40AHtS0hpOaAHUO2OBScKvXmkGTzQAnNLSgUd+lACDHeo5G4qQ+1QM3zGgBY/vVYX25qKBasAUAJV7Ts7qp7TVzTx+8HPWolsXHc7HR8kjHUV3FjJtjAz25riNDIDBfWuysVyBjFeTW3PYp7GvDn8DVtPlXGaqwKQmamVsHgZPpXEdKNCB9oGTzVyJQ2SRVK1j3KMjnFaCxkLjv2pBYay4bvUtv/dNGdnUfWg4Kkjj3piLSSFfl6CpVk+XI5NU4+2TuqXJGOeOtUgLaSMvarsMrYH86ylnIwc4okvZI4WEY3SHpmgDo1uHjA549SaVr0E/MeKyYbqSS3XfjdikaZnPPHNMDT+0DbkHjPSojcGQ8DtTLWJWXdIwz220Xfl2cZlJwF5pWFexT1C5WGPfM+1O5zXkHjTxYNQnMFsf3IPJWrHjrxlNql59iszti6swNcYsXkg5Ue9evhaC+KR5eIrfZiNaQc9qpXU2B8v41PI3U+tZszk5HvXr7HmEX+ukz1GatxxhcEcYqG3jwM1cjTauKaEy7bybgKlkVeCBVSzb5yO9XfL3YNUSQ59amjb8KjZcE560q/WrJJmbHFIsm0HikbtTclsCgB6tSMx69qbn5sUFt3GOKAAyfLio9xJzRuHFM3ZxSGOB9elMLDdzwKC3NNZh6UrjBjzweKsw1Tz83H5VahYjHpRcCzJ/qetVwBjNWpsLbgg8+9U8cDNCAbnLH2oC888U/aF4HBoYeg4p3AVFFSpxmoV6inH27UgsSlsY5/OmuRt4NNznrQzCi4rFS44XPWuf1DO4mt+47msC+XcTjpWUzWJ6T8PfFn2HRGtt5DE8/SvQPDfi4WDb3laQjsxr5xs9SfS2yGwCeleleCPC/i3x1Ig02wkhg73NxlVryqkVe569CppynvVp8VEtyB56rnoM810Gk6prni+QJa20yWucGZxj8qT4d/AG00VYLjVSuoXhwTuGVB9QK920fw/HawpHFGsSAAbVAFcc5rZHoxvuzitD+F0JZJb0tdTdvMORXpGl+G47WFUSNUjH8KitWz00RqueePyrUWNY0GDniufVkylqZYtFh6ACq1zLjjoK0bxiN2eaw9QYq4Y8Vm9Bx3JvtEa7T/GvNXvtTzoD0zWLCVkGWOPqas2d4i5BbIHPWpRrY3IfMVgc/UGtaC8RYxkc+tc1/bAHy7lPHBBpra4h+Tf05qtEK1zopr7bIAOnXNM+3A9fzrkrjxXb24ZpJVQD1I4rnr/4oWMZ2wF7qTpthUtUNtD5dLHqTXSqvzNjvnPWo1uFmfarfWuC0m61vxAyytG1lbt2/iNd3pOlm1jXedzf3jVJsnlS6mnBahtvpirH2Mc9BRC23GTVoSKT0xWlzGzPwqzj2ozUe7vRkV7Z8+PLdKVTUPenK1AydW7ZqTOahj65pxb0qxEoIpRUWaXdnFNAPDdQKX+Gm0bqoQ7pSbs000lAx9NPWjOeOlJmgLhRncKbmjdQAHOaM0hpvNAC8Ui0UUAL0OaTrRzSn2oAM5GKSjPFJjNAB7UvSlxS8d+tAAB+VFKvNGKAIn4HFQVJMe1RrQBZhUlciplHFMhO1cVKKAD3NWLdtrAioQlSKNuOKQ07M7bw/iRAR2rttMI/iXA9q4HwpOr4X+IGvQbFTtAz715OI0Z61F3iasR2j2xUH7wXAbrH7VPED3HFSlQW4rgZ2ovWcnmMp7Z6VrKoPOOKydPjOcZ4rft4fkyTx2pXKI9okUA9qgkhCnIbg9q0Gi+XpVOQcZxkHpTIKyht/GeKlZ+2KU/Ln0pFG9eOD2pgNaQlRipI/3nORmq7Rt3696erLGeePxqgLynHJNSRyhyazvtQYjjk/lU8MgZvnO1e59KANu2CjBdgqDqew968u+JnxAa4mOnacQsY4eRe9TeNPGvmNJpuny7eMO27j8680mIQt5nzt13Zr08NQUneR5+Ircqshkch3Zz83c96fLN8uDUS8Nn1pJ3+Uk17KSWx5DdytNIOgqKOAtljTYgZnP92ruzIx2piKu3b7CpogN1EkfpyKFyq8VRI/7lwCtX1k4BqhJ/qww61YhcSIGz7UxE0jK2MdaZtOQe1OyMYPrQ3bFUSOVulI2F5pFXbzmnEEjOOKYEa+uaGyw4NG2mEGkMRm7YqNm7GldsVGGzkd6kY4H0prMWpu78KQthaAHL97A4q1DnIGc5qln5vSrlthu9AF24j2RKSc7hVb61JMxwo9O1NHqRmmgEULuB70jdcjjNO2nORR/D7U7AN2nkgc0oU7fX1NL0pN3zY61ICF/SkOaVlG6r2j6Hd65eJbWcbSyueg6D3NJuyuxpOTsjEu22gknHpWx4P+FXiHx7dItjZPFbsObiZcKPcetfQvw+/Z10/T47e811Fv5z84ifGFr3DSbGw02GNIoY4oV+UIgAFebWxSWkT1aODb1kePfDX9mDQPDPlXOrRDVr9RnMv3VP0r27TdEt7WEJFEkSKAAqKFFS/ao1G4bRTG1QnOOPpXjVKkpPVnqwpxpr3UbthCquo4UjuelbUV1Eqj5sjPWuAbVGUYDEdq1LW+OwZP4VlzGkondR6kPLGMH0oF9u5z0965NtZWOMZI/DtVG88W29pGSZPm+tVdmPKzs5rxBklj+PFc7q19HuPzc9BzXB+IPipY2CZknCED+JhXjvjL9pHTLGRxFP57DosXJNDi5bI0UeXc93vfEzQNsyCPY1mTeNre3cie4WEDkljXzLb/ABQ8b+PpvI8NeHLycMcCeRCFFd54X/ZW8eeNJEufGHiBtPt2P/Hpbk5x6Gj2bW7NOeKOz1j4/aJpbfZ4Lr7Vdk4EMPzE1reHbrxd4+KyxWTaXZN92WUYc/hXc/Df9mfwb4BXzIdOW7uwcm6uTvY/n0r1JrW2tdqRRKgHAxT5V0D2vZHAeHfgzDcMJdTu5rqT0ZjtP4V6Jovw/wBF0lR5NnCsnTcFFWLOX5hlgq1ca7VVO3r70aGMpSbJTYwxRnZH+VRvHjoMcd6et4MFciobib5aTRKGbyrAZyasrIdorIuLoR1Tn1rauCcEcVGxofink80hpzfkKa36V9AfNiZpR1puaevWqESrnbSrQ33fSk7UAOp2aYv605ferAXcaXpnIpKDmgQuaSlpM0AKPrRTeppd1ADfpR/OjHJo2+9AxN1J9KGXbSZoELRSUUDQ4NSZoFLtoASnUKAKKADr0oPFHf3p2PmoAVfXrSsBtz3pyr7YqO4O2P3oApvy1Ki+1J1PNTQoKAJ414FS7ccUscfA4qXZVWJGLkVJtPelVKmVOelFgLmg3H2a+XLcHvXq+lFbiFdjc+1eQRQnzAF6mux8P+IBo95Fbytw3U9hXHiKXMro7MPUUXZnpsduVXvj3pp+U4q5p/l3lr5iSB8Y6UNZfOpxk5rw5XT1PajqXdLh3YOK3o7RmhHYdBiqui2p/iXr+ldXbaf5iAKOfSs7mttDHWzaGMbuTiq8lodu4DIrq/7JIQnpVW4sSFB2jAPTvVJmdjkJISSRjFVpIyGY4IWt+6szG7EjHeqRUMoOAwNUBkSAlT9KrnBUk8EdK1LpEXCjHNZGoXlvaITLIsa96pJsUmoiK3PHJ9BWD4s8YJptq9rE2biQDkdvWsnWvHEcOYbRj5nZvauLnma7kaaRixY55r0sNhnJ3lsedXxCStEbJK7TMzE4Y5obG0nOfakZx0YUny8mvbjFLRHkNtjTcALz1qpJceZ8g/Ki5k5NR28YY5xzVEXLMKhVGBirKpxUS+lSx5PWqAaynoaRaeykE96auT2oEOVd24HpRb/LlewNIvBwelG7ZIMdKALW4lh2FLnpTVO5QRzSxgtkd6aEw5zTjuHTp0qPceBUm7AFUIZ39qjYdeeKeWCk5OaTKbWB5PaoKK8n1zUJYq1PlYAAYwaiLfnQAZCn3oLZ60zn60mTn1oAfn5qtW+eMGqq9cirVvw2elICdvm705WO3HTFQNJlie9Ksp20wLBbaQOtJuB4piud1JnOe9MCdgVOOCaZIOmOtM3Fsc0rNgdaQEsUZeRe56Yr6X+B/glYbNXjjUzyruLkV802ExS8iJIHPevtn9nKe31Lw22WQzRjBb09q4sS9LHoYXljeTLd54Z1hZmKXEaxjpxnH45qn9n1Sxk/fumwYJ9/wroPEHia20uaWMthhnHoa8s8UfEiKOXiTLfWvDkj6CEuaNz0G41MLHuDLj0zVUa4m0sXA+pry2Hxp5qtJvOOtZup+Pkt0c7wMc5J4rPlbHzRseuXHiKC3jBZhhuhzVK4+IlpZxkNcqpHvXzP4o+LrtJ5FvI1xLnAjgBY/pUOgfDj4jfEy4X7JYy6dZyH/j5usqFH0rRUOrZzyqdtT2jxV8f9P0yNtl0vtzjNcRZeOPGfxMuvJ8NaPdTbjgTOpVPrz1r0/wCGf7G+j6O8d34jun1q9U52sMxZ+hr6R0Hwjp+h26RWNtHbQoAAkYwBipvCDstRXlJdj5g8M/sfeIPETC58a6+6Bzk29o/I9ute1+DP2XfAnhPa1pocdxPxme6HmM3vXrFraorZxhR0rUgeONsjp6Uc0pCMzS/CNpp8aRwW0UKKML5aBcflWvHYxxA55x61K14q4Oc1Vnvd4LE4PpU8oczGXtwI42CgDNc/NeNk56+1T312QhyeK5y41Ixufm4IxilcuKNqDVQZOTxVpr4tghh9a5KHUI93T65NXIL/AKnOV7YpXNWjqbe+YYyc1JJqAxyawYLrau5nwPSo5tSQcE570jO2paurx2ZgGwT0qmucfOeah+3xSMSW5p66lArKFxIw/hAyTUmlmfjtTWpWYUwtmvoEfMsDnipI+tRZwRUydKoQ5m3EYo6U0jml70APFHtSfypasB3agGilzQAUCk+lHOaAD+dA5prGndqAD8KSl3UlADWpNvGaXNJQAdqWk5pR1FAhQtLR0xS9+eaBgOlKRxR9KU80AJtpyjnmk5zUqrQA9Vqnek7gK0UTis69YNMQO1ArldV+arMY5qBW29TTlkLOM0DNKHmrKx7uRUUC9Ktqpj5rVIgYI/wq5DbhlJxxVbf81W4c7TVWFcVYQG4OKm1qOKGOLym8xyMs3pUlsIlJaTLY7A1HruoQzNCkEBj2jn1NKw7nT+AfGD6bOlvcPuRum6vbdPs47y3SZTvDDI5r5Zhl/eDkrg9utfQ/wN8RLqyjTbmZVZfus3Jry8Xh01zRPUwtZ35Wd/oelskvKZXNdzp+l/u87QGx2q5pnh/DA456/WumtdLEeVZc54rwknfU9nocw2jqFPB5qldaPuiJ4+lb3irxRoHgmFDruoR2CP8AdDHk15f4u/aU8D6Og/syeTU5MYLKMrXRGlKXwo5pVFHdlvVNPZV+UHGPmz2rj9U1K00mPzJ540HZCea43xR+0FdeIsm0tUsIRxlTyw9cV57fa5JqUm+SRpCf7x6V3U8HJ/EcdTFpfCdZ4k+IrybvsMahezE81wmpa7cam5MszYPVc0TTRchRx3zUEi27IDkIv1r1KdCENkeZOtOe4LaiZcl+O/sKyP8AhIFhvDCeY84BqHVPESwo1va9O7VzZYucnqea35rbGNjvlmSVdynK+tMmm2iuW03VntT5bcoe9bZuBMoI5BqlK4PQczGWQY6VbhUKvpVeGM4FWkq0QSKuc85qRGGKgAOeDxU23pVCF5pBlTxSikPy9TmgB3uetEnzxkjsaTrThgrg0AIsh7VMretVlXY+M8VKuCSM5FAEnuBTQ4yB1p7Y4ABqNvvdKoQ9lHJHWombHtTt3UVC54x0qRkUhqE8Nx+dSN96omb2oAGJ9KDzTck+1KDxnvSAWM4q3bttOSMj0qrGxU5Aq1D90tTAQMdxPY05SKjDDcfWlUgZzQBL92gGmNJmmtIVIPSgCUzdQelQTXCrnBqOSTrVCZyc4pMdh82ovHIGBzg17P8AB340N4RkKs4WNhyC3BrwmTLcU1VdiNmQfrXNUhzqzOinPkPrTxP4+XxZuuIbiOANztZsYrzW88SWNrNl5vtM7HCJH8xJryaxsL+9mih8+T5yFChjX1j8EfhLpPhmyhvr63W8v5BuJl+bbXm1KCp6tnqUKkp6RR5zpPhHx344kWPR9Ha2ifpNdkoPwrv9F/Yv1rVilx4r8ReTF1aG1P6V7c3jpbHFrFAyIp48uI4/Ol/4TpZpAhWRS/8AeHWuV1LbHb7FvcqeB/gP4K8B+XJY6bDdTqOZ7hQxP516PbxW8MJEUaoOu1RgAfSuVi1KVod6/dzU8etnaw3YOO1YOTe4+XlOnj1JQxUcfQVbGsrGq7T9a4r+1Bv+8c/SrNvebmKFvl7e9SkB2kerh1IPT+dWG1Q4GDiuUhmCr9/AqX+0BtPzDPqKtaGTZ1H9rHIBOaZJqgVcscgVx8+rxxv9/k8daik8SQRt9/5QeeaLsLHR3N7HJHnJOfWue1IBmwp569a5vVvHdlZq8ktxHEgPG5sZryzxZ+0Vo+h7wLwTuD92Ibj+VL2cnsjVWirtnrM0jpNu3gAnGe1RS+LrbTBmWdAVPrXyZ4m/aU1rWGZNNtzEnaSQ/wBK4K+8U+ItaYtd6jLg/wDLNDtFdMMJUlq9DGWKpx03PsvXPj34c0fctxqsSTf88wcnPpT/AA74+1Hxts/syHMB/wCWznoPpXwTf2ZmuEyWknZwoZiSc19+fs8eA5tC8JWl3NcSO5QF426dK0nhlTV5GlHEKp0PRtB+Hd5ebJ9S1Nth58pCVr0DSvCunabtSJQzY5c8n86x11cMwSMgYGK2NP3zKDkiuPS+hs5Nn4lmmMae1Rt3r20fNdRVPNTKM1Av3qnX2piFx81KPrTf4qUUxD1znmlptPX0qgF9B1o60frSdaAFz60MM4oIzSD0oAY3tQrE9+aXj0phGKAJFo6U0Zx1p9ADWpKU0qr37UAIq8A9qft+WhfloagQme1O9qTr2pR3zQAClB5o2jk0CgYo61NHzUVWYeMetMTJlQhCelYcsn7x/rW/N8lrI2OcVzbN1oYINxqSNgGB61DmnAngUhm5ayfd54rS2jZ1zXPWl0EYBulacd5twAa1iyGXo7fjPWrcC9u1UIbg7c1q2dxHMAB1qyS1bLHFC4MW5ychs1gzTf6UzNyM10d/dRtbxRoq5GdzCueurcsx2DNACqscjbhXR+D9al8N69aXsbEIjjzFB/hrjgzQNg8Vft71WwpP19aTSasy4y5Xc/S7wXeW2ueHLG/jZT5sYLc8itXUL620mwlv7t/JtrdTI0nsBmvkf9nf43PoV1Hol/MWt2G2N2/lXc/td/FBNF+H9vpFlcK11qbEfJ2THNeBWoOM7I9ynXi46s+X/j58Upvit49vL8Mw0+BzHboTkbR3rznzGAwDj6Gk2YXFR85xXq04KEUkeVUm6kmywt9LHwGJFSx6xcRZYHmqn1prsK0MrGg3iK6bqQR9KqSahNNnc5x6VVPWkouKwpz1PNJ0o/Ck20XCw9a3NKV2UbiSO1ZNrAZJABXR2kHlKq+laR3JZfhU7cVKuQaZH25qT0rcyFPOKec9OtN6Nml5OOaYDhleKUmk9PShsfhQAucqO9O3YH0qJTtb0FKfvelACzDGGA4p8OGHvTchkKnpUUchVjnsaALfbFMP3utIGz3prOR2wKAH9s1BITnrT2aombigCKRhnmoiQOvSnt69aiI3ZpMaANTueaZT88DvSGPXI96sx5Cmq8YzU+79236VQiNWGeaXcG68UxfrRvFAhzNTGclfehjxnpSH5u9IZEylqiaEntVxY88U9Y171IyhHZhjyKvQ2ioo471JtUDOaryXBjXigZ2fgCGC48RWiuBhDuI9a+4fBOmww6TDPsVw6cV+fXhPWvsutRux24719h+C/itFHodjDD8nlLtLMetefiI3PUw8rR0PU5oLaMFniVVx0JrG1SSwhYAbYx1G2uI1j4iRySNtbcx9K5a68RXWpTbU3Y6mvJe9j146q56bb64IVkhU5XPc0yPUGaTg4THPNcDa3UsPzMeR71W1DxZFaM7TziMjgUuUUmuh6Hd6x9lG5X5+tRReNoYyPnw3514L4m+NNhp6mNLj7Q+eiDNeb6p8bL6dyLW38s5+8zZrSNCcuhhKtCG7Psc/EOJV+WQe+KyNQ+KdpZqTJdogI/ifFfF2ofEbXdQY4vHhBHIiODWSy6hqrKJriaRf9pjXRHBze7OWWMgtkfVmu/tIaRpqNGlwJmXk+X81ed+IP2itS1VWXS7Vot3AaXIH1ryyz0dYcbxvPrWvDbxIBkfd6cV3U8FCO5yyxs5baDNV1zX/ABFI8moX0siN0jU4WqFvpLICcdTnmughVdoBANOkIjXsFrtjTjHY5JVZS3ZkW9l5bDIqyyiNCewq7o2j6n4ovlttGsZL+bODsU7R+Ne7eCf2QNR1doZ/El75UbAFrSDt7E1nUqwprVlwozqfCjwL4eaCvjDx5aW2/wD0eFw8hAJFfoX4VeYabb6fYQMI1UK0jrgdO3rUvw7+A/h7wfCkenaVDC+MNIVyx+pr1vS/DEVovCAY4AArxK1f2r0Pbo0lRjZ7nO6H4RLMrzcnu3pXTw2KWy4HGPWr77bNSBWPqGpLtx1rkNuZs/DhjUbfWnNUTHrXto+dHrVhehqsp6VZTNUITOWpwpGUhvSlWgB3enBqbTgvvVgO/Cl/nTad/DQAnNJ1pfxpMUCA0wr6U44GaBQMYDTs0jLtFCZIoFccPWnUn4UUAOHvSGl20UCFGetLtppzTs9qBoKT2xRSjNUIcBVqEce9Vlq1B1oAffDbZOc8mudOcetdJqH/AB5NmucakxoZSqaXbRtpDFBqRZCuOaiowevagC0t3Iv3WNTw6hLGwwxrO3H8KUMad2B01jqfmZ8x8H3rRtbiNpPvKR7muLWQjHNSJcMrZDEVfMTynXahZJOu5Bg+tYskUlu3NJZ61JGu1juU1PJcJcKTnmi9xDre+khZXjkaNx0ZTgin63rl/rpiN9dy3ZiGEMrFiBVFV546UjN61I7lc8Co2/WpXznpTRGcUgI6jbk4qWQbVqPaaQxCO9NPan7aNu4UDI8VKkVCrjrVuzhMjAdqALenW3HTGa2Il2jFV4l2gAVZXt2rpirIyepMi+pqQVEvb0qVe4qyRd3anbqarcYp38WSM0xD8k4GKD1wKQt82etFADWBpV44xTmx0FN+ooAPTJ/CopgVO8dO9SYPBNEiiTIFADY5PlBqTcO9VozsbaTyDU3VgaAHsaikye1PJ3VG7cUgIZGPSo2O33p8gqNlJ745pDDcDS+2abx0pyk7sdRSKJV+XHNSsdsWc801fpmluPlhXAxVCIAx4HSndAKjVhjrUn8qRI5fu0uOR6U1efapExjmgBwIo9aTbimyZA45pARySEDpVGaQ5IzxVqTdVSRP9mgsrrKY5Ay8Fa77wn8QrezVYtQ8zavQx9hXBmI96b5RxkCspQUtzSNRw2PoT/hc3gy1tz5UN1cz+rcCud1L4+cMljYiNDxz1/OvHfs549KlFvnGeawWGhe50vFTtZHZ33xe129yscxtx6gk1zOoa9qWqMTc3k0hPJ+bAqGO29ql8gelbKjBdDnlVnLdlIQs3Lc1JHZ+Y2BwTVjGK0LCAcFh1rWyM9Run6ONwdhux1rXaFIvurgdqj81I5FjH3m42jkn8K63w38K/GPjRkXSdIkMfeWcbVx603KMdWJQlJ2SOYWULz1FQSX8cLHc6qfc19E+GP2K7+6VX8Q6yYA3Jit+v0r2Dwj+yf4D8N+XJPYtfzr1+0HPPrXLPFwjtqdUcHN6vQ+KNDs9S8QTbNMsLi8J4DRodte8/Df9lu/1iSK48TyeTAxB+zRZzj3r660XwHoukxrHYadbWyjoYkArbTTIrfoFx6159TGVJaR0O6lhYR1epyXg34a6T4Yt0t9M0+O2iXHzKo3H6mvQLHQYom3EY780W0kdsoYbTkVJNrCqvB5rhbctWdtuXRG3DBBCAcYHbFNlvVRcZ+mK5qXWnaMANk/yqlPrDJnLZI5NMDX1TVvlP865K/1cLkFu9N1DV0eMlW+tchq+qIqFg/JbntmpYJn5KNntUZJzzUlMJr2keAOU1OuarrU8fzfWqEPY+vSlHvTWHPNLzTAd933p/Wm0qiqAcKdTehpc+1AgNDLR+NIx9aBB+FBz2pPejdQUGDSqtA+tP9cdKCRppKX3o/hoGHajB60me1KM0ALyw4oA4oHpmlzx7UDE+tO+9TfalWmhE0a+lWo+2Kqx/LgVbhWmhDtQwbFs/ernW9K6O+j3Wbn0rntu6kwRHmlpdtJSGFLikFOFACbaULTgp4pyqW6UARhDTtp9KeFO7GKkVaBkK5GOKmicg4z+FOUCpIoxuFMCwpIX0pjc5pZGKtipY1C4LCgkqH5WwacGHep7pllbIXHaq+32oAhk5zim4p3O7il20h2I+lHpUu32pNtAIETditaxiCDmqNqm9q1oVHFaRQmWFXjipR9KYpPHapEJORjitiB69KkphxxgU/d1GKYhd3p+NOpg74p3JWqJHDtS7ueKYOlL70AP4FITwDimk5pcUAL7mljwOvWm7u1Lz1oAguF2vuH40qt8w5zU20N8pAGaqKPKcpnPNICfvTWwV6UbiegprYXGOtJgRyZ5pjHI4pxPf86hZuDSKAmlVxUDPgYpvm7V9aBmrbEPIKXUMJjtWVHemFsgZNSz3bXXJGKAJOfwqXrxVeNu2KnT1zTEySMfNUm0dqjzTlpkjm60beacPzNO20AQNH6DOajaIsMYq2w703y+etKwyp9lDUptxt6VbC7eKRwSOKYFNrcKOKVYgvIqdhimFgvU0gHrgDpimu4GR3pvmZpIx5jZPSgY+CPc27pW94c0ifXNUgs7dS0jtjIHA9zWR5qxx5JHFet/s6WsUmrTXMwU5chcn24/WsqkuWNzpo0/aTSPdvhb8GfD3hOxjvtQijur4LzJKoJB68Z7V6tb+MtM01UtoLdFUDGEXA/Srmj6LZ6jZxyFkclRlW9a3LWz0qxbDpEFXqPWvGfPN3kz3Y+zpqyRjW/iCK8ZQrFB2yD1rVEjhQ5k6+pqPVta0uzt28tFDew4rjpfGS3U0kaEBO3Nc81yvUavLZHoNnrghXbv59qLjxBtGd24E4yTXnUesMr8vuBOeDT7zX4owd7jjnrWdyranokGsCWI4PPY1HJqHUs2cd683h8ZQxrxL0qlq3xItrNSZLiONcZy7YH1pahynpNxrSxE81g6p4mjjDu0gVRz8xxXzj40/ak0jSnkjsWfU7heMRcrn614H4w+N3izxtK4uLxrGzb7sEDHp7mtY0Zz2OeVSEN2fV/jj9o7QPDLfY0vPtd252/Z4OWB960fh3NqHjsfa7xPIt2XckffHvXwpoHlt4is/M+Zi+cnljmv0P8AhTNHY+H7WR12lk6YOa6XSVNasmNR1Nkflq3WmnrSt602u1HjsX6VPG1V+napo6oCRqcKa3OKcvPHemhDulOFNpw4qgH8UZ9KT0pdtAgNIcUc0g+9QAhzTlX2pdo64p/tQAlJTjTT0oCwnrQf1oOQOKP4aAE/nSq23im4pcnd70AOWlpv1pTQIKco/KmZ7Yp60wJY/mPNXIV5BqpH+tXYM7hmmgJrj/j0f6VzJHXFdbKoa1kHfFcqykMcihgR7abt/Gpdvem4yakobinbacqU8L+NAhoHtUiMVpwj9qNvpQIXrk0Be9OVM0oU07AMxVi3HXuahIq1axhlNMB1pse9iWU7ELYLeldzrHgmFdOjubS6hnRhkHeB/OuGmttzZHWmCO5LbfNbb6Z4p2AW8j8mTywwZgedvNR42rz1qwlv5Yz1Pqail/WkBAq7m5FXII4SDuNQbQMGoyxHegB86ruO3gVDtLHAp1TW6/MDikBatYdqiryp09KgQBcHvVleRxW0dCWPXmnikVfypyqRyBViHr+tODZpo680vegTF3fNkcUu4/WkxxzTR3NVckk3Zpx496jDDril3e9MB+4emaNwJ9DUWSw9qTd6cUAS7qcrdOcmos4APWgNj60AS5+aoLiLd8y9RTw3zZpd45HY0ARxN/e60knrTZF2NkcilaQMgqRkTtgcd6rSMPWnTTqmeaoSXJboKRRPJMqe9VmkLdKjCs7ZqzDbljSuA2JS3WraJgDNCxgD3pwHrTAljqyq+1QRLjrVkL60yRyrwRSgUqrtxT9vr0qhCL71Kq7c9xTNu7pTt2BjOaAHHGOKYzc+tL93g009+aAEZh9KbuHPrR/FTWbBNADXbHNQzMu3FPkYc5qrIwJGKkBd2elTqwC8VEn5infdXGeaRYy4lznHWvRvhF4gXT7sKW2nIP0rzSb5eKdpeqSaXdrLH+NZ1IuSsbUZ+zlc+6PD/wAQmhtAHkHHTFXrv4gNIM+bw3bvXzj4J+LmgRqqaw8iEf3RXdXHxq8EaXGJbYJcyY/1bMTz9K8mUKi6HuRrQavc7yfxDf6kCqoyxf8APQmokvYtPU75t0meWzXhviT9o1rhpBpVk0St/CxwoNed6x8T/EGtSZe88hW/hi4qVh51NyJYuENj6m1D4hWemq7XF5GgTr84zXnviT9oLS7djHbtJO/ooyD+NeAM0t0waeR5T6uxNV5sL1PFbxwaXxHLLFt/Cj0rU/jprF6rpZRLao3RnOSK4zVNf1PXWZtQv5rjPbcQPpik8P8AhPWvFE6w6Xp01yx4D7SF/OvbvBv7HviLXVjbVb5LGJsErGNx/Ot+WnTMuarVPnn91ACF2qtavhfwbrHjO8WHSLGS43HBlx8g/Gvtzwv+w54N09Va9M99MP4ZWJB+texeE/gvoXhNVTTLCO1jX+FFwKyliYrRI0hh29ZM+c/gv+yrbaKYdR1xEvNRODkDKr9BX1DovgVUjiRE2xquAAMCuz0nw/bqFBABHPSuhWGG1UBcHHfFcNSo57nXGPLoj8EWptK2aBXpI8cKmjFQj3qWMVQiRu1OWkPIpVpoQ/PpTgvSmrxx+dOFUA4U4Y9abSn5uDxQAYpduc4pDQrUCY/AGOKXNJuNHf0qhBnP50h+lL096Q0AJTT6CnA+nWkwRmpYxPagct70m004L6nNAWEydxpaRvTNHvQIU/rTl5603NKvSgZYjq5CxyKpx9uxq1EeRVIReVsxt9K52Vf3jema6GMgqe1YcylZnB4OabAr7eKNo/GpMc4o20gEVRxUgXinBQaVfyoAbsH0o4607v7UrKMUCEGKGzShdvSjaaAGMPlq5bYVPXNVjzVy3X92OO1UA9c5p23ocdKRcrQc0ySJmO4ioZDljkVNuyT3qNvmY9qQyLBNMI+b2qVhzTKQCKu7tVyGPGKihj7nircK5zxTQyZR+dTrjjAxUcOM1OuFbAHFaEkixnr2pxUjGKFb3p4Yc1QEfNLu20p5HSkYd+tACbz+FGTxRkLTWaggc/yqOOKaD3NAb8aTPXJ6UAP454pM0zcccdaFb8xTGPJx05pNx70U1moGOLFm64FG4BuOaZmk565+tIZJuDZB6VWupDFHxzT17571KsHnRkH0oAwm3TdakW3yc1c+yiNuacq0ARRW23BPIqcKB/hSrxS9KAGN8uKVRu+lB+bpUiigB8a9KnXn3NMXC/Wnq21unWmiSQCnL97FNX8zTh1yRVCF3FTgUZ9TSDLKTim49uaAJMfN1psmFzRu2g1GTuFACFht9Ki37c45pWI/ComPU9Km4CTS1FHzkt+FN+83rU6KMCkAKAORStzwKdjrT1UelMZUmUtioltyzdK0fJB+tTxxKqZI5p2AzUsfMwMc1J/Z+ztzWpHEM+9WjBu9h9KXKHM0c49uV4waYtvuYduea2ri325wKqeTt5PFFguLHCZGSJBukc7VX3r6K+DP7OcGsJDqGsxCVW+YLJ90V4j4DtYrrxZa+Z0jO4ZOK/QX4XyafcaSkExACgZAPX2rhrycdEeph6aceeRf8O+E/Dvhq3S3iSCIrzhQK7bTbix2jySGHsBTorPw6kODaJI/+11rldcks9Jk820YW69dm7ivOlors7oyTdkehQ3MMY6rz6VYXVLdBy3PtXlEfi4tHgvn6GpY9eaXczS4XsK5ea5vytHpi68sch5z6c9qSTxAzDhtvOa86XxBDb4aWQbevWuX8TfFrT9HyJ7pFyem4VOpD01Pyqak5xTmPNFe2eEC09BimfhT1qhEm4Ypy0w9BSoeKBEo9KfUa0/15qwHLmlpKPvL6UAIzChOtNpydaBMmHQc0vHSkX5qKYhMUmKd1zSYpgJ0FMbLU+kpMBn40vShqPpSGHWj2oooAO9OXNNNPXnvQgJ4xVqH71VI6tQnNWhF+MbsYFY11nz3+tbEL/nWVfjbdPxjNNiKfP409aRuOaFyeelSMf39BTsU1e9O+lAhyr60p7ikHzU7v1piADGOMU5sbaSmt1qihB972q7GSigdqpL94VcUsR04oJHqx9KRiO9IrH0pGP40CGNxnb3qHPWnt8q1GTigaBmx70IM030NWIV70DJY+OtToOeKYvSpFH4VSESx4z6VMBUSAAjuKl6npVIQ9cY96duwD/Oo/u96du/KmA7caGJ7UjdhRnjnigAam9c0p9jR/DkdaBWGnjGKD78Ugb5cGl9qBh07UcK3vSk/LTMdc0AO6d6G7UZFB9QetACN35pOTzSYp+KADb2qa3ba3PSq5aiNyDQA67TDAgcdagXk9KvSL5kGT1FZ7cHFACsNp65pRkkUzcPrTh8tAEirUiruPFMX5sVIqlecYoAkUdM0/b0pFA79KfzVkCrnOaVvUGm84GOlB4FADtxC01W9eKM9M01sdaAHtg1GzZ4FBbC1Gzd6QDWYDORVWVw3Q4qSVh61DH8zE4yKkZLGu0VPGoOMVEq9M1KOKB7jjT16D0pqjcPen5AwO1UhD14x71KrdsZFQg5AOKlj9c0xFmHsatxknOapR54J/CrsGAcEZpkkUsO7JFUpI+3YVrSY246iqz2+4GgCnoupLpOtRTNwoNfTPw9+I01vahoC024AELzXy/qWnll3ITmmabr2saK3+iXkkXtmuSrSctUd9HEezVuh9zJ8RL6ZSojKn3JrJ1LWr68cNc3G4A52qea+SP8AhaHi7aEXVZI+x2gc/XNMk8aeIrjLPqsuSMGuKWHmztWLgtbH1vN4ug09B5kyrjruYZFcp4g/aA0zQVf/AEpZGHRYjkmvk7UNU1C7Z1ub6eYE87nNVUUdTkn1NTHB92TLGvoj2rxN+0lrWtyNHpkX2VDwHmOSPwrkbPWNQ1i8abULx7uUjgueB+FcfB1Brc09jxg4PrXoUqEIbI4Klac92eXZFGewpKOnSudAL+tSLUQNPVjTAm7ULTc05aYiSnr6UzmnAE0wH03NOpGHpTAYcUL1zS7abQBYVvl4p3Woo27VLjFAmIaGyaWincQ3HFFL+NDUANxTelPppFIYlHpQc0YxQMCaevGKZt59qcvGO4poknU9qsw1UjbmrNu3IqgNC3w3BrN1IH7QcdK04MfjWfqK/vqoCgw4oFOYGmYqAAN81P3VGVpyjFAEisaXJpqg08dKBDuvbmkOaUZpvOaq4x8KF2q2VO0CobfjJqfPzdaLiG7ivFI7DAx0p7YPSoXXtmi4DJG54qInPenMOaaFPSgQ6NdzVcjHQdKjhXC1YVehpgOVacozSelPGOKsQ9R7U8ZpMd6OaYEmPWlx6U0Z5NLwo460wFDe9H8XvRtFJ0bigBaKMg9abnrgUAJQM7qSnbvbmgBetGDxTfXin5wOaAEbHbP0pKOM9aUfrQAfdpGbAyKBnvTT1PYUAMY560KwpDTVbmlcDUswJcIazLqMxXDAVctbjbIuPWo9ZjC3AcNuDUAU/foakXDVEBjmp48ZB70wJQKlX5fxpmD2p4X0NMRIoGadu60xflp49qokTPJx0ozz0zS/hSEe2KACmvyOKVuM1Gzd88UAIW21FJJ8pHSlkbcKgkcBTUgRSv2zT7fNQKu9s9RVlVC0hky8kEH86k+9Ua09cbuaBD1GPrSlhTNx3ZFSKAV5qkA5clQRwKerYYY5pi+nanqT0FMCxHuyD3FXYXDKKoIx+tWIPujvVITLzHjimlcjnpSrnGAac3HOM1YhFh8wEY4qpcWCbxleelXlkP0FLIAeRRYVzL/s9e1OksxGgYDtV3jcDVj7P5sZUde1Tyod9Th7+MrK2agj/WtLVofLuHHoaz0HzZrI0uXLf7w962bHDcVjQ8YPWtWzfYvB61URM8wYjNJnjihutFeedIlSKeajp69qBE3vTlpv8NOWmhEqU+mKM1Iq1QDvu0nancdaQ80AMK8Uw1IaY3U0AC/K1WB83vVWrEedvWgCTtRRRQSxv8WRSFv1p2PSkwB1oAbtpKVsk0HigY2kOaWk70DAGlFNwacvvQBNH29asx8Gqsfy8d6sQ/eFUJmhCeOKralu3IasQsce9QalxtzViM5vmpCpFScbqDUARqMVahtw0ZJNV93anLI23A6UAOZQrYFKKiOacGzQA/nvTeafnrUf8XWgCxF0q9Z26TMS7YrPVsAVKsxWgC1cRpDKQpzVORs5xQ0h2n1qJmO09qBDclvepoYzkZqGPk+tXI1wPeqQEiqAoFSKvamKMVKvrVki7e+KVVzSCpBkVQDlJU4pf4aaKXqOKdgHqe2KVe3amilY5xigB3pSMcc0bumTzTeWb1AoATOelKGI6c0bscYoGeaABu9Jg8YpfbvSk0ALmkP1zQOOeuaUr8vNACbcHNP7U3GO9I3PNACM1RM3anN1NR9fY1IDTTCcGnZ3Z4ppzyKAFW4MfPXFEt49xgHgVXkbsOadHGeOKAJ4sbcVOo/Ooo4/WrK49OKoCSPt/Wn+3SkRQAOKdjDc9KpCY4L2PWlyF+tJnn0pcc0yQ3d8cUZ601vY00n9aAE/ipjENwKVmHTvULNSYxkjbWqtMdw61NI/HNVVYMxqRksS4HoamXsDUaVNjFADgxqXtio1+6KevvQFh6L6U8L270zcRTxJjjvVIkeq7etOTuKatLu3CmBIrdOauwnGM9KoqDuFXIgDzmqQMs7vm6VNu2sF65quSRzUyEHac4NWSSe2KDljtHFRqp3E5p33c85piYi48zBHNXbfDKRVHd83XBq1bN93HWgk5rW4SLh+KyFXaSa6bXI8SnvmsCZevrWMtzRDUbBFaFvJurKVscH1q5DLt74qRnAkflSGlpvpXCdQCnr71HT1oJJ16U9MmmrTlpoCVakUmo1qQfSqAfx0o+lJS0AMz19aaeaeV696YaAG81LH71HSofmoAsLS+1Ip44pfX1oExCMZpDzSmkpiGnAzSfjSnimn1pDBuOlJxS033oGKRS0m6lHFAD1Y5zVmNu/5VVWp4veqQmaELbevem6lgwoR1zSw4/Gi8G6HB7VQjM3cinZG3ik2il20hDdtOVdveg49KUDqaLDG8g9KVaMUqr6dKAFFN/iwKc2KI1+akA7pRTm7UrfpQA1pPlqNm/GnFfWk27pB6UwJYY+5q2vuKjjXao71L1xxVIB2aeqmkUYp2KsgUD8Kdu9aTBwKco9etAAvXrxTh04ph9O9LmncB4GaOvtTVzt60v3c0wBh+dKMZ60nvSqBnPWgAHr1pfal7ccU0nPWgBGyMEU7HGTTMlWz2p/pzQAo+lO4NJ1+lJtoAT8MmkbpS9Oaa2eTSAYzc8c031p/FRtnmkAz2FRTS7eBnNSSSBVwOSahWPccmgBsUZ6mrUaZx2pI1FTxrk07AOVRg1KuOKTaFXpzTwMj0NMCQe1KvQ5pFytKv61SJY7aKDjJ9KN1NzxTEIx7dqY3HShsgA45pC3y5pARsfXrUcnpT3b86gZgM1JSILiTtTYUzzUUrFpKnj4WgZOF29aefmUCo1PGakXNADl4GKcvbFNX71PX5frQIfkL1pVamN+lHpzimSTL972qTioAafkVQEytnBqzGcMKpr2xVtOgqkBZ3ZHtUqsFHNVkwwxU6rVIklVzxmm7jnrxSYLd+KXbTAduB+tWrflh2qmM7h6VbgIXkcmmIq6zCfoK5m4XGa7HU1EluD0PeuUu0AJrOQ4mczVKp96ZIvzUi/iRWRRxrU2nd6Ya4UdAualTpzUQFTJTAlFKvtTQaVD83WmgJVqRajTrUy1QDttFL9aMdPegBp4+lMYZ71Jx9aaRQBGRxQKWkxQBMrcVJuxjuahiY7cVJmgBx703jrS0nTntTJEpGz1pSN3ApP50MaEJ5puaOaXApDG/hR3pc+lItAEi/lU0R5FQj1qWNs47U0Jl+IgdOafMu6PFQwtVgruUitBGcVpnCt1qVyN2KjbrnFADO9SDBpm78KdQAFTT1yAaSpFYd6lgRMM80Rk55p0mO3FIo70gHnrTTng0bjTdxoANxqeJO5qKNctzVuNQoqwHD8qevbHSmgc1Io/GmhCjNOwRgdTS0mOvFUSSfwimkGkp360AL9eTRj8KT15peaAFx70pzuxSdKDzVAL1GDQMj/61N5pc4oAXOOpxS7eRg0n3u2aPWgB2AvUUHntxSUbvSlcBV+9g0ZCnGKXpyaa1ACnHAApjHacU72psgGeKQDTUU0gVetOkkwvXAqBVMhyenanYBI18xsmp1GO1CrjpUm09TTAao+bpViNcYP4VHj5hgVOjigB5+77UvGKbu3EelKx7DpQApy3IpxJ45pqnpmlGPXmrJF+vWkYml570w0CEbp61Gw/DFPb73rUcmfWpYDGyc1VmbaKlcnntVS4ftSKREvzNmrK/dqtGvSrK5oGS/SnrwPemD7tGc/WgCYN7U4dPUVFuH1oVh0oAnz8poU8Co91PU56jj1oJHgZ+lSDDUwDPHSpVwuDViHx4XPFWY6hQdSamXsKpCZYjGenSpV4brxUcZwBS556VSEWN21RSeZuqPdx70/07GmIBnOM8VPGpGKhjU7iTU6MODQST3S5tz3OK5e+TZn611carIhU55Fc5qUWGIxzSlsVEw5ODjNRK1WJlxnvVfbg9MVgbHHn1pOM05qbiuFGwq1MtRqB3qT6UwHrQvXFNzT060xEq1Mgx71EoqZflFUA7HNLjt2oWlFNAJ0xTGFPamdKQDOlNJzTzTDigBUbkVYX2qsvarCtnkUAL39qTnn0pe9IfSmhWEFI3JpRx3pKGMb3OKbTm/WkWkAnainMKatADx7GpEqJalU00JlqE81eXBjIzWdEdtaEJOz61aEZ0gG4imECpbhdsrY9ahYc0AMwc08NTdp6UoXbnnFADkb5qfUa9euKfupAMb73WnbvxFMY/NTtwpAOJP4U1csaOOKmgj3Nk9KYiSOPbipcc9KQpj6U9R+NUALUq01V5zTs4+tUIXPNOUfhTV9xzT+nJpiFz19aFpCe1OIwuKAEFB4zS+tIp68UAAb14pS3vxRt9RS9OMVQBxwaOpo+tJ68/hQA/gdaN27gCkDZ60i0AOB7UDimqw3UrYz9aVgHMwxSL6U2lFKwCnvUcjbc0sjbRyeKrbjM3X5e1OwCn94c9qeqj6Uvl44FKPl46mmA9aWhPpT9u2gAVdtSCk44p3FMQfhTlAzknNNJ60qg4JpiHYxyeR2oycccUgJ4zTs8cCmIOcDNISD2pCTyaRs0ADN+FQSNUsnBqBv6VIEEnFU5uatTNwc1SP3utSyySGps9KhUdh0qagBw3Z9qcDzjoaauTTgPWmA9fenD26U1enrTugFAD49uOafux0qPA/CpFxgYGaZJIAcD1qZcd+KjUDbnOKVWycVQiwv3aljQcc8VErHFSq3PrVITLCKBnmnelQhhUvpiqQiXb3I4p6qOvem8HnpSqwwKYmSY561LGFXrUUeFGT3qdeeT0oJLCMGxg9qx9ZjxJwecZrWh2gnb2qnqse4buvFIaOTuF5J6VUdq0LtfmNUG71ibI5BjSU402vPR0ir0p26mUoqiSRWqRetQr1qeOgRMlTpg1CvFTR8VYEgX8KMfnQuaXpTAbxTNtSU2gkjb0FMI9qkbvimnt60ihu3bUkdR05GwaBE1Jj5qUc0N93FUFxu7H1pGoPpRt96QxCelI1L0pvtSATmjvS9sUgoAcvWnqO9RipFPyjNNCZPH94Vft5McVnx/lVyHmqERXX+sPvVbGO1W7zHBFQo68ZFICEdaG64zU0sis2QMVCeuaAE5BxTm6ZpD700/pQALy1OxSp90VI0e3GaAGRruYCrqptFQwIMk1a6dORVIQccU4DrTu3SjAPWrJFXpntS9evWkx8uBSimAvpgUDNG3vnincUAA+opQvNNGDS+vY0AKx54pVbbx1pNxUA0deaYC7s8CjPHvSUnegB38QpW+lIv60vQGkAKR9aXd2puenrS9KYBkUL83uO1NNO+lMBckUjcLuJprNtHPWoW3TEf3aAE3G4fjpUqx7eKdGoTpRx1oAKXvSU5RnFADgtP2800L83HWnAdqAFpVI70Jk9TSlcCmSHXnvThwOtC89RgUrfpVCDHXHNC4FKFPGKX3NADfWk+7nFO27aYfbrQBGxPOeKrs2PrU7ZwfWq0mBUjRWmaqync1PuGPPOaiQjB9agosJ69qkHJwKhTPSpVoAl3dhT1UYzmmLyakX3poBdvpT8U3ce1PHQUwBfQ/nUm7AwKYq8U7igTHhulPjXJ9Kj461OvQVSJJYe9Sr0yOtRqvfvT1OOatCZMvfNSq2OnIqJf1qVVKgVSESA/LzSr3zSDHTtR95qYmWEy3XpUq/dxnmo4/SptuOuCaCSSHoKL6MNbnHUe1NQFe9WHw0fbp0oA4y+jZWOazG+90rb1QfvH7c1izfKc1i9zRHG80UUcV5x1ie1ApO9KKoRIlTR+1RLwKlj4oEWF61OvaoE61MgqwJRS/e4oFKB60ySNs9BSU/uaa3P1pgMamN14qSm7f1pAM20LxStTTSAnXpTvwqNOgp9MBp60nfjrS03ndxQxh1+tFB9aNvvSGJ7UnSjFJzQA6pF+aolz07U9TQBMtWoWAqmvb1q1G3FUSOvAfLB/WqOTV+4YtHjtVBjhh3oAQsaN1IxpOvtQAuabn06U7mmN8uPSkwJQ2FGDzU0atvw9Vl7Y5rQhyyjdTAlVcVLjNRjinjp1qyWO27hwaXbtIGKUdelOwSKoQijHAFLx2pDS54FMAJ5pVHejilzz7UAGNvtSN165pWzSc/hQAvpS0fd75pPSmA4devFJjbQ2fwpC1GgDuB2o/ix2oHrRnHPamAnO6gMd3Wk469KcvrSAOmeabv2qc0rYVSc1XZvMY4+7TAViZDjoKmjG0YpiYVc96kFIA4z1pMce9L6DvQvcnpSAVcsOlCZBzTh1OOlL+lUA9frTvu+4qNcipOe9ACjil/GmrSleRTJuOHNPXGaYB2pVBznFMQ7d3P5U1sZzmnfdzmmmmA4rxzTTzzR29qaQdp9KAIpKpzfnVt+nvVOfOCahlIozNmmx96WQ/NQuKkZKv8zUo/Oos7u9PU0ASrwMngVIr+1QFugqRflGaAJQeakVuag3buakGRTAlU8e9OUiouakUnjimA9fmb2qRRtpnt2p6rjvmqRJYRuw6VJ6YqGMcdKmUbcVSESox6VNnFRfTpTl7VSJJVYdO9P5bGOKZuAGcdKfG27k1QmTx4A61KoLd+9RRqPpUq4xnNMklRsHpU6HdwRzVWLJyM1aj+8KYGBrEJEzfLgVzd0Burs9dj+QvjrXG3QAY9qxluaR2OL6UhpTzxSL715x1CqvGaAOadnjAFKBQAtSR0ynxjnigRYWp059qgSpkxVgTLTjxmmjml559KZIjfdpuPmqT0zTSKYEZFNb/9VSHimnFADCAKYV4NSMC1N28HtSYDY+KmHbNQ1KDQA71NR9OaeSfSkPNIYlJ+lHeg0AH06UnH40D5aRjQMWlHakHrSigRKuetTRtiq6tg1MnWqEWmy0R7Vm9Dz61oD5kxWfJ940AJ94ZFNz60FqQZJoAd04pvXrT2X3ojUs2KAJoIdzZNXo1xj0qKFQF6c1Oqk9apCHqO9OVabt+WpFPyirRI4cDFJ+NBPSlGKYCCgtu4pTmkJ6cUAKhHvRz+FNLYzin0ALnnmkbNGN2PSl4oAOeO9ISeO9G4ZpT15oAM0bSSaT6CnK3rQAUh6UcGjGeaADA6nmlZgOaYzdeahLNI2AeKABmaQ4HTvT1UKMUKoTgClJwxqgHg7cil6CmDPWl3dsUAOFPpiingBQM0AOUAYozSeh60ufagB4+bGadn8qZ0p+AKBMTPQU/tz1pB0o4qkSLux0p+73pn8Q5zS4oAdu4o4wKRsDHFL1HrQA7FMducUpyuOaZJnpQBBJzyTiqVw3FW5DyRVG46EVD2KRTkPzUq1G33sGpYxn61Ax6jpipF470xc/Sn7c47UwF69OKetNVfepF468CmA5fvccVKq9CeaZjoR0p3amBKP0p4A4NRjHHpTlYdKYEvTpUi9ajXFOB4zTQiZWxU/wCtVVbnipVy1USTqcVKue5qBc1PCT3qxMlUdhUkILd81Huz061NGucYNUSTbR1zTlYjOR9KY4KrT1YsBQSOjYhiO9WFkxVfbk+9SxEMBjr3pgOv/wB9Z5IziuK1GMLJ0rvUhEsbqSOneuK1qEpKceves5FxPOqKPpSV5p2Dlb1p1Mpy5oAfUsZ5qEGpYzTRJYWpo6hXFSxtjtVATqTS59aQZ9KdimSHem/U4p1NbimA1vXqKZnmnbqTFAB1NNdeM9KkprLkc80AQdO1PVvwoYU1eGpATbqTNFGc9aQ0Naj0pfrTaBgf1pRjvSUv4UAIuKX6UUlADl7VKhqIAYzUi54qiS1Gd3HSqc67ZD61biaqt0MN0oArng0D2pjZpwBoAlLHpVi3QBckc1XjjLNV+JdqimgJVXFS8fjTF9KeBVEscuec07tTOOTmpF6VSEIKUDb+NCr3zQfvYpgLu6cU05PalP5ijGRigBvO7NOztzS96Tb70AOVsDimk80mcdacaADdmk59KX8qNw7UAHpS9AR1phAp3TmgBc9MdaR3C9+aa0mzmodxmbpx60ALkyvjtUyqF6UirtXigN2oAVuTSY560baMbfeqAKUdetAz1p/FAAuPxpy0irk+lOXrQAtO/ipp55HWlU0AO+9zSt2pAvHtTsigAC96fxTc8Uo96okULTvY03tmnBhSELtBpMY5pV5+lB9KAGt81MfH1p/6VHJ0oAryt1qjcN6dauTN271nzt17VEikVm5apVGKr7vm55qZXzUDJ1y1SD0qurdxUyt8ucUASDvjinL05FRiTBpWY96sCVGOaeGz1qBG9uKnX34qgHrz2p6ryB3pidxmpFoAeuOhpQfamr83Xg1IPSgCRSDgjrUittqFOKkX3qyCwh3LzUqsBVdR+VTJVICwvrVmH5VznvVVfmwBVlc4x0qySY/dzimqckZ4p+PlHpSMvzH9KYmKWweTT4W+bFR7eRnk1PCAM5pEliGTbwea53xFBtkB65rejcZHtVPXogY1ZQStJ7DR42q0wjk1IuM4q2dPdrUzYwvrXlnaUKVaSnLigbFU1NHUdSxn/wCtTRJPHU0eKgqaP3qgLC5xS9/amK3rUn0qiQNM5/Gnn5e1NY0AR4/OinHBpue1AC0EUlPxntSAhkqNu1WGXioHoGPUlqU/Wo4zT6AQhbHakz69ad7UpxRuMZ1HvR1al70YpAJRRRQA4VIh3d6iz0pw56cUyS1Gar3XrUinpUdx8y0wKvGead6U2p7ePc1AFi3jCjNWlX86aqjAGKmVQOe1WIRVFSntimGnZyKZIZpSfb9aRQadntiqAcuetBJpN23vzRu/KgBd2KX6Uz3pQw70AKfak7UGloAO1FJt79KNx70AKQOxo4FH8NJu/CgA3c0NIFGKhaTbmmKjStuY8CgB20zSZPSp0UAYxTV4GBThQAfQ0vf3oPY0KS3amgE+9Tu/SmdOD607n14pgOUjtT1U01cU4nnFACqMfSlHC8U3g8A0u31oAcFI460vToOaF+76mpbd1jYFhn2oAiX3p6jnmkcDzCRwD2pSenFAhR19adnn6Ui0YLd+aZIv3s96TIHTik2kNx1o+tIB+6jdjmkGAPWhuntQAjHmopDmpGOOetROepoAqy1QuD1zV+TnNZ9x7VMi0Vv4vWpkxUDdcVMv3agqw/B607dgU3NLj86CRyt171IH9qjWnDrVICZct2xUq9OtRR1IvSquBInzVMKhU470/dTAkGc1LHnGTUSsQKlViRjrTAkXH408cHpUaj2xUoqiCRTnBqRRg5qJW28HmpF7U0BahUmra/SqkJq3HluvA7VaJZPu+UU1z3p/TA7VFIwzxVCG7i1SRtu6ios44FPVsUyS3HgN0zS3S+bCVb7o9KhjfnmrUfzKRmpA8U0+2a6uEjUZJNdzrmmrY+HRHgBxzWf4H0YySG4cfKvStnx3J5Ok7eATwK8yx1t6nmS/eNKPrSKtLUljsVLEeaiWpY/amhE61NGRUC1LG1UDLEeOakX86iXrUi54xVEit60ypDimmgCPd1pp/KnMOtNNAAvNScio+9SKaAA85qGRe/SpqbJ3pAVhx0qVWqNuD7U5GPTNMB5FJ7U5v0pKChpoNL1pOOlSAnGPeg0e9FAB/DT1NM9qd0poklWkkA20itxQ56CmBXVSzYFaEEO1AMc1DbwZbcauRg+lNASDtmlo+9jml96sTFLUqgcYpF607jBz1pkh+lLu6UfXpSY5PbNMAx+NGKX2pfagBrULSsMnFC/KuaAFzSAUpI9KBxQAv14pP1oXBPNIz9utAAWqGSbaP6Uk1xt4XrTI4zIctyaAHRr5nLcCrAXb0oVdqjFKKADnvRt7UjNzS5/OgA3YFG40Z3ZopoBP4qdg8g0i53e1SfWmAq80EYNKKTletAADjmlDHkYpBmnD6c0AOXOMYpc7aRad296BBnnilP3aRfu+9KuMfNQSKrUL65oznp0pOlADxxzSfe+lIG20m70oAfxSs4pi8H+VJ9aAFY/LmoJO/qalb5RnrUDsc0AQvxn1qhcNycVblzzVGU8mpkWiu3UHtU6Y21VbOcVPHyAKgsnHzClHGaatOUdaBMXtSrximfpT15zQSShhT1bPAqJeOKkUc8VYEwqQVEpqVe3NUBImcYFPj46cGmK3OBUo7cUAP3HjJ4qUfdNRDgU9ckVSJZKv3RTlwWGKZjpnpTkbacUxF6HpjtVuHjjPHaqkOdvtVtWGVBzitESy1Gm8dcYqCYYzU8Z3cDio5k6VRBW5py/XikfnAHOafjaAKALEahRUy57cCq6sGxxUqkdKQFCzji0bTVwQNo+bNee+KtefVrllB/dqeBWr418RtcSfZ4vlUcHb3ri/vc9a81s613HLxTvpTFpwNQUKBUkdR1LHTQE9SovQ1CvXpUo/KqBkyttxnpUyjmoF+Yip16ZqiRWGaRumKcFODR1oAiYVHxipmqFutAB+lOU0we1ODdABmgB9JjmheT7U7bz0oArSL19KavFTyR96gPy0ASLzQeaatPoAaaDSjjNNakANTenFL9aKBgtO6UylGfwoHYkXtTgu5qYtWYYjjJpkk0a/KO1Tfwj1pFXC8CnKKsQdqcvoaQg0tUIXGKKXJNJmmIUHHHWjdzTeR2zRQA44PNAJ/CjgUuO4oADxSdQaXvijbtNAAoIzRnqO1H8qaemTQAu4BfSq01xtbavJpJp9zbV5pYYdvJ60AEUOcFuTmrCrzxSqu0dM0oB7cUALyOKB8uKN2OvWmtzQAfd70Fs9BigjOKG496ABW9eKOSeaTjcKfgemaAHKaUUi+9L05qgHfw0nNGaQE96AHKOaeODzUa+tP5IoAftpd3Apq0obNAC/Xil28UdRRg4pkjdppR9M0N96k/CkAGl9KPvUpI780CDr3pV75NJ6UbhQAjECq8jDNSyfpVeTFA0QSN7VQm9qtTMcVTkY1mzREEnNTQMMVXfnpUsDDpSGWs0uaYtP780AH609KbTh6Cglj/XmpFPQiofanrVCJlYnrxUi/NUa/d5qRGGDjiqQEqHBqbP4VAvNShsrimBJmn59OtMVqXjAAPNMTJVY8g1JH1z2qHGMc1PH2x3qiS3CxIA5FXY+mcc1TiwuB1NXUbj3rSOxLLsJ3D04qOb5cmnw4xzTbhR1HSmQU2zu6U7cFxk/pTZMqx9KVRjvVAWI8N0qRcHNRQ44qXb6HikB4tdTm4mZ2OcnNRCkxRXknaOopAaXmgBy1LFUK1NHQBOvNSLTFYU5c54qgJ1+tSqc8VDHUucdKoklB7U31zRnNKWpgN7HNRsO9S+9RsARQBD3NO9xStxTe9AEiinCmKc9+Kd1qQFbkcVWkWrG71qOT2pgRL6VIPeovuk1IpFAARSHpTqTtQOxHRS4PWk9aQwFOpoxT1GaYEkMe5uOlXo16AdKgt0K1bWrRIvbHalpQp570nSmQKO+aX73ApAvvSg4qwALj60gGaXvS/hxQAegpMClz8tGO+KQBtGadx0prdqQn86YEnPpSEjmk3UySVY0yxpAKzBck9KqtI02VHC1C0jXDf7ParsUIVcUwI4oFT3qwqilVR3penI60AIOvJ4o53Eg8DtS80nK5oATdSg9qT6ijOM4FACt9aZuw1ONN5HX9KoAHrUqnB60ynBTtBNIB7Ec5o9Dn86XaMUcAelMBu6lOOMUnU0FT17UAOXPTFSZC8VGAR1p3uaAHA/lRzxTcnnilXK/SgB+6gtSZy3FHGaAF3Zo5PSk9sUtAC57UFcU7sKTaaBWEpuT3pxA2570zdQA2RsnFV5F61OxHbmoJDtzQMpS47VUk+961cnXvVGT1PNZvcpEL5qWHHFRNUkPNIZZWnfWmL607PSgB9OXOaYvqacpoEPHPNPB5qPdThz1qkSTL8w96eM1AGPanq1MCyPl6VIuW4zUUbbutSN8vNUBLt5xT4yF7VGsny805fyoESrVmMenNVIzyPWrattwcVSJJ4vyFaEPy4ArOTHHpWhCduPStIksuxH5unNLcfMuB+VMViAMVJKuEznINUSZ8mQ2DQuD16U6RQw560KvG7GRTESw/LjHep1YdMc1XRNwGOlSqNv1pAeKetJRSjFeUdogp1JSigBeKljWoalj+9TAsKPyqVelRJ7VKOvtVASKSGzUynrUK9B61IvrTJY9TS7qbmlyPSmAc0nbNLmk4oAaf503bTmpnsOaAHDG3ijceg603HFOIC/WgAyTnNNOaVcscVbtbFrptq4HHU0DsUG6UitVi9tGtJ2jbqKq/wAVILEv0pOKVenWjHHHSkMY2Kaak4prDnpQAVLGuSKjAPTFWoYztHrTQrk8YIAqdfQ1DHng1KpwKtCH4z0o/ipyt2HWlzTIEztx3pPvUbSKP4asAHTFKqnGSab/ACp2eOlIBO5pQTzijjPvScKetSAfWkz1NKxP1qrcXSxcD5mNO4Ek1wsa8nnpiqoVrhwT09KSNWuG3NzVyOPb9aAFSEL25qVTQozj6U/aRxRcBCAeKbTnUoCajDfNTuAvbmhuT15pjNzRu5zii4BuJpV9qTqeelKSFHrTAMnOaFJ2mk604Dv0p3AVV3VJ04pq4p1IB3Xjvmj+Kkx6UgHvTAP4s0csTzQcikLUXAetP6/SmRngU/BzkHNMBKd97PrTc5+tA+9mgB64o4GaQd6Tb2BoEKeKcGpu4etLtoGSbvakyaaPlXrSrnBJPFACZFMbkmn7c9KjYGgBG6HsarSNuBFSu1QOeTQBWmOM55qlJVqbvVRzj61mxoianQkdqY1LEfmpFFsU5V70xDUykY9qBAFzzT1XP5UgbpUq9ODTJEEZ7mnpH605eKXcF6VQDo4sdaeI1XnOajaTtQGzz0poCfcoGe9Pzu+tQqBUkfemBIvyr705WzTCd3anY9OlAEsORirP41WhzmrAJY4FUiCzD61dibp6VSj6CrsR+XjrVolmjGp4PWpmj+X8KrwSHAGat7N0ZB+tWQZrLtJPbNN3du1SSrlsHiodp780ASxHa2BU/XPr9KrwjJqcA9CaAPERS01etPavKO0KPxpKXvTAWpY+tR06PrTAtLUq1CvQ1Yj+7TAcvWnr78Cmr2qTFUSH0NA96KVuooAOppDjNFL/AA0ANpnrzS+lIehoAlhQtknsKFTdyRxTrf5kbPpSxf6s/WgoiYbWyDVyOYxgYODVSThqf/CKQDbmdriUsxyenNVJAd1TdWpk3UUAImafTF+7Tl6GgAbpSD86VqE60ySWBSTVs/TFQw/dqxTAQZxUikUxe1OTtVCZLu9KdxUa9acv3qCR3XvScdqX1o7GrAQYpe1NNC1IDsjikb5TnFB7VDqDFYxg44pDIbq8CZVetUkUyPk8mmdW5qxD2pXKLkKfKB0q7Zw/aJtgO0+9Uo/9XWro6jybl8fMFyDTAuWul+ZOIoh5r98V1Vj4J0jy1bVtct7MHrHH8zCuCa4ljt5NsjLubnBqq0jZ+8Tg9zmpdxnoWp/DuzkO7w9qx1dcZKSJtauak8N3MtvPIImjmgP7yJhzVzwDqFxbeJLERSsgMqggV618WoU0/wAWw/ZkWH7TYlpto++cDk01sSz5755z1pOSamu1CzuAMDcagH3RTJHK+KVqb/Dml9KaAd7VJGBgg0xBwaefvVQDvu8dqX6U3+HNGaAH9BR+FNWj1oAOTS0H7gpqfeNAEi0+o0p/8IpoBemcU3t705/uimCmA4MelHPrzSj170n+NBIDGBSjml/jxSp3oGgyKf2GDTSBtJpP4RQA7OM1G360U1vvUDI3XGarudtTt1qGXnOaAKUrVUc1ak6mqsnesmURNSK3zUGm+lSMto2OamU1Av3RU6/dqgJBT92OlRd6FPzGmTYm3k0Bs+1RqTzT1+7TESc09ajWpU7VSAlHQEU5Sc0kf3WpV60wJP4adn5cVGScU8/dFAE0PapkzmooVFS9M49apElyD5gPWr0bDIGOlZ9uOtXISWzmtIkMvwnuOKuwsWzk4A6Vnw9auRkhhiqIKt0fmb61XZ2wABxVq65kY1TH+soAmhbaR61bkYbRxzVRPvVcX7oNAH//2Q==;imageBorder=none;" vertex="1" parent="1">
          <mxGeometry x="190" y="510" width="60" height="78.08" as="geometry" />
        </mxCell>
        <mxCell id="1HeqGle4ecsIp8rWs3jU-1" value="&lt;font style=&quot;font-size: 17px;&quot;&gt;\( f_\theta\)&lt;/font&gt;" style="rounded=1;whiteSpace=wrap;html=1;rotation=0;strokeColor=default;strokeWidth=1;fillColor=#E6E6E6;perimeterSpacing=2;gradientColor=none;labelBorderColor=none;" parent="1" vertex="1">
          <mxGeometry x="350" y="480" width="70" height="160" as="geometry" />
        </mxCell>
        <mxCell id="1HeqGle4ecsIp8rWs3jU-3" value="" style="html=1;verticalLabelPosition=bottom;labelBackgroundColor=#ffffff;verticalAlign=top;shadow=0;dashed=0;strokeWidth=1;shape=mxgraph.ios7ui.iconGrid;fillColor=#E6E6E6;gridSize=3,3;gradientColor=none;" parent="1" vertex="1">
          <mxGeometry x="460" y="520" width="70" height="80" as="geometry" />
        </mxCell>
        <mxCell id="1HeqGle4ecsIp8rWs3jU-4" value="" style="endArrow=classic;html=1;rounded=0;" parent="1" edge="1">
          <mxGeometry width="50" height="50" relative="1" as="geometry">
            <mxPoint x="560" y="559.71" as="sourcePoint" />
            <mxPoint x="600" y="559.71" as="targetPoint" />
          </mxGeometry>
        </mxCell>
        <mxCell id="lK9pv-B9VWX-SxhaW1v4-7" value="" style="endArrow=classic;html=1;rounded=0;" edge="1" parent="1">
          <mxGeometry width="50" height="50" relative="1" as="geometry">
            <mxPoint x="280" y="559.71" as="sourcePoint" />
            <mxPoint x="320" y="559.71" as="targetPoint" />
          </mxGeometry>
        </mxCell>
        <mxCell id="lK9pv-B9VWX-SxhaW1v4-8" value="\(\text{context}\)" style="text;html=1;align=center;verticalAlign=middle;whiteSpace=wrap;rounded=0;" vertex="1" parent="1">
          <mxGeometry x="170" y="470" width="60" height="30" as="geometry" />
        </mxCell>
        <mxCell id="lK9pv-B9VWX-SxhaW1v4-9" value="" style="endArrow=none;html=1;rounded=0;strokeColor=#FFFFFF;exitX=0.196;exitY=1.012;exitDx=0;exitDy=0;exitPerimeter=0;" edge="1" parent="1" source="lK9pv-B9VWX-SxhaW1v4-6">
          <mxGeometry width="50" height="50" relative="1" as="geometry">
            <mxPoint x="170" y="620" as="sourcePoint" />
            <mxPoint x="170" y="510" as="targetPoint" />
          </mxGeometry>
        </mxCell>
        <mxCell id="lK9pv-B9VWX-SxhaW1v4-11" value="" style="endArrow=none;html=1;rounded=0;strokeColor=#FFFFFF;exitX=0.607;exitY=1.017;exitDx=0;exitDy=0;exitPerimeter=0;" edge="1" parent="1">
          <mxGeometry width="50" height="50" relative="1" as="geometry">
            <mxPoint x="210.7" y="631.04" as="sourcePoint" />
            <mxPoint x="210" y="509" as="targetPoint" />
          </mxGeometry>
        </mxCell>
        <mxCell id="lK9pv-B9VWX-SxhaW1v4-12" value="" style="endArrow=none;html=1;rounded=0;strokeColor=#FFFFFF;exitX=0.801;exitY=1.026;exitDx=0;exitDy=0;exitPerimeter=0;" edge="1" parent="1">
          <mxGeometry width="50" height="50" relative="1" as="geometry">
            <mxPoint x="230.10000000000002" y="632.12" as="sourcePoint" />
            <mxPoint x="230" y="509" as="targetPoint" />
          </mxGeometry>
        </mxCell>
        <mxCell id="lK9pv-B9VWX-SxhaW1v4-13" value="" style="endArrow=none;html=1;rounded=0;strokeColor=#FFFFFF;" edge="1" parent="1">
          <mxGeometry width="50" height="50" relative="1" as="geometry">
            <mxPoint x="250" y="530" as="sourcePoint" />
            <mxPoint x="150" y="530" as="targetPoint" />
          </mxGeometry>
        </mxCell>
        <mxCell id="lK9pv-B9VWX-SxhaW1v4-14" value="" style="endArrow=none;html=1;rounded=0;strokeColor=#FFFFFF;" edge="1" parent="1">
          <mxGeometry width="50" height="50" relative="1" as="geometry">
            <mxPoint x="250" y="548.75" as="sourcePoint" />
            <mxPoint x="150" y="548.75" as="targetPoint" />
          </mxGeometry>
        </mxCell>
        <mxCell id="lK9pv-B9VWX-SxhaW1v4-15" value="" style="endArrow=none;html=1;rounded=0;strokeColor=#FFFFFF;" edge="1" parent="1">
          <mxGeometry width="50" height="50" relative="1" as="geometry">
            <mxPoint x="250" y="570" as="sourcePoint" />
            <mxPoint x="150" y="570" as="targetPoint" />
          </mxGeometry>
        </mxCell>
        <mxCell id="lK9pv-B9VWX-SxhaW1v4-16" value="" style="endArrow=none;html=1;rounded=0;strokeColor=#FFFFFF;" edge="1" parent="1">
          <mxGeometry width="50" height="50" relative="1" as="geometry">
            <mxPoint x="250" y="590" as="sourcePoint" />
            <mxPoint x="150" y="590" as="targetPoint" />
          </mxGeometry>
        </mxCell>
        <mxCell id="lK9pv-B9VWX-SxhaW1v4-17" value="" style="endArrow=none;html=1;rounded=0;strokeColor=#FFFFFF;" edge="1" parent="1">
          <mxGeometry width="50" height="50" relative="1" as="geometry">
            <mxPoint x="250" y="610" as="sourcePoint" />
            <mxPoint x="150" y="610" as="targetPoint" />
          </mxGeometry>
        </mxCell>
        <mxCell id="lK9pv-B9VWX-SxhaW1v4-19" value="" style="endArrow=none;html=1;rounded=0;strokeColor=#FFFFFF;exitX=0.196;exitY=1.012;exitDx=0;exitDy=0;exitPerimeter=0;" edge="1" parent="1">
          <mxGeometry width="50" height="50" relative="1" as="geometry">
            <mxPoint x="190" y="630" as="sourcePoint" />
            <mxPoint x="190" y="509" as="targetPoint" />
          </mxGeometry>
        </mxCell>
      </root>
    </mxGraphModel>
  </diagram>
</mxfile>
